<svg xmlns="http://www.w3.org/2000/svg" xmlns:xlink="http://www.w3.org/1999/xlink" width="200" zoomAndPan="magnify" viewBox="0 0 150 149.999998" height="200" preserveAspectRatio="xMidYMid meet" version="1.0"><defs><g/><clipPath id="f1fa631db6"><path d="M 29.804688 44.214844 L 120.210938 44.214844 L 120.210938 74.828125 L 29.804688 74.828125 Z M 29.804688 44.214844 " clip-rule="nonzero"/></clipPath></defs><rect x="-15" width="180" fill="#ffffff" y="-15" height="179.999997" fill-opacity="1"/><rect x="-15" width="180" fill="#ffffff" y="-15" height="179.999997" fill-opacity="1"/><g clip-path="url(#f1fa631db6)"><path fill="#000000" d="M 120.066406 49.847656 C 119.921875 50.441406 119.433594 51.039062 118.910156 51.347656 C 118.386719 51.652344 117.574219 51.816406 116.980469 51.601562 C 116.835938 51.546875 116.671875 51.492188 116.527344 51.457031 C 116.386719 51.417969 116.242188 51.363281 116.097656 51.328125 L 113.335938 65.113281 C 112.214844 70.734375 107.273438 74.78125 101.550781 74.78125 L 95.578125 74.78125 C 88.109375 74.78125 81.648438 69.558594 80.078125 62.257812 C 80.078125 62.257812 79.574219 59.875 79.011719 57.292969 C 78.632812 57.054688 78.253906 56.839844 77.859375 56.660156 C 77.261719 56.421875 76.632812 56.261719 76 56.152344 C 75.351562 56.097656 74.699219 56.097656 74.050781 56.152344 C 73.417969 56.261719 72.789062 56.421875 72.191406 56.660156 C 71.8125 56.839844 71.453125 57.039062 71.109375 57.253906 C 70.550781 59.855469 70.027344 62.257812 70.027344 62.257812 C 68.4375 69.578125 61.996094 74.78125 54.527344 74.78125 L 48.554688 74.78125 C 42.832031 74.78125 37.90625 70.734375 36.769531 65.113281 L 33.953125 51.292969 C 33.664062 51.382812 33.359375 51.472656 33.070312 51.582031 C 32.4375 51.816406 31.71875 51.636719 31.15625 51.328125 C 30.582031 51.019531 30.199219 50.441406 30.003906 49.828125 C 29.804688 49.234375 29.949219 48.4375 30.253906 47.894531 C 30.597656 47.316406 31.121094 46.957031 31.753906 46.738281 C 31.769531 46.738281 31.769531 46.738281 31.789062 46.722656 C 32.601562 46.433594 33.429688 46.214844 34.261719 46.015625 C 36.175781 45.527344 38.121094 45.167969 40.089844 44.914062 C 43.066406 44.515625 46.0625 44.28125 49.078125 44.300781 C 52.667969 44.316406 56.277344 44.699219 59.796875 45.367188 C 63.835938 46.144531 67.734375 47.40625 71.507812 49.070312 C 72.082031 49.324219 72.464844 49.992188 72.660156 50.570312 C 72.734375 50.804688 72.769531 51.039062 72.75 51.292969 C 74.230469 51.019531 75.765625 51.003906 77.28125 51.292969 C 77.28125 51.039062 77.300781 50.804688 77.371094 50.570312 C 77.515625 50.027344 77.984375 49.304688 78.527344 49.070312 C 79.15625 48.800781 79.789062 48.527344 80.4375 48.257812 C 84.03125 46.792969 87.765625 45.765625 91.589844 45.132812 C 95.074219 44.554688 98.609375 44.265625 102.128906 44.316406 C 105.050781 44.355469 107.976562 44.625 110.863281 45.058594 C 112.703125 45.328125 114.507812 45.691406 116.3125 46.179688 C 116.980469 46.359375 117.664062 46.539062 118.316406 46.777344 C 118.945312 46.992188 119.433594 47.355469 119.8125 47.933594 C 120.175781 48.472656 120.210938 49.195312 120.066406 49.847656 Z M 120.066406 49.847656 " fill-opacity="1" fill-rule="nonzero"/></g><g fill="#000000" fill-opacity="1"><g transform="translate(38.232909, 112.42336)"><g><path d="M 1.59375 -1.28125 C 1.769531 -1.507812 1.984375 -1.632812 2.234375 -1.65625 C 2.492188 -1.675781 2.753906 -1.585938 3.015625 -1.390625 C 3.171875 -1.265625 3.285156 -1.125 3.359375 -0.96875 C 3.441406 -0.8125 3.472656 -0.644531 3.453125 -0.46875 C 3.429688 -0.300781 3.359375 -0.140625 3.234375 0.015625 C 3.066406 0.234375 2.851562 0.359375 2.59375 0.390625 C 2.34375 0.421875 2.085938 0.335938 1.828125 0.140625 C 1.660156 0.00390625 1.535156 -0.144531 1.453125 -0.3125 C 1.378906 -0.476562 1.351562 -0.644531 1.375 -0.8125 C 1.40625 -0.976562 1.476562 -1.132812 1.59375 -1.28125 Z M 5.703125 -0.625 L 3.734375 1.90625 C 3.691406 1.957031 3.632812 2.003906 3.5625 2.046875 C 3.488281 2.097656 3.414062 2.132812 3.34375 2.15625 C 3.28125 2.1875 3.234375 2.203125 3.203125 2.203125 C 3.191406 2.222656 3.175781 2.21875 3.15625 2.1875 C 3.132812 2.164062 3.128906 2.144531 3.140625 2.125 L 3.859375 1.203125 L 3.21875 0.75 C 3.164062 0.707031 3.140625 0.65625 3.140625 0.59375 L 3.15625 0.359375 C 3.15625 0.335938 3.175781 0.320312 3.21875 0.3125 C 3.257812 0.3125 3.289062 0.328125 3.3125 0.359375 L 3.390625 0.453125 C 3.398438 0.484375 3.421875 0.507812 3.453125 0.53125 C 3.492188 0.5625 3.515625 0.582031 3.515625 0.59375 L 4.046875 0.96875 L 4.484375 0.40625 L 3.875 -0.03125 C 3.8125 -0.0703125 3.78125 -0.125 3.78125 -0.1875 L 3.8125 -0.421875 C 3.800781 -0.441406 3.8125 -0.457031 3.84375 -0.46875 C 3.875 -0.476562 3.90625 -0.46875 3.9375 -0.4375 L 4.046875 -0.328125 C 4.046875 -0.296875 4.0625 -0.265625 4.09375 -0.234375 C 4.132812 -0.210938 4.160156 -0.195312 4.171875 -0.1875 L 4.671875 0.171875 L 5.375 -0.734375 C 5.414062 -0.785156 5.429688 -0.835938 5.421875 -0.890625 C 5.421875 -0.953125 5.414062 -1.019531 5.40625 -1.09375 C 5.40625 -1.125 5.414062 -1.148438 5.4375 -1.171875 C 5.46875 -1.191406 5.5 -1.203125 5.53125 -1.203125 C 5.5625 -1.210938 5.585938 -1.195312 5.609375 -1.15625 L 5.71875 -0.921875 C 5.769531 -0.835938 5.789062 -0.78125 5.78125 -0.75 C 5.769531 -0.71875 5.742188 -0.675781 5.703125 -0.625 Z M 2.84375 -1.15625 C 2.644531 -1.300781 2.457031 -1.359375 2.28125 -1.328125 C 2.113281 -1.296875 1.972656 -1.207031 1.859375 -1.0625 C 1.753906 -0.925781 1.707031 -0.765625 1.71875 -0.578125 C 1.738281 -0.390625 1.835938 -0.226562 2.015625 -0.09375 C 2.203125 0.0507812 2.378906 0.101562 2.546875 0.0625 C 2.722656 0.0195312 2.863281 -0.0664062 2.96875 -0.203125 C 3.082031 -0.347656 3.132812 -0.503906 3.125 -0.671875 C 3.125 -0.847656 3.03125 -1.007812 2.84375 -1.15625 Z M 2.71875 3.203125 L 0.9375 1.8125 C 0.894531 1.78125 0.851562 1.738281 0.8125 1.6875 C 0.769531 1.632812 0.742188 1.578125 0.734375 1.515625 C 0.734375 1.453125 0.765625 1.378906 0.828125 1.296875 L 1.15625 0.875 C 1.207031 0.8125 1.238281 0.757812 1.25 0.71875 C 1.257812 0.675781 1.25 0.628906 1.21875 0.578125 C 1.195312 0.523438 1.179688 0.484375 1.171875 0.453125 C 1.171875 0.429688 1.179688 0.410156 1.203125 0.390625 L 1.296875 0.265625 L 1.5625 0.515625 C 1.65625 0.597656 1.6875 0.675781 1.65625 0.75 C 1.625 0.820312 1.578125 0.898438 1.515625 0.984375 L 1.1875 1.40625 C 1.15625 1.457031 1.128906 1.492188 1.109375 1.515625 C 1.097656 1.546875 1.117188 1.582031 1.171875 1.625 L 1.890625 2.171875 C 2.078125 2.316406 2.234375 2.425781 2.359375 2.5 C 2.492188 2.582031 2.59375 2.640625 2.65625 2.671875 C 2.695312 2.679688 2.726562 2.691406 2.75 2.703125 C 2.78125 2.722656 2.804688 2.753906 2.828125 2.796875 L 2.9375 3 C 2.96875 3.050781 2.984375 3.085938 2.984375 3.109375 C 2.984375 3.140625 2.957031 3.171875 2.90625 3.203125 C 2.863281 3.234375 2.832031 3.25 2.8125 3.25 C 2.789062 3.25 2.757812 3.234375 2.71875 3.203125 Z M 3.171875 -1.59375 C 3.023438 -1.6875 2.867188 -1.789062 2.703125 -1.90625 C 2.546875 -2.019531 2.394531 -2.125 2.25 -2.21875 C 2.1875 -2.269531 2.128906 -2.316406 2.078125 -2.359375 C 2.035156 -2.398438 2.003906 -2.441406 1.984375 -2.484375 C 1.984375 -2.515625 2.003906 -2.550781 2.046875 -2.59375 L 2.1875 -2.734375 C 2.28125 -2.648438 2.375 -2.5625 2.46875 -2.46875 C 2.570312 -2.375 2.671875 -2.289062 2.765625 -2.21875 C 2.898438 -2.113281 3.039062 -2.003906 3.1875 -1.890625 L 3.421875 -2.1875 C 3.460938 -2.25 3.488281 -2.289062 3.5 -2.3125 C 3.507812 -2.34375 3.503906 -2.394531 3.484375 -2.46875 C 3.484375 -2.5 3.503906 -2.523438 3.546875 -2.546875 C 3.597656 -2.566406 3.628906 -2.5625 3.640625 -2.53125 L 3.765625 -2.359375 C 3.828125 -2.285156 3.847656 -2.226562 3.828125 -2.1875 C 3.816406 -2.15625 3.785156 -2.113281 3.734375 -2.0625 L 3.46875 -1.703125 C 3.5625 -1.640625 3.65625 -1.570312 3.75 -1.5 C 3.84375 -1.4375 3.925781 -1.378906 4 -1.328125 C 4.070312 -1.285156 4.117188 -1.265625 4.140625 -1.265625 C 4.242188 -1.203125 4.304688 -1.160156 4.328125 -1.140625 C 4.359375 -1.117188 4.378906 -1.078125 4.390625 -1.015625 L 4.46875 -0.875 C 4.488281 -0.800781 4.488281 -0.753906 4.46875 -0.734375 C 4.457031 -0.722656 4.429688 -0.703125 4.390625 -0.671875 C 4.335938 -0.671875 4.304688 -0.664062 4.296875 -0.65625 C 4.285156 -0.644531 4.265625 -0.660156 4.234375 -0.703125 C 4.203125 -0.710938 4.171875 -0.742188 4.140625 -0.796875 C 4.109375 -0.847656 4.078125 -0.890625 4.046875 -0.921875 C 3.898438 -1.046875 3.753906 -1.160156 3.609375 -1.265625 C 3.472656 -1.367188 3.328125 -1.476562 3.171875 -1.59375 Z M 3.171875 -1.59375 "/></g></g></g><g fill="#000000" fill-opacity="1"><g transform="translate(42.191478, 115.504611)"><g><path d="M 4.03125 -1.515625 L 3.203125 -0.234375 C 3.160156 -0.179688 3.113281 -0.140625 3.0625 -0.109375 C 3.007812 -0.0859375 2.953125 -0.0976562 2.890625 -0.140625 L 1.640625 -0.921875 C 1.597656 -0.859375 1.550781 -0.820312 1.5 -0.8125 C 1.476562 -0.800781 1.445312 -0.800781 1.40625 -0.8125 C 1.363281 -0.832031 1.332031 -0.863281 1.3125 -0.90625 C 1.289062 -0.925781 1.285156 -0.957031 1.296875 -1 L 1.390625 -1.15625 L 2.21875 -2.640625 L 2.25 -2.875 C 2.257812 -2.894531 2.273438 -2.90625 2.296875 -2.90625 C 2.316406 -2.914062 2.351562 -2.921875 2.40625 -2.921875 C 2.5 -2.921875 2.546875 -2.898438 2.546875 -2.859375 L 2.578125 -2.65625 L 3.96875 -1.78125 C 3.988281 -1.769531 4.007812 -1.75 4.03125 -1.71875 C 4.050781 -1.695312 4.0625 -1.6875 4.0625 -1.6875 C 4.082031 -1.632812 4.070312 -1.578125 4.03125 -1.515625 Z M 1.4375 0.9375 C 1.613281 0.65625 1.84375 0.492188 2.125 0.453125 C 2.40625 0.421875 2.6875 0.492188 2.96875 0.671875 C 3.132812 0.785156 3.265625 0.921875 3.359375 1.078125 C 3.453125 1.242188 3.5 1.414062 3.5 1.59375 C 3.5 1.78125 3.4375 1.96875 3.3125 2.15625 C 3.207031 2.320312 3.070312 2.441406 2.90625 2.515625 C 2.738281 2.597656 2.5625 2.628906 2.375 2.609375 C 2.1875 2.597656 2.003906 2.53125 1.828125 2.40625 C 1.640625 2.289062 1.5 2.148438 1.40625 1.984375 C 1.3125 1.816406 1.265625 1.640625 1.265625 1.453125 C 1.273438 1.273438 1.332031 1.101562 1.4375 0.9375 Z M 2.796875 0.9375 C 2.578125 0.800781 2.375 0.753906 2.1875 0.796875 C 2 0.835938 1.847656 0.945312 1.734375 1.125 C 1.660156 1.226562 1.617188 1.34375 1.609375 1.46875 C 1.597656 1.59375 1.617188 1.710938 1.671875 1.828125 C 1.734375 1.953125 1.84375 2.0625 2 2.15625 C 2.15625 2.257812 2.296875 2.3125 2.421875 2.3125 C 2.546875 2.3125 2.660156 2.28125 2.765625 2.21875 C 2.867188 2.15625 2.957031 2.070312 3.03125 1.96875 C 3.144531 1.789062 3.1875 1.609375 3.15625 1.421875 C 3.132812 1.242188 3.015625 1.082031 2.796875 0.9375 Z M 3 -0.625 L 3.59375 -1.53125 C 3.625 -1.570312 3.640625 -1.597656 3.640625 -1.609375 C 3.640625 -1.617188 3.617188 -1.640625 3.578125 -1.671875 L 2.578125 -2.296875 C 2.523438 -2.335938 2.488281 -2.347656 2.46875 -2.328125 C 2.457031 -2.304688 2.441406 -2.28125 2.421875 -2.25 L 1.796875 -1.1875 L 2.84375 -0.5625 C 2.894531 -0.519531 2.945312 -0.539062 3 -0.625 Z M 5.625 -1.109375 L 4.34375 0.890625 C 4.300781 0.953125 4.242188 1.003906 4.171875 1.046875 C 4.109375 1.097656 4.039062 1.140625 3.96875 1.171875 C 3.90625 1.203125 3.863281 1.222656 3.84375 1.234375 C 3.820312 1.242188 3.800781 1.238281 3.78125 1.21875 C 3.757812 1.195312 3.753906 1.171875 3.765625 1.140625 L 4.265625 0.375 L 3.609375 -0.015625 C 3.546875 -0.0546875 3.515625 -0.109375 3.515625 -0.171875 L 3.515625 -0.40625 C 3.523438 -0.414062 3.539062 -0.425781 3.5625 -0.4375 C 3.59375 -0.457031 3.628906 -0.453125 3.671875 -0.421875 L 3.75 -0.3125 C 3.78125 -0.300781 3.8125 -0.28125 3.84375 -0.25 C 3.875 -0.21875 3.890625 -0.203125 3.890625 -0.203125 L 4.4375 0.125 L 4.8125 -0.46875 L 4.203125 -0.859375 C 4.128906 -0.890625 4.09375 -0.929688 4.09375 -0.984375 L 4.078125 -1.21875 C 4.085938 -1.238281 4.101562 -1.253906 4.125 -1.265625 C 4.15625 -1.273438 4.1875 -1.265625 4.21875 -1.234375 L 4.328125 -1.140625 C 4.359375 -1.128906 4.382812 -1.109375 4.40625 -1.078125 C 4.4375 -1.046875 4.457031 -1.03125 4.46875 -1.03125 L 4.984375 -0.71875 L 5.28125 -1.1875 C 5.320312 -1.25 5.335938 -1.304688 5.328125 -1.359375 C 5.328125 -1.421875 5.316406 -1.488281 5.296875 -1.5625 C 5.285156 -1.582031 5.289062 -1.601562 5.3125 -1.625 C 5.332031 -1.644531 5.359375 -1.660156 5.390625 -1.671875 C 5.429688 -1.679688 5.460938 -1.671875 5.484375 -1.640625 L 5.609375 -1.421875 C 5.679688 -1.347656 5.710938 -1.289062 5.703125 -1.25 C 5.691406 -1.207031 5.664062 -1.160156 5.625 -1.109375 Z M 5.625 -1.109375 "/></g></g></g><g fill="#000000" fill-opacity="1"><g transform="translate(46.401094, 118.239269)"><g><path d="M 1.046875 -0.984375 C 1.148438 -1.171875 1.28125 -1.3125 1.4375 -1.40625 C 1.601562 -1.507812 1.78125 -1.5625 1.96875 -1.5625 C 2.164062 -1.5625 2.363281 -1.507812 2.5625 -1.40625 C 2.738281 -1.3125 2.878906 -1.179688 2.984375 -1.015625 C 3.097656 -0.859375 3.160156 -0.679688 3.171875 -0.484375 C 3.191406 -0.296875 3.148438 -0.109375 3.046875 0.078125 C 2.941406 0.265625 2.8125 0.398438 2.65625 0.484375 C 2.5 0.578125 2.328125 0.625 2.140625 0.625 C 1.953125 0.632812 1.757812 0.585938 1.5625 0.484375 C 1.363281 0.378906 1.207031 0.25 1.09375 0.09375 C 0.988281 -0.0625 0.925781 -0.226562 0.90625 -0.40625 C 0.894531 -0.59375 0.941406 -0.785156 1.046875 -0.984375 Z M 5.34375 -1.6875 L 4.203125 0.453125 L 4.40625 0.53125 C 4.457031 0.5625 4.5 0.582031 4.53125 0.59375 C 4.570312 0.613281 4.640625 0.628906 4.734375 0.640625 C 4.816406 0.660156 4.875 0.675781 4.90625 0.6875 C 4.9375 0.695312 4.96875 0.722656 5 0.765625 L 5.125 0.984375 C 5.164062 1.035156 5.15625 1.078125 5.09375 1.109375 L 5.046875 1.140625 C 4.972656 1.171875 4.90625 1.160156 4.84375 1.109375 C 4.820312 1.085938 4.789062 1.066406 4.75 1.046875 C 4.71875 1.023438 4.695312 1.007812 4.6875 1 L 4.078125 0.6875 L 3.296875 2.15625 C 3.265625 2.21875 3.210938 2.273438 3.140625 2.328125 C 3.078125 2.378906 3.015625 2.421875 2.953125 2.453125 C 2.898438 2.492188 2.859375 2.519531 2.828125 2.53125 C 2.816406 2.539062 2.796875 2.535156 2.765625 2.515625 C 2.734375 2.492188 2.722656 2.472656 2.734375 2.453125 L 4.96875 -1.75 C 5.007812 -1.8125 5.023438 -1.867188 5.015625 -1.921875 C 5.003906 -1.984375 4.988281 -2.046875 4.96875 -2.109375 C 4.957031 -2.128906 4.957031 -2.15625 4.96875 -2.1875 C 4.988281 -2.21875 5.015625 -2.234375 5.046875 -2.234375 C 5.085938 -2.242188 5.117188 -2.234375 5.140625 -2.203125 L 5.3125 -1.984375 C 5.363281 -1.929688 5.390625 -1.878906 5.390625 -1.828125 C 5.390625 -1.785156 5.375 -1.738281 5.34375 -1.6875 Z M 2.421875 -1.125 C 2.203125 -1.238281 2 -1.269531 1.8125 -1.21875 C 1.625 -1.164062 1.472656 -1.035156 1.359375 -0.828125 C 1.253906 -0.628906 1.234375 -0.429688 1.296875 -0.234375 C 1.367188 -0.0351562 1.503906 0.113281 1.703125 0.21875 C 1.929688 0.34375 2.132812 0.363281 2.3125 0.28125 C 2.5 0.207031 2.640625 0.0820312 2.734375 -0.09375 C 2.835938 -0.28125 2.859375 -0.46875 2.796875 -0.65625 C 2.742188 -0.851562 2.617188 -1.007812 2.421875 -1.125 Z M 2.71875 -1.671875 L 1.625 -2.203125 C 1.46875 -2.273438 1.367188 -2.34375 1.328125 -2.40625 C 1.296875 -2.4375 1.300781 -2.476562 1.34375 -2.53125 L 1.484375 -2.703125 C 1.578125 -2.617188 1.679688 -2.535156 1.796875 -2.453125 C 1.921875 -2.378906 2.035156 -2.316406 2.140625 -2.265625 C 2.234375 -2.210938 2.320312 -2.164062 2.40625 -2.125 C 2.488281 -2.082031 2.578125 -2.035156 2.671875 -1.984375 L 2.90625 -2.40625 C 2.9375 -2.476562 2.953125 -2.53125 2.953125 -2.5625 C 2.960938 -2.59375 2.953125 -2.644531 2.921875 -2.71875 C 2.910156 -2.75 2.925781 -2.773438 2.96875 -2.796875 C 3.007812 -2.828125 3.046875 -2.832031 3.078125 -2.8125 L 3.21875 -2.640625 C 3.28125 -2.585938 3.3125 -2.535156 3.3125 -2.484375 C 3.3125 -2.441406 3.289062 -2.390625 3.25 -2.328125 L 3 -1.84375 C 3.09375 -1.78125 3.195312 -1.726562 3.3125 -1.6875 C 3.425781 -1.644531 3.523438 -1.601562 3.609375 -1.5625 C 3.691406 -1.519531 3.742188 -1.5 3.765625 -1.5 C 3.890625 -1.46875 3.96875 -1.4375 4 -1.40625 C 4.03125 -1.382812 4.054688 -1.347656 4.078125 -1.296875 L 4.1875 -1.171875 C 4.195312 -1.117188 4.195312 -1.078125 4.1875 -1.046875 C 4.1875 -1.023438 4.164062 -1 4.125 -0.96875 C 4.082031 -0.945312 4.050781 -0.9375 4.03125 -0.9375 C 4.019531 -0.9375 3.992188 -0.945312 3.953125 -0.96875 C 3.941406 -0.988281 3.910156 -1.015625 3.859375 -1.046875 C 3.816406 -1.085938 3.769531 -1.117188 3.71875 -1.140625 C 3.5625 -1.234375 3.394531 -1.328125 3.21875 -1.421875 C 3.039062 -1.515625 2.875 -1.597656 2.71875 -1.671875 Z M 2.71875 -1.671875 "/></g></g></g><g fill="#000000" fill-opacity="1"><g transform="translate(51.038896, 120.693938)"><g><path d="M 3.09375 1.421875 L 1.0625 0.625 L 0.453125 0.390625 C 0.398438 0.378906 0.328125 0.351562 0.234375 0.3125 C 0.148438 0.28125 0.0859375 0.242188 0.046875 0.203125 C -0.00390625 0.171875 0 0.113281 0.0625 0.03125 L 0.171875 -0.140625 C 0.234375 -0.0859375 0.3125 -0.0351562 0.40625 0.015625 C 0.5 0.078125 0.597656 0.128906 0.703125 0.171875 C 0.816406 0.222656 0.910156 0.265625 0.984375 0.296875 C 1.054688 0.335938 1.113281 0.363281 1.15625 0.375 C 1.425781 0.488281 1.679688 0.597656 1.921875 0.703125 L 2.484375 -0.625 C 2.515625 -0.695312 2.53125 -0.75 2.53125 -0.78125 C 2.539062 -0.820312 2.515625 -0.859375 2.453125 -0.890625 C 2.453125 -0.910156 2.441406 -0.9375 2.421875 -0.96875 C 2.398438 -1.007812 2.40625 -1.046875 2.4375 -1.078125 L 2.484375 -1.1875 L 2.796875 -1 C 2.867188 -0.945312 2.90625 -0.894531 2.90625 -0.84375 C 2.914062 -0.800781 2.914062 -0.765625 2.90625 -0.734375 L 2.25 0.828125 C 2.4375 0.898438 2.617188 0.96875 2.796875 1.03125 C 2.984375 1.101562 3.144531 1.171875 3.28125 1.234375 C 3.332031 1.253906 3.398438 1.28125 3.484375 1.3125 C 3.578125 1.34375 3.660156 1.367188 3.734375 1.390625 C 3.804688 1.421875 3.875 1.445312 3.9375 1.46875 C 4.007812 1.488281 4.054688 1.503906 4.078125 1.515625 C 4.179688 1.546875 4.265625 1.570312 4.328125 1.59375 C 4.398438 1.613281 4.445312 1.648438 4.46875 1.703125 L 4.578125 1.921875 C 4.597656 1.960938 4.601562 1.988281 4.59375 2 C 4.59375 2.019531 4.585938 2.035156 4.578125 2.046875 C 4.554688 2.066406 4.53125 2.082031 4.5 2.09375 C 4.476562 2.101562 4.457031 2.101562 4.4375 2.09375 L 4.125 1.90625 C 4.050781 1.851562 3.945312 1.796875 3.8125 1.734375 C 3.6875 1.679688 3.554688 1.625 3.421875 1.5625 C 3.296875 1.507812 3.1875 1.460938 3.09375 1.421875 Z M 5.015625 -1.453125 L 4.9375 -1.3125 C 4.875 -1.195312 4.789062 -1.054688 4.6875 -0.890625 C 4.582031 -0.722656 4.46875 -0.550781 4.34375 -0.375 C 4.226562 -0.207031 4.109375 -0.046875 3.984375 0.109375 C 3.859375 0.265625 3.734375 0.398438 3.609375 0.515625 C 3.585938 0.535156 3.550781 0.539062 3.5 0.53125 C 3.457031 0.519531 3.425781 0.492188 3.40625 0.453125 C 3.394531 0.421875 3.40625 0.390625 3.4375 0.359375 C 3.664062 0.0859375 3.878906 -0.207031 4.078125 -0.53125 C 4.285156 -0.851562 4.460938 -1.160156 4.609375 -1.453125 L 4.078125 -1.65625 C 4.066406 -1.65625 4.003906 -1.675781 3.890625 -1.71875 C 3.785156 -1.769531 3.65625 -1.828125 3.5 -1.890625 C 3.34375 -1.960938 3.179688 -2.023438 3.015625 -2.078125 C 2.898438 -2.117188 2.789062 -2.160156 2.6875 -2.203125 C 2.582031 -2.253906 2.460938 -2.304688 2.328125 -2.359375 C 2.296875 -2.378906 2.253906 -2.398438 2.203125 -2.421875 C 2.160156 -2.453125 2.113281 -2.476562 2.0625 -2.5 C 2.03125 -2.519531 2.039062 -2.570312 2.09375 -2.65625 L 2.203125 -2.828125 C 2.273438 -2.773438 2.367188 -2.710938 2.484375 -2.640625 C 2.597656 -2.578125 2.710938 -2.519531 2.828125 -2.46875 C 2.941406 -2.425781 3.03125 -2.390625 3.09375 -2.359375 C 3.164062 -2.328125 3.257812 -2.289062 3.375 -2.25 C 3.488281 -2.207031 3.609375 -2.160156 3.734375 -2.109375 C 3.859375 -2.066406 3.960938 -2.023438 4.046875 -1.984375 C 4.128906 -1.953125 4.171875 -1.9375 4.171875 -1.9375 L 4.828125 -1.703125 C 4.867188 -1.703125 4.910156 -1.6875 4.953125 -1.65625 C 4.992188 -1.625 5.015625 -1.582031 5.015625 -1.53125 C 5.023438 -1.5 5.023438 -1.472656 5.015625 -1.453125 Z M 5.015625 -1.453125 "/></g></g></g><g fill="#000000" fill-opacity="1"><g transform="translate(55.852418, 122.657379)"><g/></g></g><g fill="#000000" fill-opacity="1"><g transform="translate(57.510953, 123.286269)"><g><path d="M 3.40625 -2.59375 L 2.984375 -1.15625 C 2.972656 -1.09375 2.945312 -1.039062 2.90625 -1 C 2.863281 -0.96875 2.800781 -0.96875 2.71875 -1 L 1.3125 -1.375 C 1.289062 -1.300781 1.257812 -1.242188 1.21875 -1.203125 C 1.1875 -1.191406 1.144531 -1.1875 1.09375 -1.1875 C 1.050781 -1.1875 1.019531 -1.203125 1 -1.234375 C 0.96875 -1.253906 0.953125 -1.285156 0.953125 -1.328125 L 1 -1.53125 L 1.359375 -3.15625 L 1.3125 -3.359375 C 1.300781 -3.390625 1.304688 -3.414062 1.328125 -3.4375 C 1.359375 -3.46875 1.394531 -3.484375 1.4375 -3.484375 C 1.519531 -3.515625 1.578125 -3.507812 1.609375 -3.46875 L 1.6875 -3.25 L 3.25 -2.84375 C 3.28125 -2.832031 3.3125 -2.820312 3.34375 -2.8125 C 3.375 -2.800781 3.390625 -2.785156 3.390625 -2.765625 C 3.421875 -2.734375 3.425781 -2.675781 3.40625 -2.59375 Z M 2.71875 -1.46875 L 3.015625 -2.46875 C 3.023438 -2.519531 3.023438 -2.550781 3.015625 -2.5625 C 3.015625 -2.582031 2.988281 -2.597656 2.9375 -2.609375 L 1.796875 -2.921875 C 1.734375 -2.929688 1.691406 -2.925781 1.671875 -2.90625 C 1.660156 -2.894531 1.648438 -2.867188 1.640625 -2.828125 L 1.375 -1.671875 L 2.5625 -1.359375 C 2.644531 -1.335938 2.695312 -1.375 2.71875 -1.46875 Z M 5.078125 -2.703125 L 4.296875 -0.015625 C 4.273438 0.0546875 4.238281 0.117188 4.1875 0.171875 C 4.132812 0.234375 4.082031 0.289062 4.03125 0.34375 C 3.976562 0.394531 3.941406 0.429688 3.921875 0.453125 C 3.898438 0.472656 3.875 0.472656 3.84375 0.453125 C 3.820312 0.441406 3.816406 0.425781 3.828125 0.40625 L 4.34375 -1.40625 L 3.625 -1.59375 C 3.539062 -1.601562 3.492188 -1.640625 3.484375 -1.703125 L 3.421875 -1.90625 C 3.421875 -1.9375 3.429688 -1.960938 3.453125 -1.984375 C 3.472656 -2.003906 3.503906 -2 3.546875 -1.96875 L 3.65625 -1.90625 C 3.675781 -1.894531 3.707031 -1.878906 3.75 -1.859375 C 3.789062 -1.847656 3.820312 -1.84375 3.84375 -1.84375 L 4.421875 -1.6875 L 4.703125 -2.671875 C 4.722656 -2.742188 4.722656 -2.804688 4.703125 -2.859375 C 4.679688 -2.921875 4.648438 -2.984375 4.609375 -3.046875 C 4.597656 -3.066406 4.597656 -3.085938 4.609375 -3.109375 C 4.617188 -3.140625 4.640625 -3.160156 4.671875 -3.171875 C 4.710938 -3.191406 4.742188 -3.191406 4.765625 -3.171875 L 4.953125 -2.984375 C 5.035156 -2.941406 5.078125 -2.898438 5.078125 -2.859375 C 5.085938 -2.816406 5.085938 -2.765625 5.078125 -2.703125 Z M 2.96875 0.125 C 2.882812 0.238281 2.789062 0.347656 2.6875 0.453125 L 3.296875 1.21875 C 3.347656 1.269531 3.398438 1.316406 3.453125 1.359375 C 3.503906 1.410156 3.554688 1.460938 3.609375 1.515625 C 3.660156 1.546875 3.695312 1.570312 3.71875 1.59375 C 3.75 1.625 3.769531 1.675781 3.78125 1.75 L 3.828125 1.9375 C 3.828125 1.988281 3.820312 2.023438 3.8125 2.046875 C 3.800781 2.078125 3.785156 2.097656 3.765625 2.109375 C 3.679688 2.128906 3.617188 2.113281 3.578125 2.0625 L 2.5 0.578125 C 2.300781 0.734375 2.097656 0.859375 1.890625 0.953125 C 1.679688 1.046875 1.484375 1.125 1.296875 1.1875 C 1.117188 1.25 0.972656 1.285156 0.859375 1.296875 C 0.828125 1.285156 0.800781 1.273438 0.78125 1.265625 C 0.757812 1.265625 0.738281 1.257812 0.71875 1.25 C 0.695312 1.25 0.679688 1.238281 0.671875 1.21875 C 0.660156 1.195312 0.660156 1.164062 0.671875 1.125 C 0.679688 1.101562 0.695312 1.082031 0.71875 1.0625 C 0.738281 1.050781 0.75 1.039062 0.75 1.03125 C 0.90625 1.019531 1.066406 0.984375 1.234375 0.921875 C 1.410156 0.867188 1.585938 0.796875 1.765625 0.703125 C 1.941406 0.609375 2.109375 0.5 2.265625 0.375 C 2.429688 0.25 2.570312 0.0976562 2.6875 -0.078125 C 2.695312 -0.109375 2.703125 -0.128906 2.703125 -0.140625 C 2.710938 -0.160156 2.703125 -0.195312 2.671875 -0.25 L 2.59375 -0.359375 C 2.570312 -0.378906 2.570312 -0.398438 2.59375 -0.421875 C 2.613281 -0.453125 2.632812 -0.472656 2.65625 -0.484375 C 2.6875 -0.503906 2.710938 -0.507812 2.734375 -0.5 C 2.765625 -0.46875 2.8125 -0.425781 2.875 -0.375 C 2.9375 -0.320312 2.988281 -0.273438 3.03125 -0.234375 C 3.082031 -0.179688 3.101562 -0.128906 3.09375 -0.078125 C 3.082031 -0.0351562 3.039062 0.03125 2.96875 0.125 Z M 2.96875 0.125 "/></g></g></g><g fill="#000000" fill-opacity="1"><g transform="translate(62.33593, 124.671226)"><g><path d="M 3.453125 -2.609375 C 3.328125 -2.359375 3.175781 -2.140625 3 -1.953125 L 3.921875 -1 C 3.984375 -0.957031 4.03125 -0.921875 4.0625 -0.890625 C 4.09375 -0.867188 4.140625 -0.835938 4.203125 -0.796875 C 4.253906 -0.765625 4.296875 -0.734375 4.328125 -0.703125 C 4.359375 -0.671875 4.382812 -0.625 4.40625 -0.5625 L 4.453125 -0.390625 C 4.472656 -0.335938 4.476562 -0.296875 4.46875 -0.265625 C 4.457031 -0.242188 4.441406 -0.226562 4.421875 -0.21875 C 4.359375 -0.1875 4.296875 -0.195312 4.234375 -0.25 L 2.84375 -1.78125 C 2.632812 -1.582031 2.414062 -1.410156 2.1875 -1.265625 C 1.957031 -1.128906 1.75 -1.019531 1.5625 -0.9375 C 1.375 -0.863281 1.222656 -0.816406 1.109375 -0.796875 C 1.054688 -0.785156 1.007812 -0.78125 0.96875 -0.78125 C 0.945312 -0.800781 0.925781 -0.816406 0.90625 -0.828125 C 0.882812 -0.847656 0.878906 -0.878906 0.890625 -0.921875 C 0.898438 -0.953125 0.910156 -0.972656 0.921875 -0.984375 C 0.929688 -1.003906 0.941406 -1.019531 0.953125 -1.03125 C 1.054688 -1.039062 1.175781 -1.078125 1.3125 -1.140625 C 1.457031 -1.203125 1.613281 -1.28125 1.78125 -1.375 C 1.957031 -1.476562 2.128906 -1.59375 2.296875 -1.71875 C 2.460938 -1.851562 2.617188 -2.003906 2.765625 -2.171875 C 2.910156 -2.335938 3.019531 -2.507812 3.09375 -2.6875 C 3.113281 -2.71875 3.117188 -2.742188 3.109375 -2.765625 C 3.109375 -2.785156 3.085938 -2.816406 3.046875 -2.859375 L 2.953125 -2.953125 C 2.941406 -2.984375 2.9375 -3.015625 2.9375 -3.046875 C 2.945312 -3.078125 2.960938 -3.101562 2.984375 -3.125 C 3.015625 -3.144531 3.039062 -3.148438 3.0625 -3.140625 C 3.207031 -3.066406 3.335938 -2.988281 3.453125 -2.90625 C 3.484375 -2.882812 3.503906 -2.847656 3.515625 -2.796875 C 3.523438 -2.753906 3.503906 -2.691406 3.453125 -2.609375 Z M 3.328125 0.734375 L 1.171875 0.375 L 0.53125 0.265625 C 0.46875 0.253906 0.390625 0.238281 0.296875 0.21875 C 0.210938 0.195312 0.144531 0.179688 0.09375 0.171875 C 0.03125 0.140625 0.0195312 0.078125 0.0625 -0.015625 L 0.140625 -0.203125 C 0.210938 -0.171875 0.300781 -0.132812 0.40625 -0.09375 C 0.507812 -0.0625 0.617188 -0.03125 0.734375 0 C 0.847656 0.0195312 0.945312 0.0351562 1.03125 0.046875 C 1.125 0.0664062 1.191406 0.0820312 1.234375 0.09375 C 1.691406 0.1875 2.109375 0.265625 2.484375 0.328125 C 2.859375 0.390625 3.191406 0.445312 3.484375 0.5 C 3.535156 0.507812 3.601562 0.519531 3.6875 0.53125 C 3.769531 0.539062 3.851562 0.550781 3.9375 0.5625 C 4.019531 0.570312 4.097656 0.582031 4.171875 0.59375 C 4.242188 0.601562 4.289062 0.609375 4.3125 0.609375 C 4.425781 0.617188 4.515625 0.628906 4.578125 0.640625 C 4.648438 0.660156 4.695312 0.6875 4.71875 0.71875 L 4.875 0.921875 C 4.90625 0.953125 4.914062 0.976562 4.90625 1 C 4.90625 1.019531 4.90625 1.035156 4.90625 1.046875 C 4.882812 1.078125 4.863281 1.097656 4.84375 1.109375 C 4.820312 1.117188 4.800781 1.125 4.78125 1.125 L 4.4375 0.984375 C 4.351562 0.960938 4.238281 0.9375 4.09375 0.90625 C 3.957031 0.875 3.820312 0.84375 3.6875 0.8125 C 3.550781 0.78125 3.429688 0.753906 3.328125 0.734375 Z M 3.328125 0.734375 "/></g></g></g><g fill="#000000" fill-opacity="1"><g transform="translate(67.48617, 125.65816)"><g><path d="M 1.0625 -1.484375 L 0.953125 -0.546875 C 0.953125 -0.523438 0.957031 -0.507812 0.96875 -0.5 C 0.976562 -0.488281 0.988281 -0.484375 1 -0.484375 C 1.269531 -0.460938 1.539062 -0.460938 1.8125 -0.484375 C 2.082031 -0.503906 2.332031 -0.535156 2.5625 -0.578125 C 2.800781 -0.617188 3 -0.675781 3.15625 -0.75 C 3.195312 -0.769531 3.25 -0.753906 3.3125 -0.703125 C 3.351562 -0.660156 3.367188 -0.625 3.359375 -0.59375 C 3.359375 -0.5625 3.316406 -0.53125 3.234375 -0.5 C 2.890625 -0.332031 2.523438 -0.226562 2.140625 -0.1875 C 1.753906 -0.15625 1.378906 -0.140625 1.015625 -0.140625 C 0.984375 -0.140625 0.953125 -0.140625 0.921875 -0.140625 C 0.890625 -0.140625 0.859375 -0.144531 0.828125 -0.15625 C 0.785156 -0.15625 0.734375 -0.1875 0.671875 -0.25 C 0.609375 -0.3125 0.578125 -0.375 0.578125 -0.4375 L 0.6875 -1.46875 C 0.695312 -1.539062 0.703125 -1.601562 0.703125 -1.65625 C 0.703125 -1.707031 0.675781 -1.742188 0.625 -1.765625 C 0.539062 -1.816406 0.503906 -1.882812 0.515625 -1.96875 L 0.53125 -2.078125 L 0.84375 -2.015625 L 2.203125 -1.890625 C 2.285156 -1.878906 2.332031 -1.921875 2.34375 -2.015625 L 2.421875 -2.796875 C 2.421875 -2.847656 2.414062 -2.878906 2.40625 -2.890625 C 2.40625 -2.898438 2.378906 -2.910156 2.328125 -2.921875 L 1.3125 -2.984375 C 1.269531 -2.992188 1.222656 -3 1.171875 -3 C 1.128906 -3.007812 1.085938 -3.007812 1.046875 -3 C 1.015625 -3 0.957031 -3.003906 0.875 -3.015625 C 0.800781 -3.023438 0.75 -3.039062 0.71875 -3.0625 C 0.6875 -3.101562 0.671875 -3.148438 0.671875 -3.203125 L 0.734375 -3.421875 C 0.828125 -3.390625 0.941406 -3.363281 1.078125 -3.34375 C 1.222656 -3.320312 1.367188 -3.300781 1.515625 -3.28125 C 1.671875 -3.269531 1.816406 -3.253906 1.953125 -3.234375 L 2.65625 -3.203125 C 2.6875 -3.191406 2.71875 -3.179688 2.75 -3.171875 C 2.78125 -3.171875 2.800781 -3.164062 2.8125 -3.15625 C 2.820312 -3.132812 2.828125 -3.109375 2.828125 -3.078125 C 2.835938 -3.054688 2.84375 -3.023438 2.84375 -2.984375 L 2.625 -1.734375 C 2.613281 -1.671875 2.585938 -1.625 2.546875 -1.59375 C 2.503906 -1.570312 2.441406 -1.566406 2.359375 -1.578125 L 1.0625 -1.6875 C 1.070312 -1.65625 1.070312 -1.625 1.0625 -1.59375 C 1.0625 -1.5625 1.0625 -1.523438 1.0625 -1.484375 Z M 4.609375 -3.546875 L 4.171875 0.796875 C 4.160156 0.859375 4.132812 0.925781 4.09375 1 C 4.050781 1.070312 4.007812 1.132812 3.96875 1.1875 C 3.925781 1.25 3.898438 1.289062 3.890625 1.3125 C 3.867188 1.332031 3.84375 1.335938 3.8125 1.328125 C 3.78125 1.328125 3.765625 1.316406 3.765625 1.296875 L 4.0625 -1.53125 L 3.203125 -1.59375 C 3.128906 -1.59375 3.078125 -1.617188 3.046875 -1.671875 L 2.953125 -1.875 C 2.941406 -1.894531 2.945312 -1.914062 2.96875 -1.9375 C 2.988281 -1.96875 3.019531 -1.972656 3.0625 -1.953125 L 3.1875 -1.90625 C 3.21875 -1.90625 3.253906 -1.898438 3.296875 -1.890625 C 3.335938 -1.878906 3.367188 -1.875 3.390625 -1.875 L 4.09375 -1.828125 L 4.265625 -3.453125 C 4.265625 -3.523438 4.25 -3.585938 4.21875 -3.640625 C 4.195312 -3.691406 4.164062 -3.742188 4.125 -3.796875 C 4.09375 -3.816406 4.078125 -3.84375 4.078125 -3.875 C 4.085938 -3.90625 4.109375 -3.929688 4.140625 -3.953125 C 4.179688 -3.972656 4.210938 -3.972656 4.234375 -3.953125 L 4.46875 -3.8125 C 4.550781 -3.78125 4.597656 -3.742188 4.609375 -3.703125 C 4.617188 -3.660156 4.617188 -3.609375 4.609375 -3.546875 Z M 4.609375 -3.546875 "/></g></g></g><g fill="#000000" fill-opacity="1"><g transform="translate(72.479375, 126.174093)"><g><path d="M 1.46875 -3.03125 C 1.46875 -3.226562 1.507812 -3.398438 1.59375 -3.546875 C 1.6875 -3.691406 1.816406 -3.8125 1.984375 -3.90625 C 2.160156 -4 2.367188 -4.046875 2.609375 -4.046875 C 2.847656 -4.035156 3.050781 -3.984375 3.21875 -3.890625 C 3.394531 -3.796875 3.519531 -3.671875 3.59375 -3.515625 C 3.675781 -3.367188 3.71875 -3.195312 3.71875 -3 C 3.707031 -2.707031 3.601562 -2.460938 3.40625 -2.265625 C 3.207031 -2.078125 2.929688 -1.988281 2.578125 -2 C 2.347656 -2 2.144531 -2.039062 1.96875 -2.125 C 1.800781 -2.21875 1.675781 -2.34375 1.59375 -2.5 C 1.507812 -2.664062 1.46875 -2.84375 1.46875 -3.03125 Z M 3.421875 -1.265625 L 2.71875 -1.25 C 2.78125 -1.207031 2.816406 -1.160156 2.828125 -1.109375 C 2.847656 -1.066406 2.859375 -1.015625 2.859375 -0.953125 L 2.84375 -0.46875 C 2.84375 -0.414062 2.828125 -0.351562 2.796875 -0.28125 C 2.765625 -0.21875 2.726562 -0.15625 2.6875 -0.09375 C 2.65625 -0.03125 2.632812 0.00390625 2.625 0.015625 C 2.601562 0.0351562 2.570312 0.0390625 2.53125 0.03125 C 2.5 0.03125 2.484375 0.0195312 2.484375 0 L 2.5 -0.90625 C 2.5 -1.007812 2.484375 -1.082031 2.453125 -1.125 C 2.429688 -1.175781 2.394531 -1.222656 2.34375 -1.265625 L 1.234375 -1.25 L 0.59375 -1.21875 C 0.53125 -1.226562 0.453125 -1.234375 0.359375 -1.234375 C 0.265625 -1.234375 0.191406 -1.238281 0.140625 -1.25 C 0.078125 -1.269531 0.0546875 -1.328125 0.078125 -1.421875 L 0.125 -1.609375 C 0.207031 -1.597656 0.300781 -1.582031 0.40625 -1.5625 C 0.507812 -1.550781 0.617188 -1.539062 0.734375 -1.53125 C 0.847656 -1.53125 0.945312 -1.523438 1.03125 -1.515625 C 1.125 -1.515625 1.191406 -1.515625 1.234375 -1.515625 C 1.703125 -1.503906 2.128906 -1.503906 2.515625 -1.515625 C 2.910156 -1.523438 3.253906 -1.535156 3.546875 -1.546875 C 3.597656 -1.546875 3.664062 -1.546875 3.75 -1.546875 C 3.84375 -1.546875 3.929688 -1.546875 4.015625 -1.546875 C 4.097656 -1.554688 4.171875 -1.5625 4.234375 -1.5625 C 4.304688 -1.570312 4.351562 -1.578125 4.375 -1.578125 C 4.488281 -1.585938 4.582031 -1.59375 4.65625 -1.59375 C 4.726562 -1.59375 4.78125 -1.578125 4.8125 -1.546875 L 4.984375 -1.375 C 5.015625 -1.34375 5.03125 -1.316406 5.03125 -1.296875 C 5.03125 -1.285156 5.03125 -1.269531 5.03125 -1.25 C 5.019531 -1.226562 5.003906 -1.207031 4.984375 -1.1875 C 4.960938 -1.164062 4.941406 -1.160156 4.921875 -1.171875 L 4.5625 -1.234375 C 4.46875 -1.242188 4.347656 -1.25 4.203125 -1.25 C 4.066406 -1.257812 3.925781 -1.265625 3.78125 -1.265625 C 3.644531 -1.273438 3.523438 -1.273438 3.421875 -1.265625 Z M 2.609375 -3.75 C 2.429688 -3.75 2.285156 -3.710938 2.171875 -3.640625 C 2.054688 -3.566406 1.96875 -3.472656 1.90625 -3.359375 C 1.851562 -3.253906 1.828125 -3.140625 1.828125 -3.015625 C 1.828125 -2.828125 1.882812 -2.660156 2 -2.515625 C 2.125 -2.367188 2.316406 -2.296875 2.578125 -2.296875 C 2.847656 -2.285156 3.046875 -2.351562 3.171875 -2.5 C 3.304688 -2.644531 3.375 -2.8125 3.375 -3 C 3.375 -3.125 3.34375 -3.238281 3.28125 -3.34375 C 3.226562 -3.457031 3.148438 -3.550781 3.046875 -3.625 C 2.941406 -3.695312 2.796875 -3.738281 2.609375 -3.75 Z M 3.953125 0.984375 L 1.640625 0.953125 C 1.585938 0.953125 1.523438 0.941406 1.453125 0.921875 C 1.390625 0.898438 1.332031 0.863281 1.28125 0.8125 C 1.238281 0.769531 1.21875 0.703125 1.21875 0.609375 L 1.234375 -0.078125 C 1.234375 -0.160156 1.226562 -0.222656 1.21875 -0.265625 C 1.207031 -0.316406 1.171875 -0.351562 1.109375 -0.375 C 1.035156 -0.394531 1 -0.4375 1 -0.5 L 1.015625 -0.65625 L 1.359375 -0.609375 C 1.484375 -0.585938 1.550781 -0.539062 1.5625 -0.46875 C 1.582031 -0.394531 1.59375 -0.3125 1.59375 -0.21875 L 1.59375 0.46875 C 1.582031 0.53125 1.582031 0.570312 1.59375 0.59375 C 1.601562 0.625 1.640625 0.640625 1.703125 0.640625 L 2.671875 0.65625 C 2.910156 0.65625 3.101562 0.644531 3.25 0.625 C 3.40625 0.613281 3.515625 0.597656 3.578125 0.578125 C 3.628906 0.566406 3.664062 0.5625 3.6875 0.5625 C 3.71875 0.570312 3.75 0.582031 3.78125 0.59375 L 4 0.6875 C 4.050781 0.707031 4.085938 0.726562 4.109375 0.75 C 4.128906 0.769531 4.128906 0.804688 4.109375 0.859375 C 4.097656 0.910156 4.082031 0.941406 4.0625 0.953125 C 4.039062 0.972656 4.003906 0.984375 3.953125 0.984375 Z M 3.953125 0.984375 "/></g></g></g><g fill="#000000" fill-opacity="1"><g transform="translate(77.67792, 126.197388)"><g/></g></g><g fill="#000000" fill-opacity="1"><g transform="translate(79.454784, 126.165811)"><g><path d="M 3.453125 -1.265625 L 3.59375 0.0625 C 3.59375 0.101562 3.582031 0.160156 3.5625 0.234375 C 3.539062 0.304688 3.515625 0.375 3.484375 0.4375 C 3.460938 0.5 3.441406 0.546875 3.421875 0.578125 C 3.410156 0.597656 3.382812 0.601562 3.34375 0.59375 C 3.3125 0.59375 3.296875 0.578125 3.296875 0.546875 L 3.109375 -1.171875 C 3.097656 -1.285156 3.070312 -1.363281 3.03125 -1.40625 C 3 -1.445312 2.957031 -1.476562 2.90625 -1.5 C 2.882812 -1.507812 2.875 -1.519531 2.875 -1.53125 L 1.6875 -1.375 C 1.738281 -1.34375 1.773438 -1.300781 1.796875 -1.25 C 1.816406 -1.207031 1.832031 -1.15625 1.84375 -1.09375 L 1.984375 0.234375 C 1.984375 0.273438 1.972656 0.332031 1.953125 0.40625 C 1.929688 0.476562 1.90625 0.546875 1.875 0.609375 C 1.84375 0.671875 1.820312 0.710938 1.8125 0.734375 C 1.789062 0.765625 1.757812 0.773438 1.71875 0.765625 C 1.6875 0.765625 1.671875 0.75 1.671875 0.71875 L 1.484375 -1 C 1.472656 -1.09375 1.453125 -1.160156 1.421875 -1.203125 C 1.390625 -1.253906 1.351562 -1.296875 1.3125 -1.328125 L 1.09375 -1.296875 L 0.453125 -1.21875 C 0.390625 -1.195312 0.3125 -1.179688 0.21875 -1.171875 C 0.125 -1.160156 0.0507812 -1.164062 0 -1.1875 C -0.0625 -1.1875 -0.0859375 -1.234375 -0.078125 -1.328125 L -0.0625 -1.53125 C 0.0195312 -1.507812 0.113281 -1.5 0.21875 -1.5 C 0.332031 -1.507812 0.445312 -1.515625 0.5625 -1.515625 C 0.675781 -1.523438 0.773438 -1.535156 0.859375 -1.546875 C 0.953125 -1.554688 1.019531 -1.5625 1.0625 -1.5625 C 1.519531 -1.601562 1.941406 -1.648438 2.328125 -1.703125 C 2.710938 -1.765625 3.050781 -1.816406 3.34375 -1.859375 C 3.394531 -1.859375 3.460938 -1.863281 3.546875 -1.875 C 3.640625 -1.894531 3.726562 -1.910156 3.8125 -1.921875 C 3.894531 -1.941406 3.96875 -1.957031 4.03125 -1.96875 C 4.09375 -1.976562 4.132812 -1.984375 4.15625 -1.984375 C 4.257812 -2.015625 4.347656 -2.035156 4.421875 -2.046875 C 4.492188 -2.054688 4.550781 -2.046875 4.59375 -2.015625 L 4.796875 -1.875 C 4.828125 -1.863281 4.84375 -1.847656 4.84375 -1.828125 C 4.851562 -1.804688 4.859375 -1.785156 4.859375 -1.765625 C 4.847656 -1.742188 4.832031 -1.722656 4.8125 -1.703125 C 4.789062 -1.679688 4.769531 -1.671875 4.75 -1.671875 L 4.390625 -1.703125 C 4.296875 -1.703125 4.179688 -1.691406 4.046875 -1.671875 C 3.910156 -1.660156 3.769531 -1.644531 3.625 -1.625 C 3.488281 -1.613281 3.367188 -1.601562 3.265625 -1.59375 L 3.21875 -1.578125 L 3.234375 -1.578125 C 3.328125 -1.546875 3.382812 -1.503906 3.40625 -1.453125 C 3.425781 -1.398438 3.441406 -1.335938 3.453125 -1.265625 Z M 3.671875 -2.625 L 1.421875 -2.390625 C 1.367188 -2.390625 1.3125 -2.390625 1.25 -2.390625 C 1.195312 -2.390625 1.144531 -2.410156 1.09375 -2.453125 C 1.039062 -2.492188 1.007812 -2.566406 1 -2.671875 L 0.90625 -3.46875 C 0.90625 -3.539062 0.894531 -3.597656 0.875 -3.640625 C 0.863281 -3.679688 0.828125 -3.71875 0.765625 -3.75 C 0.710938 -3.757812 0.675781 -3.769531 0.65625 -3.78125 C 0.632812 -3.800781 0.625 -3.832031 0.625 -3.875 L 0.609375 -4.03125 L 0.96875 -4.015625 C 1.070312 -4.003906 1.132812 -3.96875 1.15625 -3.90625 C 1.1875 -3.84375 1.207031 -3.757812 1.21875 -3.65625 L 1.3125 -2.859375 C 1.3125 -2.796875 1.316406 -2.75 1.328125 -2.71875 C 1.347656 -2.6875 1.394531 -2.675781 1.46875 -2.6875 L 2.515625 -2.796875 C 2.679688 -2.804688 2.835938 -2.828125 2.984375 -2.859375 C 3.128906 -2.898438 3.226562 -2.9375 3.28125 -2.96875 C 3.320312 -2.96875 3.351562 -2.972656 3.375 -2.984375 C 3.40625 -2.992188 3.441406 -2.988281 3.484375 -2.96875 L 3.6875 -2.921875 C 3.738281 -2.898438 3.773438 -2.878906 3.796875 -2.859375 C 3.816406 -2.835938 3.820312 -2.800781 3.8125 -2.75 C 3.800781 -2.695312 3.785156 -2.664062 3.765625 -2.65625 C 3.753906 -2.644531 3.722656 -2.632812 3.671875 -2.625 Z M 3.671875 -2.625 "/></g></g></g><g fill="#000000" fill-opacity="1"><g transform="translate(84.66864, 125.604786)"><g><path d="M 3.234375 -4.703125 L 4.0625 -0.421875 C 4.082031 -0.367188 4.082031 -0.300781 4.0625 -0.21875 C 4.039062 -0.132812 4.015625 -0.0546875 3.984375 0.015625 C 3.960938 0.0859375 3.945312 0.132812 3.9375 0.15625 C 3.925781 0.175781 3.90625 0.1875 3.875 0.1875 C 3.84375 0.1875 3.828125 0.175781 3.828125 0.15625 L 2.90625 -4.515625 C 2.894531 -4.585938 2.867188 -4.644531 2.828125 -4.6875 C 2.785156 -4.726562 2.734375 -4.765625 2.671875 -4.796875 C 2.640625 -4.804688 2.625 -4.828125 2.625 -4.859375 C 2.632812 -4.890625 2.648438 -4.921875 2.671875 -4.953125 C 2.691406 -4.984375 2.71875 -4.992188 2.75 -4.984375 L 3 -4.921875 C 3.082031 -4.898438 3.140625 -4.875 3.171875 -4.84375 C 3.203125 -4.8125 3.222656 -4.765625 3.234375 -4.703125 Z M 1.21875 -3.265625 C 1.21875 -3.117188 1.207031 -2.96875 1.1875 -2.8125 C 1.164062 -2.65625 1.132812 -2.503906 1.09375 -2.359375 L 2.09375 -1.6875 C 2.15625 -1.644531 2.21875 -1.609375 2.28125 -1.578125 C 2.34375 -1.546875 2.40625 -1.519531 2.46875 -1.5 C 2.519531 -1.476562 2.5625 -1.457031 2.59375 -1.4375 C 2.625 -1.414062 2.660156 -1.375 2.703125 -1.3125 L 2.765625 -1.125 C 2.785156 -1.070312 2.796875 -1.035156 2.796875 -1.015625 C 2.796875 -0.992188 2.78125 -0.972656 2.75 -0.953125 C 2.6875 -0.921875 2.625 -0.921875 2.5625 -0.953125 L 1.046875 -2.140625 C 0.960938 -1.859375 0.863281 -1.601562 0.75 -1.375 C 0.632812 -1.144531 0.519531 -0.945312 0.40625 -0.78125 C 0.300781 -0.625 0.207031 -0.503906 0.125 -0.421875 C 0.09375 -0.398438 0.0546875 -0.378906 0.015625 -0.359375 C -0.00390625 -0.359375 -0.03125 -0.359375 -0.0625 -0.359375 C -0.101562 -0.367188 -0.128906 -0.390625 -0.140625 -0.421875 C -0.160156 -0.472656 -0.15625 -0.519531 -0.125 -0.5625 C -0.0195312 -0.675781 0.0859375 -0.832031 0.203125 -1.03125 C 0.328125 -1.226562 0.441406 -1.445312 0.546875 -1.6875 C 0.660156 -1.925781 0.742188 -2.175781 0.796875 -2.4375 C 0.859375 -2.707031 0.878906 -2.972656 0.859375 -3.234375 C 0.847656 -3.265625 0.835938 -3.285156 0.828125 -3.296875 C 0.816406 -3.316406 0.785156 -3.34375 0.734375 -3.375 L 0.609375 -3.421875 C 0.597656 -3.429688 0.59375 -3.453125 0.59375 -3.484375 C 0.59375 -3.515625 0.597656 -3.546875 0.609375 -3.578125 C 0.617188 -3.609375 0.632812 -3.628906 0.65625 -3.640625 C 0.726562 -3.628906 0.800781 -3.617188 0.875 -3.609375 C 0.957031 -3.597656 1.03125 -3.582031 1.09375 -3.5625 C 1.132812 -3.539062 1.160156 -3.515625 1.171875 -3.484375 C 1.191406 -3.453125 1.207031 -3.378906 1.21875 -3.265625 Z M 1.21875 -3.265625 "/></g></g></g><g fill="#000000" fill-opacity="1"><g transform="translate(89.590448, 124.63509)"><g><path d="M 2.84375 -4.984375 L 4.046875 -0.796875 C 4.066406 -0.734375 4.070312 -0.660156 4.0625 -0.578125 C 4.050781 -0.492188 4.035156 -0.414062 4.015625 -0.34375 C 3.992188 -0.269531 3.976562 -0.21875 3.96875 -0.1875 C 3.96875 -0.164062 3.953125 -0.15625 3.921875 -0.15625 C 3.890625 -0.15625 3.875 -0.164062 3.875 -0.1875 L 2.5625 -4.765625 C 2.539062 -4.835938 2.503906 -4.890625 2.453125 -4.921875 C 2.398438 -4.960938 2.34375 -4.992188 2.28125 -5.015625 C 2.25 -5.035156 2.234375 -5.054688 2.234375 -5.078125 C 2.234375 -5.109375 2.238281 -5.140625 2.25 -5.171875 C 2.269531 -5.203125 2.300781 -5.210938 2.34375 -5.203125 L 2.609375 -5.171875 C 2.703125 -5.171875 2.757812 -5.15625 2.78125 -5.125 C 2.8125 -5.09375 2.832031 -5.046875 2.84375 -4.984375 Z M 0.296875 -0.8125 L -0.296875 -2.84375 C -0.316406 -2.914062 -0.335938 -2.96875 -0.359375 -3 C -0.378906 -3.039062 -0.425781 -3.070312 -0.5 -3.09375 C -0.539062 -3.09375 -0.570312 -3.097656 -0.59375 -3.109375 C -0.613281 -3.128906 -0.628906 -3.15625 -0.640625 -3.1875 L -0.671875 -3.28125 L -0.328125 -3.34375 C -0.203125 -3.363281 -0.117188 -3.335938 -0.078125 -3.265625 C -0.0351562 -3.203125 0 -3.125 0.03125 -3.03125 L 0.59375 -1.0625 C 0.59375 -1.039062 0.597656 -1.023438 0.609375 -1.015625 C 0.628906 -1.015625 0.644531 -1.015625 0.65625 -1.015625 C 0.851562 -1.085938 1.050781 -1.164062 1.25 -1.25 C 1.445312 -1.332031 1.640625 -1.421875 1.828125 -1.515625 C 2.015625 -1.617188 2.179688 -1.722656 2.328125 -1.828125 C 2.484375 -1.929688 2.601562 -2.03125 2.6875 -2.125 C 2.707031 -2.144531 2.726562 -2.15625 2.75 -2.15625 C 2.78125 -2.164062 2.816406 -2.160156 2.859375 -2.140625 C 2.960938 -2.109375 2.96875 -2.03125 2.875 -1.90625 C 2.6875 -1.726562 2.472656 -1.5625 2.234375 -1.40625 C 2.003906 -1.257812 1.765625 -1.128906 1.515625 -1.015625 C 1.265625 -0.898438 1.023438 -0.796875 0.796875 -0.703125 C 0.773438 -0.691406 0.742188 -0.675781 0.703125 -0.65625 C 0.671875 -0.644531 0.644531 -0.640625 0.625 -0.640625 C 0.570312 -0.617188 0.503906 -0.625 0.421875 -0.65625 C 0.347656 -0.695312 0.304688 -0.75 0.296875 -0.8125 Z M 0.296875 -0.8125 "/></g></g></g><g fill="#000000" fill-opacity="1"><g transform="translate(94.410367, 123.244842)"><g><path d="M -0.578125 -1.890625 C -0.660156 -2.097656 -0.6875 -2.300781 -0.65625 -2.5 C -0.625 -2.707031 -0.539062 -2.890625 -0.40625 -3.046875 C -0.269531 -3.210938 -0.09375 -3.335938 0.125 -3.421875 C 0.351562 -3.503906 0.566406 -3.53125 0.765625 -3.5 C 0.972656 -3.476562 1.15625 -3.398438 1.3125 -3.265625 C 1.46875 -3.128906 1.585938 -2.957031 1.671875 -2.75 C 1.742188 -2.539062 1.765625 -2.335938 1.734375 -2.140625 C 1.710938 -1.941406 1.632812 -1.765625 1.5 -1.609375 C 1.363281 -1.453125 1.179688 -1.332031 0.953125 -1.25 C 0.742188 -1.164062 0.535156 -1.132812 0.328125 -1.15625 C 0.128906 -1.175781 -0.046875 -1.25 -0.203125 -1.375 C -0.367188 -1.5 -0.492188 -1.671875 -0.578125 -1.890625 Z M 0.234375 -3.140625 C -0.00390625 -3.046875 -0.164062 -2.890625 -0.25 -2.671875 C -0.332031 -2.460938 -0.328125 -2.242188 -0.234375 -2.015625 C -0.148438 -1.785156 -0.0078125 -1.617188 0.1875 -1.515625 C 0.394531 -1.421875 0.617188 -1.421875 0.859375 -1.515625 C 1.117188 -1.609375 1.285156 -1.753906 1.359375 -1.953125 C 1.429688 -2.160156 1.425781 -2.382812 1.34375 -2.625 C 1.25 -2.851562 1.109375 -3.019531 0.921875 -3.125 C 0.734375 -3.226562 0.503906 -3.234375 0.234375 -3.140625 Z M 2.390625 -5.203125 L 3.953125 -1.140625 C 3.972656 -1.078125 3.984375 -1.003906 3.984375 -0.921875 C 3.984375 -0.835938 3.976562 -0.757812 3.96875 -0.6875 C 3.957031 -0.613281 3.945312 -0.5625 3.9375 -0.53125 C 3.925781 -0.507812 3.898438 -0.492188 3.859375 -0.484375 C 3.828125 -0.484375 3.804688 -0.492188 3.796875 -0.515625 L 2.8125 -3.109375 L 2.15625 -2.796875 C 2.09375 -2.773438 2.035156 -2.78125 1.984375 -2.8125 L 1.8125 -2.953125 C 1.78125 -2.960938 1.769531 -2.984375 1.78125 -3.015625 C 1.789062 -3.054688 1.820312 -3.078125 1.875 -3.078125 L 1.984375 -3.09375 C 2.023438 -3.09375 2.066406 -3.097656 2.109375 -3.109375 C 2.148438 -3.128906 2.179688 -3.144531 2.203125 -3.15625 L 2.703125 -3.390625 L 2.09375 -4.96875 C 2.070312 -5.03125 2.039062 -5.078125 2 -5.109375 C 1.957031 -5.140625 1.898438 -5.164062 1.828125 -5.1875 C 1.796875 -5.195312 1.773438 -5.21875 1.765625 -5.25 C 1.765625 -5.28125 1.769531 -5.3125 1.78125 -5.34375 C 1.800781 -5.375 1.828125 -5.390625 1.859375 -5.390625 L 2.140625 -5.375 C 2.234375 -5.375 2.289062 -5.359375 2.3125 -5.328125 C 2.34375 -5.304688 2.367188 -5.265625 2.390625 -5.203125 Z M 2.390625 -5.203125 "/></g></g></g><g fill="#000000" fill-opacity="1"><g transform="translate(99.034507, 121.420188)"><g/></g></g><g fill="#000000" fill-opacity="1"><g transform="translate(100.673656, 120.733515)"><g><path d="M 0.015625 -1.84375 L 0.453125 -1 C 0.460938 -0.96875 0.484375 -0.957031 0.515625 -0.96875 C 0.753906 -1.113281 0.984375 -1.265625 1.203125 -1.421875 C 1.421875 -1.585938 1.613281 -1.753906 1.78125 -1.921875 C 1.957031 -2.085938 2.09375 -2.242188 2.1875 -2.390625 C 2.207031 -2.441406 2.257812 -2.460938 2.34375 -2.453125 C 2.414062 -2.441406 2.453125 -2.414062 2.453125 -2.375 C 2.460938 -2.34375 2.441406 -2.296875 2.390625 -2.234375 C 2.179688 -1.898438 1.925781 -1.609375 1.625 -1.359375 C 1.332031 -1.117188 1.03125 -0.894531 0.71875 -0.6875 C 0.695312 -0.675781 0.671875 -0.660156 0.640625 -0.640625 C 0.609375 -0.617188 0.582031 -0.601562 0.5625 -0.59375 C 0.519531 -0.570312 0.457031 -0.570312 0.375 -0.59375 C 0.289062 -0.625 0.234375 -0.660156 0.203125 -0.703125 L -0.28125 -1.625 C -0.3125 -1.695312 -0.335938 -1.75 -0.359375 -1.78125 C -0.390625 -1.820312 -0.4375 -1.835938 -0.5 -1.828125 C -0.59375 -1.816406 -0.65625 -1.847656 -0.6875 -1.921875 L -0.75 -2.015625 L -0.453125 -2.15625 L 0.8125 -2.84375 C 0.882812 -2.882812 0.898438 -2.945312 0.859375 -3.03125 L 0.546875 -3.671875 C 0.515625 -3.710938 0.488281 -3.734375 0.46875 -3.734375 C 0.445312 -3.742188 0.414062 -3.734375 0.375 -3.703125 L -0.578125 -3.171875 C -0.617188 -3.148438 -0.660156 -3.128906 -0.703125 -3.109375 C -0.742188 -3.085938 -0.773438 -3.0625 -0.796875 -3.03125 C -0.828125 -3.019531 -0.875 -2.992188 -0.9375 -2.953125 C -1.007812 -2.921875 -1.078125 -2.910156 -1.140625 -2.921875 C -1.171875 -2.921875 -1.195312 -2.941406 -1.21875 -2.984375 L -1.296875 -3.203125 C -1.203125 -3.242188 -1.09375 -3.289062 -0.96875 -3.34375 C -0.84375 -3.394531 -0.710938 -3.453125 -0.578125 -3.515625 C -0.441406 -3.585938 -0.3125 -3.660156 -0.1875 -3.734375 L 0.5 -4.125 C 0.519531 -4.144531 0.546875 -4.15625 0.578125 -4.15625 C 0.617188 -4.164062 0.644531 -4.171875 0.65625 -4.171875 C 0.6875 -4.148438 0.722656 -4.109375 0.765625 -4.046875 L 1.265625 -2.953125 C 1.285156 -2.898438 1.285156 -2.847656 1.265625 -2.796875 C 1.253906 -2.742188 1.210938 -2.703125 1.140625 -2.671875 L -0.078125 -2.015625 C -0.0664062 -1.984375 -0.0507812 -1.953125 -0.03125 -1.921875 C -0.0195312 -1.898438 -0.00390625 -1.875 0.015625 -1.84375 Z M 1.59375 -5.359375 L 2.671875 -3.296875 L 2.875 -3.40625 C 2.914062 -3.4375 2.953125 -3.460938 2.984375 -3.484375 C 3.023438 -3.503906 3.070312 -3.546875 3.125 -3.609375 C 3.1875 -3.660156 3.226562 -3.695312 3.25 -3.71875 C 3.28125 -3.75 3.332031 -3.765625 3.40625 -3.765625 L 3.640625 -3.75 C 3.710938 -3.75 3.738281 -3.707031 3.71875 -3.625 L 3.71875 -3.59375 C 3.71875 -3.519531 3.675781 -3.472656 3.59375 -3.453125 C 3.550781 -3.453125 3.515625 -3.441406 3.484375 -3.421875 C 3.453125 -3.410156 3.425781 -3.398438 3.40625 -3.390625 L 2.796875 -3.0625 L 3.625 -1.5 C 3.644531 -1.4375 3.65625 -1.363281 3.65625 -1.28125 C 3.664062 -1.195312 3.671875 -1.117188 3.671875 -1.046875 C 3.679688 -0.972656 3.679688 -0.925781 3.671875 -0.90625 C 3.671875 -0.882812 3.65625 -0.867188 3.625 -0.859375 C 3.59375 -0.847656 3.578125 -0.851562 3.578125 -0.875 L 1.359375 -5.09375 C 1.316406 -5.15625 1.269531 -5.195312 1.21875 -5.21875 C 1.164062 -5.25 1.101562 -5.269531 1.03125 -5.28125 C 1 -5.289062 0.976562 -5.304688 0.96875 -5.328125 C 0.96875 -5.359375 0.972656 -5.390625 0.984375 -5.421875 C 0.992188 -5.460938 1.015625 -5.484375 1.046875 -5.484375 L 1.3125 -5.5 C 1.414062 -5.507812 1.476562 -5.5 1.5 -5.46875 C 1.53125 -5.445312 1.5625 -5.410156 1.59375 -5.359375 Z M 1.59375 -5.359375 "/></g></g></g><g fill="#000000" fill-opacity="1"><g transform="translate(105.310271, 118.283978)"><g><path d="M 1.25 -5.5625 L 3.609375 -1.90625 C 3.648438 -1.851562 3.675781 -1.785156 3.6875 -1.703125 C 3.707031 -1.617188 3.71875 -1.539062 3.71875 -1.46875 C 3.71875 -1.394531 3.71875 -1.34375 3.71875 -1.3125 C 3.71875 -1.300781 3.703125 -1.285156 3.671875 -1.265625 C 3.648438 -1.242188 3.632812 -1.242188 3.625 -1.265625 L 1.046875 -5.265625 C 1.003906 -5.328125 0.953125 -5.367188 0.890625 -5.390625 C 0.835938 -5.421875 0.78125 -5.4375 0.71875 -5.4375 C 0.6875 -5.445312 0.664062 -5.460938 0.65625 -5.484375 C 0.644531 -5.515625 0.640625 -5.546875 0.640625 -5.578125 C 0.648438 -5.617188 0.675781 -5.644531 0.71875 -5.65625 L 0.984375 -5.6875 C 1.066406 -5.707031 1.125 -5.703125 1.15625 -5.671875 C 1.1875 -5.648438 1.21875 -5.613281 1.25 -5.5625 Z M -0.890625 -1.71875 C -1.015625 -1.914062 -1.082031 -2.113281 -1.09375 -2.3125 C -1.101562 -2.507812 -1.054688 -2.695312 -0.953125 -2.875 C -0.859375 -3.0625 -0.707031 -3.21875 -0.5 -3.34375 C -0.300781 -3.476562 -0.101562 -3.550781 0.09375 -3.5625 C 0.300781 -3.570312 0.492188 -3.535156 0.671875 -3.453125 C 0.859375 -3.367188 1.015625 -3.226562 1.140625 -3.03125 C 1.265625 -2.84375 1.328125 -2.644531 1.328125 -2.4375 C 1.335938 -2.238281 1.289062 -2.050781 1.1875 -1.875 C 1.09375 -1.695312 0.945312 -1.539062 0.75 -1.40625 C 0.550781 -1.28125 0.347656 -1.207031 0.140625 -1.1875 C -0.0546875 -1.164062 -0.242188 -1.203125 -0.421875 -1.296875 C -0.609375 -1.390625 -0.765625 -1.53125 -0.890625 -1.71875 Z M -0.34375 -3.09375 C -0.5625 -2.957031 -0.691406 -2.78125 -0.734375 -2.5625 C -0.773438 -2.34375 -0.726562 -2.128906 -0.59375 -1.921875 C -0.46875 -1.722656 -0.289062 -1.59375 -0.0625 -1.53125 C 0.15625 -1.476562 0.375 -1.519531 0.59375 -1.65625 C 0.820312 -1.800781 0.953125 -1.976562 0.984375 -2.1875 C 1.015625 -2.40625 0.960938 -2.617188 0.828125 -2.828125 C 0.691406 -3.035156 0.519531 -3.171875 0.3125 -3.234375 C 0.113281 -3.296875 -0.101562 -3.25 -0.34375 -3.09375 Z M -0.34375 -3.09375 "/></g></g></g><g fill="#000000" fill-opacity="1"><g transform="translate(109.52963, 115.564369)"><g><path d="M 0.734375 -3.984375 C 0.710938 -3.960938 0.6875 -3.957031 0.65625 -3.96875 C 0.625 -3.976562 0.597656 -4 0.578125 -4.03125 L 0.515625 -4.109375 L 0.828125 -4.3125 C 0.898438 -4.363281 0.957031 -4.375 1 -4.34375 C 1.039062 -4.320312 1.070312 -4.296875 1.09375 -4.265625 L 1.875 -3.28125 C 1.90625 -3.3125 1.9375 -3.335938 1.96875 -3.359375 C 2 -3.390625 2.019531 -3.40625 2.03125 -3.40625 C 2.125 -3.507812 2.1875 -3.570312 2.21875 -3.59375 C 2.25 -3.613281 2.285156 -3.628906 2.328125 -3.640625 L 2.5 -3.671875 C 2.550781 -3.671875 2.582031 -3.660156 2.59375 -3.640625 C 2.613281 -3.628906 2.628906 -3.59375 2.640625 -3.53125 C 2.648438 -3.488281 2.648438 -3.457031 2.640625 -3.4375 C 2.640625 -3.414062 2.625 -3.394531 2.59375 -3.375 C 2.5625 -3.363281 2.519531 -3.34375 2.46875 -3.3125 C 2.414062 -3.289062 2.363281 -3.269531 2.3125 -3.25 C 2.226562 -3.1875 2.125 -3.101562 2 -3 C 1.875 -2.90625 1.75 -2.804688 1.625 -2.703125 C 1.5 -2.609375 1.390625 -2.523438 1.296875 -2.453125 C 1.203125 -2.390625 1.09375 -2.300781 0.96875 -2.1875 C 0.84375 -2.070312 0.71875 -1.960938 0.59375 -1.859375 C 0.46875 -1.753906 0.363281 -1.660156 0.28125 -1.578125 C 0.21875 -1.523438 0.160156 -1.476562 0.109375 -1.4375 C 0.0546875 -1.394531 0.0078125 -1.382812 -0.03125 -1.40625 C -0.0703125 -1.394531 -0.109375 -1.414062 -0.140625 -1.46875 L -0.25 -1.640625 C -0.132812 -1.710938 -0.0195312 -1.785156 0.09375 -1.859375 C 0.21875 -1.929688 0.328125 -2.007812 0.421875 -2.09375 L -0.15625 -2.84375 C -0.195312 -2.90625 -0.234375 -2.945312 -0.265625 -2.96875 C -0.296875 -3 -0.332031 -3 -0.375 -2.96875 C -0.414062 -2.957031 -0.445312 -2.953125 -0.46875 -2.953125 C -0.5 -2.953125 -0.53125 -2.96875 -0.5625 -3 L -0.609375 -3.109375 L -0.328125 -3.28125 C -0.242188 -3.34375 -0.179688 -3.359375 -0.140625 -3.328125 C -0.0976562 -3.296875 -0.0625 -3.265625 -0.03125 -3.234375 L 0.703125 -2.28125 C 0.785156 -2.34375 0.859375 -2.40625 0.921875 -2.46875 C 0.992188 -2.53125 1.066406 -2.585938 1.140625 -2.640625 L 1.609375 -3.046875 L 0.984375 -3.859375 C 0.929688 -3.921875 0.894531 -3.960938 0.875 -3.984375 C 0.851562 -4.003906 0.804688 -4.003906 0.734375 -3.984375 Z M 2.734375 -2.03125 L 1.046875 -0.65625 L 0.546875 -0.25 C 0.492188 -0.195312 0.429688 -0.140625 0.359375 -0.078125 C 0.285156 -0.0234375 0.222656 0.00390625 0.171875 0.015625 C 0.117188 0.0546875 0.0664062 0.03125 0.015625 -0.0625 L -0.0625 -0.25 C 0.0078125 -0.28125 0.09375 -0.320312 0.1875 -0.375 C 0.28125 -0.4375 0.375 -0.5 0.46875 -0.5625 C 0.5625 -0.632812 0.640625 -0.691406 0.703125 -0.734375 C 0.773438 -0.785156 0.832031 -0.828125 0.875 -0.859375 C 1.238281 -1.140625 1.570312 -1.40625 1.875 -1.65625 C 2.175781 -1.90625 2.441406 -2.117188 2.671875 -2.296875 C 2.710938 -2.328125 2.765625 -2.375 2.828125 -2.4375 C 2.890625 -2.5 2.953125 -2.554688 3.015625 -2.609375 C 3.078125 -2.660156 3.132812 -2.707031 3.1875 -2.75 C 3.238281 -2.800781 3.273438 -2.835938 3.296875 -2.859375 C 3.367188 -2.929688 3.429688 -2.988281 3.484375 -3.03125 C 3.546875 -3.082031 3.597656 -3.109375 3.640625 -3.109375 L 3.890625 -3.078125 C 3.929688 -3.078125 3.957031 -3.070312 3.96875 -3.0625 C 3.976562 -3.050781 3.988281 -3.035156 4 -3.015625 C 4.007812 -2.984375 4.015625 -2.953125 4.015625 -2.921875 C 4.015625 -2.898438 4 -2.890625 3.96875 -2.890625 L 3.65625 -2.703125 C 3.582031 -2.648438 3.484375 -2.582031 3.359375 -2.5 C 3.242188 -2.414062 3.128906 -2.332031 3.015625 -2.25 C 2.910156 -2.164062 2.816406 -2.09375 2.734375 -2.03125 Z M 0 -3.96875 C -0.125 -3.84375 -0.257812 -3.71875 -0.40625 -3.59375 C -0.550781 -3.476562 -0.695312 -3.363281 -0.84375 -3.25 C -0.90625 -3.1875 -0.960938 -3.140625 -1.015625 -3.109375 C -1.066406 -3.078125 -1.109375 -3.054688 -1.140625 -3.046875 C -1.171875 -3.046875 -1.207031 -3.066406 -1.25 -3.109375 L -1.359375 -3.296875 C -1.242188 -3.359375 -1.132812 -3.425781 -1.03125 -3.5 C -0.925781 -3.570312 -0.828125 -3.644531 -0.734375 -3.71875 C -0.648438 -3.78125 -0.539062 -3.863281 -0.40625 -3.96875 C -0.28125 -4.070312 -0.160156 -4.164062 -0.046875 -4.25 C 0.0351562 -4.332031 0.128906 -4.414062 0.234375 -4.5 C 0.347656 -4.59375 0.4375 -4.675781 0.5 -4.75 C 0.570312 -4.820312 0.625 -4.867188 0.65625 -4.890625 C 0.738281 -4.960938 0.796875 -5.007812 0.828125 -5.03125 C 0.867188 -5.0625 0.914062 -5.078125 0.96875 -5.078125 L 1.125 -5.109375 C 1.1875 -5.117188 1.222656 -5.113281 1.234375 -5.09375 C 1.253906 -5.070312 1.265625 -5.039062 1.265625 -5 C 1.285156 -4.9375 1.289062 -4.894531 1.28125 -4.875 C 1.269531 -4.863281 1.253906 -4.851562 1.234375 -4.84375 C 1.191406 -4.820312 1.144531 -4.796875 1.09375 -4.765625 C 1.050781 -4.742188 1 -4.71875 0.9375 -4.6875 C 0.863281 -4.632812 0.769531 -4.566406 0.65625 -4.484375 C 0.550781 -4.398438 0.4375 -4.3125 0.3125 -4.21875 C 0.195312 -4.125 0.09375 -4.039062 0 -3.96875 Z M 0 -3.96875 "/></g></g></g><g fill="#000000" fill-opacity="1"><g transform="translate(35.65727, 101.028333)"><g><path d="M 20.921875 -18.796875 L 20.921875 0 L 17.375 0 L 17.375 -8.609375 L 11.484375 -0.25 L 11.4375 -0.25 L 5.765625 -8.078125 L 5.765625 0 L 2.328125 0 L 2.328125 -18.796875 L 2.359375 -18.796875 L 11.5 -5.8125 L 20.875 -18.796875 Z M 20.921875 -18.796875 "/></g></g></g><g fill="#000000" fill-opacity="1"><g transform="translate(58.907337, 101.028333)"><g><path d="M 5.515625 -6.671875 C 5.515625 -6.097656 5.6875 -5.550781 6.03125 -5.03125 C 6.375 -4.507812 6.832031 -4.082031 7.40625 -3.75 C 7.976562 -3.425781 8.59375 -3.265625 9.25 -3.265625 C 9.945312 -3.265625 10.585938 -3.425781 11.171875 -3.75 C 11.765625 -4.082031 12.226562 -4.507812 12.5625 -5.03125 C 12.90625 -5.550781 13.078125 -6.097656 13.078125 -6.671875 L 13.078125 -18.0625 L 16.578125 -18.0625 L 16.578125 -6.59375 C 16.578125 -5.300781 16.25 -4.132812 15.59375 -3.09375 C 14.945312 -2.0625 14.0625 -1.253906 12.9375 -0.671875 C 11.820312 -0.0859375 10.59375 0.203125 9.25 0.203125 C 7.90625 0.203125 6.675781 -0.0859375 5.5625 -0.671875 C 4.457031 -1.253906 3.582031 -2.0625 2.9375 -3.09375 C 2.289062 -4.132812 1.96875 -5.300781 1.96875 -6.59375 L 1.96875 -18.0625 L 5.515625 -18.0625 Z M 5.515625 -6.671875 "/></g></g></g><g fill="#000000" fill-opacity="1"><g transform="translate(77.44853, 101.028333)"><g><path d="M 13.265625 -18.0625 L 13.265625 -14.625 L 8.875 -14.625 L 8.875 0 L 5.328125 0 L 5.328125 -14.625 L 1.109375 -14.625 L 1.109375 -18.0625 Z M 13.265625 -18.0625 "/></g></g></g><g fill="#000000" fill-opacity="1"><g transform="translate(91.820408, 101.028333)"><g><path d="M 11.96875 -13.6875 C 10.394531 -14.550781 9.03125 -14.984375 7.875 -14.984375 C 7.09375 -14.984375 6.484375 -14.828125 6.046875 -14.515625 C 5.609375 -14.210938 5.390625 -13.75 5.390625 -13.125 C 5.390625 -12.550781 5.703125 -12.046875 6.328125 -11.609375 C 6.960938 -11.179688 7.804688 -10.769531 8.859375 -10.375 C 9.703125 -10.0625 10.425781 -9.703125 11.03125 -9.296875 C 11.644531 -8.898438 12.148438 -8.347656 12.546875 -7.640625 C 12.953125 -6.941406 13.15625 -6.054688 13.15625 -4.984375 C 13.15625 -4.046875 12.910156 -3.179688 12.421875 -2.390625 C 11.941406 -1.597656 11.234375 -0.96875 10.296875 -0.5 C 9.367188 -0.03125 8.257812 0.203125 6.96875 0.203125 C 5.882812 0.203125 4.8125 0.0390625 3.75 -0.28125 C 2.6875 -0.601562 1.695312 -1.085938 0.78125 -1.734375 L 2.359375 -4.515625 C 2.972656 -4.054688 3.679688 -3.675781 4.484375 -3.375 C 5.285156 -3.082031 6.003906 -2.9375 6.640625 -2.9375 C 7.398438 -2.9375 8.054688 -3.097656 8.609375 -3.421875 C 9.160156 -3.742188 9.4375 -4.265625 9.4375 -4.984375 C 9.4375 -5.910156 8.5625 -6.71875 6.8125 -7.40625 C 5.789062 -7.8125 4.9375 -8.203125 4.25 -8.578125 C 3.5625 -8.960938 2.96875 -9.503906 2.46875 -10.203125 C 1.96875 -10.910156 1.71875 -11.796875 1.71875 -12.859375 C 1.71875 -14.410156 2.226562 -15.660156 3.25 -16.609375 C 4.269531 -17.554688 5.628906 -18.070312 7.328125 -18.15625 C 8.671875 -18.15625 9.789062 -18.003906 10.6875 -17.703125 C 11.59375 -17.398438 12.472656 -16.96875 13.328125 -16.40625 Z M 11.96875 -13.6875 "/></g></g></g><g fill="#000000" fill-opacity="1"><g transform="translate(106.118707, 101.028333)"><g><path d="M 5.890625 -18.0625 L 5.890625 0 L 2.328125 0 L 2.328125 -18.0625 Z M 5.890625 -18.0625 "/></g></g></g></svg>