<svg width="1007" height="492" viewBox="0 0 1007 492" fill="none" xmlns="http://www.w3.org/2000/svg">
<rect width="1007" height="492" rx="39" fill="#F9AB52"/>
<rect x="78.6898" y="291.69" width="113.458" height="116.226" fill="#47D922"/>
<path d="M105.123 315.79H124.786L149.217 348.031V315.79H164.747V380H144.585L120.517 345.852V380H105.123V315.79Z" fill="#FBF8F8"/>
<path d="M117.74 98.5107H98.3084C98.5771 97.1774 98.7425 95.7848 98.8045 94.3626C98.8459 92.8812 98.7632 91.459 98.5565 90.0961C98.3291 88.6739 98.0603 87.2517 97.7296 85.8295L86.9799 90.0961C87.1453 90.7479 87.2694 91.3997 87.3934 92.1108C87.5588 92.8219 87.6621 93.5034 87.7241 94.1256C87.8895 95.5478 87.8895 97.0293 87.7241 98.5107H69.5325V110.718H76.313C75.7548 112.081 75.3414 113.503 75.0727 114.984C74.7832 116.496 74.6592 118.155 74.6592 119.962C74.6592 123.695 75.238 126.895 76.3957 129.562C77.5533 132.169 79.0831 134.303 81.0263 135.962C83.0108 137.621 85.1608 138.865 87.4761 139.636V146.154H63V158.598H125.265V146.154H99.1353V139.754C101.554 139.043 103.766 137.858 105.75 136.199C107.776 134.54 109.409 132.377 110.629 129.68C111.89 127.014 112.531 123.755 112.531 119.962C112.531 118.155 112.366 116.496 112.035 114.984C111.745 113.503 111.332 112.081 110.794 110.718H117.74V98.5107ZM83.4243 178.628C81.9359 178.628 81.1917 177.502 81.1917 175.309V161.68H69.7805V179.102C69.7805 183.427 70.5661 186.509 72.1785 188.346C73.7703 190.153 76.0856 191.072 79.1244 191.072H100.872C103.352 191.072 106.164 190.864 109.306 190.479C112.49 190.153 116.004 189.057 119.808 187.161L117.658 175.309C114.619 176.731 111.663 177.62 108.81 178.035C105.999 178.42 103.27 178.628 100.624 178.628H83.4243ZM101.451 119.962C101.451 122.184 100.81 124.199 99.5487 126.006C98.3291 127.755 96.3445 128.614 93.5951 128.614C90.825 128.614 88.8198 127.755 87.5588 126.006C86.3391 124.199 85.7396 122.184 85.7396 119.962C85.7396 117.77 86.3391 115.784 87.5588 114.036C88.8198 112.229 90.825 111.31 93.5951 111.31C96.3445 111.31 98.3291 112.229 99.5487 114.036C100.81 115.784 101.451 117.77 101.451 119.962Z" fill="#FBF8F8"/>
<path d="M133.427 168.198C136.672 165.354 139.711 162.243 142.522 158.836C145.334 155.369 147.939 151.695 150.378 147.814C152.032 147.991 153.541 148.999 154.926 150.895C156.125 152.554 157.613 154.806 159.391 157.65C161.21 160.495 163.071 163.665 165.014 167.132L171.712 157.413C170.058 154.421 168.425 151.665 166.833 149.117C165.283 146.51 163.774 144.11 162.285 141.888C160.507 139.28 158.523 137.621 156.332 136.91C160.797 127.607 163.401 119.222 164.187 111.785C164.518 107.992 164.29 104.881 163.526 102.422C162.74 99.9923 160.9 98.7479 157.985 98.7479H129.954V111.311H150.461C151.287 111.311 151.784 111.725 151.949 112.496C152.114 113.207 152.114 114.007 151.949 114.866C151.329 117.947 150.316 121.355 148.889 125.058C147.442 128.703 145.685 132.466 143.597 136.317C141.489 140.199 139.091 143.962 136.403 147.577C133.757 151.221 130.905 154.51 127.886 157.413L133.427 168.198ZM196.022 126.718H186.182V94.9554H174.937V185.028H186.182V139.636H196.022V126.718Z" fill="#FBF8F8"/>
<path d="M257.905 185.028V94.9554H246.742V121.029H234.339V133.947H246.742V185.028H257.905ZM212.757 100.407C213.294 101.681 213.749 103.251 214.08 105.148C214.411 107.044 214.576 109.148 214.576 111.429V115.577C214.576 121.829 213.873 127.281 212.509 131.932C211.124 136.614 209.077 140.91 206.39 144.851C203.744 148.732 200.436 152.673 196.467 156.702L202.338 167.843C206.307 163.902 209.863 159.873 213.005 155.754C216.188 151.665 218.835 147.102 220.943 142.125C221.481 142.688 222.018 143.28 222.514 143.903C223.01 144.465 223.444 145.147 223.837 145.917C224.664 147.577 225.925 150.273 227.641 153.976C229.336 157.71 231.238 162.124 233.347 167.25L241.119 159.665C239.011 154.628 237.15 150.273 235.496 146.628C233.884 142.925 232.396 139.725 231.031 137.029C229.253 133.651 227.083 131.547 224.499 130.747C225.532 125.858 226.07 120.555 226.07 114.866V111.311C226.07 108.703 225.863 106.096 225.491 103.489C225.16 100.822 224.437 98.1553 223.341 95.5479L212.757 100.407Z" fill="#FBF8F8"/>
<path d="M283.597 131.103V109.77H318.492V97.207H272.268V133.947C272.268 139.102 273.261 142.599 275.245 144.495C277.23 146.391 280.082 147.399 283.845 147.458H290.129V162.865H264.744V175.191H327.009V162.865H301.458V147.221C304.869 146.984 308.238 146.51 311.546 145.799C314.853 145.088 317.768 144.11 320.311 142.836L318.574 131.34C314.771 132.525 310.74 133.443 306.502 134.066C302.305 134.717 298.501 135.014 295.091 135.014H286.325C285.168 135.014 284.424 134.658 284.093 133.947C283.762 133.236 283.597 132.288 283.597 131.103Z" fill="#FBF8F8"/>
<path d="M410.942 161.087C411.045 158.806 410.652 156.88 409.784 155.28C408.957 153.71 407.8 152.791 406.311 152.554C407.738 151.31 408.916 149.562 409.867 147.339C410.859 145.058 411.355 142.243 411.355 138.925V93.8887H400.109V114.866H389.856V127.547H400.109V140.11C400.109 142.717 399.82 145.147 399.283 147.339C398.724 149.473 397.815 151.191 396.554 152.436H363.395V164.998H397.215C398.642 164.998 399.365 166.065 399.365 168.198V192.139H409.95L410.942 161.087ZM354.051 112.259H373.153C374.414 112.259 374.724 112.97 374.062 114.392C372.078 118.836 369.142 123.014 365.297 126.955C361.493 130.925 356.946 134.51 351.653 137.74L355.623 149.71C358.971 148.139 362.362 145.917 365.793 143.073C369.204 140.229 372.408 137.088 375.385 133.592C376.254 133.769 377.039 134.155 377.701 134.777C378.403 135.429 379.127 136.288 379.851 137.384C380.884 139.043 381.959 140.91 383.075 142.954C384.233 144.94 385.494 147.102 386.879 149.473L393.99 140.11C392.378 137.354 391.034 135.103 389.939 133.355C388.884 131.547 387.789 129.769 386.631 128.021C385.246 126.214 383.592 125.147 381.67 124.821C383.261 122.214 384.585 119.607 385.639 116.999C386.734 114.333 387.499 111.666 387.954 109.059C388.326 106.688 388.202 104.555 387.541 102.659C386.92 100.763 385.597 99.8145 383.572 99.8145H375.385C376.047 97.859 376.398 95.785 376.46 93.6517C376.502 92.1702 376.46 90.6888 376.295 89.2666C376.13 87.8444 375.84 86.4222 375.468 85L364.884 88.7925C365.049 89.5036 365.215 90.3332 365.38 91.2814C365.545 92.1702 365.649 92.9406 365.711 93.6517C365.979 95.7257 365.876 97.7701 365.38 99.8145H354.051V112.259Z" fill="#FBF8F8"/>
<path d="M477.151 161.087C477.254 158.806 476.862 156.88 475.993 155.28C475.167 153.71 474.009 152.791 472.52 152.554C473.947 151.31 475.125 149.562 476.076 147.339C477.068 145.058 477.565 142.243 477.565 138.925V93.8887H466.319V114.866H456.065V127.547H466.319V140.11C466.319 142.717 466.029 145.147 465.492 147.339C464.934 149.473 464.024 151.191 462.763 152.436H429.605V164.998H463.425C464.851 164.998 465.575 166.065 465.575 168.198V192.139H476.159L477.151 161.087ZM420.261 112.259H439.362C440.623 112.259 440.933 112.97 440.272 114.392C438.287 118.836 435.352 123.014 431.506 126.955C427.703 130.925 423.155 134.51 417.863 137.74L421.832 149.71C425.181 148.139 428.571 145.917 432.003 143.073C435.414 140.229 438.618 137.088 441.595 133.592C442.463 133.769 443.248 134.155 443.91 134.777C444.613 135.429 445.336 136.288 446.06 137.384C447.093 139.043 448.168 140.91 449.285 142.954C450.442 144.94 451.703 147.102 453.088 149.473L460.2 140.11C458.587 137.354 457.244 135.103 456.148 133.355C455.094 131.547 453.998 129.769 452.84 128.021C451.455 126.214 449.802 125.147 447.879 124.821C449.471 122.214 450.794 119.607 451.848 116.999C452.944 114.333 453.709 111.666 454.163 109.059C454.536 106.688 454.411 104.555 453.75 102.659C453.13 100.763 451.807 99.8145 449.781 99.8145H441.595C442.256 97.859 442.608 95.785 442.67 93.6517C442.711 92.1702 442.67 90.6888 442.504 89.2666C442.339 87.8444 442.049 86.4222 441.677 85L431.093 88.7925C431.258 89.5036 431.424 90.3332 431.589 91.2814C431.755 92.1702 431.858 92.9406 431.92 93.6517C432.189 95.7257 432.085 97.7701 431.589 99.8145H420.261V112.259Z" fill="#FBF8F8"/>
<path d="M490.935 94.9554L493.085 156.584H502.015L504 94.9554H490.935ZM503.669 164.998H491.183V181.591H503.669V164.998Z" fill="#FBF8F8"/>
<path d="M575.223 101.344C575.758 102.612 576.211 104.176 576.54 106.065C576.87 107.953 577.034 110.048 577.034 112.32V116.451C577.034 122.677 576.334 128.106 574.976 132.739C573.658 137.312 571.64 141.532 568.964 145.368C566.329 149.144 562.994 153.039 559 157.052L564.847 168.501C568.902 164.576 572.505 160.564 575.634 156.462C578.805 152.302 581.44 147.728 583.54 142.771C584.857 143.804 585.969 145.191 586.916 146.902C588.11 149.262 589.489 152.272 591.033 155.872C592.619 159.413 594.41 163.485 596.386 168.029L604.456 160.475C602.356 155.459 600.503 151.121 598.857 147.492C597.251 143.804 595.768 140.617 594.41 137.932C592.598 134.332 590.086 132.149 586.916 131.44C587.945 126.572 588.481 121.349 588.481 115.743V112.202C588.481 109.605 588.275 107.009 587.904 104.412C587.575 101.757 586.854 99.101 585.763 96.5044L575.223 101.344ZM620.02 185.615V95.9143H608.903V185.615H620.02Z" fill="#FBF8F8"/>
<path d="M684.556 185.615V95.9143H673.357V143.125C671.154 145.486 668.622 147.374 665.781 148.79C662.981 150.207 660.202 151.269 657.464 151.977C654.705 152.626 652.379 152.921 650.464 152.921H644.947C643.567 152.921 642.723 152.538 642.394 151.741C642.064 150.974 641.9 149.912 641.9 148.554V99.6911H630.618V152.449C630.618 157.023 631.565 160.416 633.5 162.599C635.477 164.724 638.153 165.786 641.57 165.786H650.711C654.376 165.786 658.246 165.078 662.322 163.662C666.44 162.245 670.104 160.298 673.357 157.76V185.615H684.556Z" fill="#FBF8F8"/>
<path d="M752.104 95.9143H740.823V125.421H732.341C731.888 120.552 730.817 116.215 729.129 112.438C727.42 108.602 725.176 105.592 722.377 103.468C719.577 101.284 716.283 100.163 712.495 100.163C708.316 100.163 704.713 101.55 701.707 104.294C698.743 106.979 696.437 110.638 694.79 115.271C693.143 119.844 692.32 125.008 692.32 130.732C692.32 136.398 693.102 141.561 694.708 146.194C696.355 150.767 698.681 154.426 701.707 157.17C704.713 159.855 708.316 161.183 712.495 161.183C716.056 161.183 719.186 160.209 721.883 158.232C724.621 156.285 726.844 153.57 728.553 150.089C730.303 146.548 731.517 142.594 732.176 138.168H740.823V185.615H752.104V95.9143ZM721.635 130.732C721.635 133.742 721.306 136.604 720.647 139.348C719.989 142.033 718.959 144.246 717.6 145.958C716.283 147.61 714.574 148.436 712.495 148.436C710.518 148.436 708.83 147.61 707.472 145.958C706.154 144.246 705.125 142.033 704.425 139.348C703.766 136.604 703.437 133.742 703.437 130.732C703.437 127.604 703.766 124.683 704.425 121.998C705.125 119.343 706.154 117.159 707.472 115.507C708.83 113.795 710.518 112.91 712.495 112.91C714.574 112.91 716.283 113.795 717.6 115.507C718.959 117.159 719.989 119.343 720.647 121.998C721.306 124.683 721.635 127.604 721.635 130.732Z" fill="#FBF8F8"/>
<path d="M824.245 140.883C824.245 143.42 823.997 145.722 823.503 147.846C823.009 149.971 822.145 151.682 820.951 152.921H792.376V165.314H817.821C816.216 167.616 813.992 169.74 811.151 171.688C808.29 173.665 804.996 175.405 801.269 176.881C797.584 178.356 793.714 179.654 789.658 180.776L791.388 193.405C795.834 192.608 800.322 191.221 804.893 189.274C809.442 187.297 813.642 184.936 817.492 182.192C818.912 181.779 820.209 181.867 821.362 182.428C822.515 183.048 823.771 183.903 825.15 185.025C826.633 186.264 828.053 187.533 829.432 188.801C830.791 190.041 832.356 191.546 834.126 193.286L839.314 183.962C837.708 182.221 836.309 180.776 835.114 179.595C833.9 178.415 832.644 177.294 831.326 176.291C830.503 175.671 829.721 175.11 829.021 174.638C828.362 174.107 827.58 173.783 826.715 173.694C827.744 172.455 828.691 171.186 829.515 169.917C830.338 168.589 831.038 167.262 831.656 165.904C832.191 164.576 832.5 163.131 832.562 161.537C832.665 159.973 832.5 158.469 832.068 157.052C831.615 155.577 830.874 154.456 829.844 153.747C831.429 152.656 832.747 150.915 833.797 148.554C834.888 146.135 835.444 143.184 835.444 139.702V127.782H845.079V115.507H835.444V94.852H824.245V140.883ZM815.351 96.3864H779.941V133.447C779.941 137.401 780.476 140.174 781.588 141.827C782.741 143.479 785.047 144.305 788.505 144.305H796.246C798.161 144.305 800.322 144.01 802.752 143.361C805.222 142.741 807.569 141.886 809.834 140.764C812.078 139.584 813.91 138.227 815.351 136.634V96.3864ZM804.316 108.661V129.198C803.266 129.995 801.969 130.673 800.446 131.204C798.964 131.676 797.564 131.912 796.246 131.912H793.117C791.676 131.912 790.976 130.968 790.976 129.08V108.661H804.316Z" fill="#FBF8F8"/>
<path d="M902.342 168.265C902.609 164.576 902.259 161.95 901.271 160.357C900.283 158.793 898.636 157.996 896.33 157.996H883.978V151.505H910V139.348H847.992V151.505H872.779V157.996H854.909V181.13C854.909 185.762 855.733 188.831 857.38 190.336C859.027 191.9 861.456 192.696 864.709 192.696H896.66C899.459 192.696 900.962 191.192 901.189 188.211L902.342 168.265ZM857.133 99.337V111.258H883.402C879.552 114.326 875.249 116.805 870.473 118.693C865.697 120.523 860.056 122.205 853.592 123.769L855.156 136.043C859.315 135.188 863.309 134.214 867.097 133.093C870.926 131.912 874.426 130.585 877.555 129.08C878.646 128.549 879.737 127.959 880.849 127.309C881.94 126.69 883.01 126.011 884.06 125.303C885.049 125.539 885.975 125.982 886.86 126.601C887.725 127.162 888.672 127.723 889.66 128.254C891.41 129.375 892.995 130.496 894.436 131.676C895.919 132.798 897.771 134.273 900.036 136.161L904.4 125.657C902.527 124.182 900.715 122.824 898.965 121.644C897.257 120.405 895.424 119.166 893.448 117.985C893.222 117.838 893.057 117.749 892.954 117.749C895.363 115.094 897.174 112.438 898.389 109.841C899.48 107.333 899.707 104.973 899.048 102.76C898.43 100.488 897.071 99.337 894.93 99.337H881.755C881.919 98.5699 882.043 97.7732 882.166 96.9765C882.269 96.2093 882.352 95.4127 882.413 94.616C882.455 93.1406 882.372 91.6653 882.166 90.249C882.002 88.8326 881.755 87.4163 881.425 86L870.885 89.7769C871.049 90.485 871.214 91.3112 871.379 92.2554C871.585 93.1406 871.729 93.9078 871.79 94.616C871.955 96.1208 871.893 97.6847 871.626 99.337H857.133ZM868.002 180.304C867.22 180.304 866.705 180.067 866.438 179.595C866.211 179.182 866.108 178.445 866.108 177.353V170.271H890.978V180.304H868.002Z" fill="#FBF8F8"/>
<path d="M274.945 401.3V296H262.254V326.837H247.084V342.611H262.254V401.3H274.945ZM294.973 404V296H282.183V404H294.973ZM258.486 358.953C255.834 360.018 253.256 360.907 250.753 361.653C248.225 362.328 245.647 362.647 243.019 362.647H238.657C236.922 362.647 235.881 362.186 235.484 361.226C235.137 360.303 234.988 358.953 234.988 357.247V300.547H222V362.789C222 373.696 226.065 378.989 234.195 378.705L240.838 378.563C244.854 378.386 248.472 377.817 251.645 376.858C254.818 375.934 257.718 374.833 260.37 373.589L258.486 358.953Z" fill="#49C22B"/>
<path d="M375.022 404V296H361.34V404H375.022ZM351.921 337.921C351.921 330.638 350.929 324.243 348.946 318.737C347.013 313.159 344.212 308.861 340.519 305.805C336.875 302.679 332.513 301.116 327.431 301.116C322.4 301.116 318.062 302.679 314.443 305.805C310.799 308.861 307.998 313.159 306.016 318.737C304.033 324.243 303.041 330.638 303.041 337.921C303.041 345.239 304.033 351.634 306.016 357.105C307.998 362.612 310.799 366.911 314.443 370.037C318.062 373.092 322.4 374.584 327.431 374.584C332.513 374.584 336.875 373.092 340.519 370.037C344.212 366.911 347.013 362.612 348.946 357.105C350.929 351.634 351.921 345.239 351.921 337.921ZM338.536 337.921C338.536 341.616 338.09 345.133 337.247 348.437C336.454 351.67 335.215 354.263 333.579 356.253C331.992 358.242 329.935 359.237 327.431 359.237C324.978 359.237 322.92 358.242 321.284 356.253C319.698 354.263 318.459 351.67 317.616 348.437C316.823 345.133 316.426 341.616 316.426 337.921C316.426 334.049 316.823 330.496 317.616 327.263C318.459 324.066 319.698 321.437 321.284 319.447C322.92 317.458 324.978 316.463 327.431 316.463C329.935 316.463 331.992 317.458 333.579 319.447C335.215 321.437 336.454 324.066 337.247 327.263C338.09 330.496 338.536 334.049 338.536 337.921Z" fill="#49C22B"/>
<path d="M428.83 372.026V342.753H440.827V404H454.41V296H440.827V327.263H428.83V299.268H415.544V326.695H397.499V299.268H384.213V366.911C384.213 371.671 385.205 375.259 387.188 377.711C389.22 380.091 392.344 381.263 396.508 381.263H405.53C407.91 381.263 410.537 380.908 413.462 380.126C416.436 379.38 419.262 378.35 421.989 377C424.765 375.579 427.045 373.945 428.83 372.026ZM405.233 366.058H400.077C398.342 366.058 397.499 364.886 397.499 362.505V341.9H415.544V362.647C414.007 363.784 412.322 364.637 410.488 365.205C408.629 365.774 406.869 366.058 405.233 366.058Z" fill="#49C22B"/>
<path d="M538.102 318.107C538.102 312.416 537.164 307.726 535.311 304.036C533.434 300.277 530.932 297.518 527.804 295.759C524.652 293.931 521.115 293 517.217 293C513.367 293 509.83 293.931 506.63 295.759C503.405 297.518 500.879 300.277 499.026 304.036C497.149 307.829 496.235 312.589 496.235 318.382C496.235 325.211 497.63 330.625 500.47 334.66C503.285 338.73 506.87 341.351 511.249 342.523V349.835H492V364.181H523.377C528.189 364.181 532.328 363.698 535.793 362.664C539.306 361.56 542.434 360.008 545.129 357.974V376.597H558.218V341.558H569.479V327.073H558.218V295.897H545.129V342.523C542.482 344.731 539.282 346.489 535.504 347.765C531.774 349.076 528.045 349.766 524.339 349.835V342.11C528.309 340.661 531.582 337.937 534.156 333.971C536.779 329.936 538.102 324.659 538.102 318.107ZM503.261 372.182V396.323C503.261 400.255 504.151 403.359 505.956 405.566C507.809 407.842 510.407 409.014 513.752 409.014H540.124C544.744 409.014 548.642 408.394 551.866 407.221C555.066 406.118 558.242 404.773 561.394 403.221L558.699 389.978C555.62 391.357 552.467 392.461 549.267 393.288C546.115 394.116 542.746 394.53 539.161 394.53H518.949C517.987 394.53 517.337 394.254 517.024 393.702C516.687 393.15 516.543 392.254 516.543 391.081V372.182H503.261ZM525.494 318.107C525.494 321.072 524.772 323.693 523.377 325.97C522.029 328.177 519.96 329.28 517.217 329.28C514.45 329.28 512.356 328.177 510.961 325.97C509.613 323.693 508.94 321.072 508.94 318.107C508.94 315.175 509.613 312.589 510.961 310.381C512.356 308.105 514.45 306.933 517.217 306.933C519.96 306.933 522.029 308.105 523.377 310.381C524.772 312.589 525.494 315.175 525.494 318.107Z" fill="#FBF8F8"/>
<path d="M616.099 346.11V345.282H628.419V349.697C628.419 352.732 628.082 355.559 627.457 358.112C626.807 360.595 625.772 362.595 624.377 364.043H585.782V378.666H625.147C626.807 378.666 627.649 379.907 627.649 382.39V410.256H640.065L641.124 374.114C641.244 371.458 640.835 369.216 639.873 367.354C638.91 365.526 637.514 364.457 635.734 364.181C637.394 362.733 638.766 360.698 639.873 358.112C641.027 355.456 641.605 352.18 641.605 348.317V295.897H628.419V306.105H616.099V297.69H603.299V312.451H588.284V297.69H575.579V342.523C575.579 345.558 575.82 348.007 576.349 349.835C576.855 351.697 577.817 353.007 579.237 353.835C580.632 354.663 582.702 355.077 585.397 355.077H593.481C595.791 355.077 598.39 354.732 601.277 353.973C604.165 353.249 606.908 352.249 609.555 350.938C612.25 349.559 614.415 347.972 616.099 346.11ZM594.733 340.73H590.979C589.174 340.73 588.284 339.592 588.284 337.281V326.935H603.299V337.419C602.071 338.35 600.724 339.144 599.256 339.764C597.764 340.42 596.272 340.73 594.733 340.73ZM616.099 320.452H628.419V330.936H616.099V320.452Z" fill="#FBF8F8"/>
<path d="M751.234 334.109H739.877V297.138H726.691V401.979H739.877V349.145H751.234V334.109ZM683.765 383.632C691.008 377.562 696.999 370.768 701.763 363.216C706.576 355.697 710.257 347.765 712.832 339.488C715.382 331.212 716.922 323.004 717.452 314.796C717.957 305.967 715.623 301.553 710.425 301.553H676.354V316.175H701.956C702.774 316.175 703.327 316.52 703.592 317.141C703.833 317.796 703.905 318.762 703.784 320.038C702.75 329.798 699.935 338.661 695.315 346.662C690.743 354.594 684.631 362.112 676.931 369.285L683.765 383.632Z" fill="#FBF8F8"/>
<path d="M825.285 401.979V297.138H812.003V401.979H825.285ZM802.859 337.833C802.859 330.763 801.897 324.556 799.972 319.21C798.095 313.796 795.376 309.623 791.791 306.657C788.254 303.622 784.019 302.105 779.086 302.105C774.201 302.105 769.991 303.622 766.478 306.657C762.941 309.623 760.222 313.796 758.297 319.21C756.372 324.556 755.409 330.763 755.409 337.833C755.409 344.937 756.372 351.145 758.297 356.456C760.222 361.802 762.941 365.975 766.478 369.009C769.991 371.975 774.201 373.424 779.086 373.424C784.019 373.424 788.254 371.975 791.791 369.009C795.376 365.975 798.095 361.802 799.972 356.456C801.897 351.145 802.859 344.937 802.859 337.833ZM789.866 337.833C789.866 341.42 789.433 344.834 788.615 348.041C787.845 351.18 786.641 353.697 785.053 355.628C783.513 357.56 781.516 358.525 779.086 358.525C776.704 358.525 774.707 357.56 773.119 355.628C771.579 353.697 770.376 351.18 769.558 348.041C768.788 344.834 768.403 341.42 768.403 337.833C768.403 334.074 768.788 330.625 769.558 327.487C770.376 324.383 771.579 321.831 773.119 319.9C774.707 317.969 776.704 317.003 779.086 317.003C781.516 317.003 783.513 317.969 785.053 319.9C786.641 321.831 787.845 324.383 788.615 327.487C789.433 330.625 789.866 334.074 789.866 337.833Z" fill="#FBF8F8"/>
<path d="M840.944 299.759V343.075C840.944 349.076 842.099 353.145 844.409 355.353C846.719 357.56 850.039 358.663 854.419 358.663H866.835C870.299 358.663 873.812 358.525 877.422 358.249C881.007 357.905 884.472 357.353 887.816 356.594C891.209 355.766 894.217 354.732 896.864 353.421L894.843 340.04C890.415 341.42 885.892 342.489 881.272 343.213C876.7 343.972 872.417 344.317 868.374 344.317H857.306C855.959 344.317 855.092 343.903 854.707 343.075C854.322 342.247 854.13 341.144 854.13 339.764V314.382H894.746V299.759H840.944ZM832.185 376.183V390.529H904.66V376.183H832.185Z" fill="#FBF8F8"/>
</svg>
