<svg width="1075" height="525" viewBox="0 0 1075 525" fill="none" xmlns="http://www.w3.org/2000/svg">
<rect width="1075" height="525" rx="39" fill="#F9AB52"/>
<path d="M546.748 320.322C546.748 315.262 545.552 311.092 543.191 307.812C540.799 304.47 537.61 302.017 533.624 300.453C529.608 298.828 525.101 298 520.133 298C515.227 298 510.72 298.828 506.642 300.453C502.534 302.017 499.314 304.47 496.953 307.812C494.562 311.184 493.396 315.416 493.396 320.567C493.396 326.638 495.175 331.452 498.793 335.039C502.38 338.657 506.949 340.988 512.529 342.03V348.53H488V361.285H527.983C534.115 361.285 539.389 360.856 543.804 359.936C548.281 358.955 552.267 357.575 555.701 355.766V372.324H572.381V341.172H586.73V328.294H572.381V300.576H555.701V342.03C552.328 343.992 548.25 345.556 543.436 346.691C538.684 347.856 533.931 348.469 529.209 348.53V341.662C534.268 340.374 538.438 337.952 541.719 334.426C545.061 330.839 546.748 326.147 546.748 320.322ZM502.35 368.399V389.862C502.35 393.358 503.484 396.117 505.784 398.079C508.145 400.103 511.456 401.146 515.718 401.146H549.323C555.21 401.146 560.177 400.594 564.286 399.551C568.364 398.57 572.411 397.374 576.428 395.994L572.994 384.22C569.069 385.447 565.053 386.428 560.975 387.164C556.958 387.9 552.665 388.268 548.097 388.268H522.341C521.115 388.268 520.287 388.022 519.888 387.532C519.459 387.041 519.275 386.244 519.275 385.202V368.399H502.35ZM530.681 320.322C530.681 322.959 529.761 325.289 527.983 327.312C526.266 329.275 523.629 330.256 520.133 330.256C516.607 330.256 513.94 329.275 512.161 327.312C510.444 325.289 509.586 322.959 509.586 320.322C509.586 317.715 510.444 315.416 512.161 313.453C513.94 311.43 516.607 310.387 520.133 310.387C523.629 310.387 526.266 311.43 527.983 313.453C529.761 315.416 530.681 317.715 530.681 320.322Z" fill="#FBF8F8"/>
<path d="M646.137 345.219V344.483H661.836V348.408C661.836 351.106 661.407 353.62 660.61 355.889C659.782 358.097 658.463 359.875 656.685 361.163H607.504V374.163H657.666C659.782 374.163 660.855 375.267 660.855 377.475V402.249H676.676L678.025 370.116C678.179 367.755 677.657 365.762 676.431 364.106C675.204 362.481 673.426 361.531 671.157 361.285C673.273 359.998 675.02 358.189 676.431 355.889C677.903 353.528 678.639 350.615 678.639 347.181V300.576H661.836V309.651H646.137V302.17H629.825V315.293H610.692V302.17H594.503V342.03C594.503 344.728 594.81 346.905 595.484 348.53C596.128 350.186 597.355 351.351 599.164 352.087C600.942 352.823 603.579 353.191 607.013 353.191H617.315C620.259 353.191 623.57 352.884 627.25 352.21C630.929 351.566 634.425 350.677 637.797 349.511C641.231 348.285 643.991 346.875 646.137 345.219ZM618.91 340.436H614.127C611.827 340.436 610.692 339.424 610.692 337.369V328.171H629.825V337.492C628.262 338.32 626.545 339.025 624.674 339.577C622.773 340.16 620.872 340.436 618.91 340.436ZM646.137 322.407H661.836V331.728H646.137V322.407Z" fill="#FBF8F8"/>
<path d="M804.463 338.674H788.316V302H769.568V406H788.316V353.589H804.463V338.674ZM708.537 387.8C718.834 381.779 727.353 375.039 734.126 367.547C740.968 360.089 746.203 352.221 749.863 344.011C753.489 335.8 755.679 327.658 756.432 319.516C757.15 310.758 753.832 306.379 746.442 306.379H698V320.884H734.4C735.563 320.884 736.35 321.226 736.726 321.842C737.068 322.492 737.171 323.45 737 324.716C735.529 334.397 731.526 343.189 724.958 351.126C718.458 358.995 709.768 366.453 698.821 373.568L708.537 387.8Z" fill="#FBF8F8"/>
<path d="M909.746 406V302H890.862V406H909.746ZM877.862 342.368C877.862 335.355 876.494 329.197 873.757 323.895C871.088 318.524 867.223 314.384 862.125 311.442C857.096 308.432 851.075 306.926 844.062 306.926C837.117 306.926 831.13 308.432 826.136 311.442C821.107 314.384 817.241 318.524 814.504 323.895C811.767 329.197 810.399 335.355 810.399 342.368C810.399 349.416 811.767 355.574 814.504 360.842C817.241 366.145 821.107 370.284 826.136 373.295C831.13 376.237 837.117 377.674 844.062 377.674C851.075 377.674 857.096 376.237 862.125 373.295C867.223 370.284 871.088 366.145 873.757 360.842C876.494 355.574 877.862 349.416 877.862 342.368ZM859.388 342.368C859.388 345.926 858.773 349.313 857.609 352.495C856.515 355.608 854.804 358.105 852.546 360.021C850.357 361.937 847.517 362.895 844.062 362.895C840.675 362.895 837.836 361.937 835.578 360.021C833.388 358.105 831.678 355.608 830.515 352.495C829.42 349.313 828.873 345.926 828.873 342.368C828.873 338.639 829.42 335.218 830.515 332.105C831.678 329.026 833.388 326.495 835.578 324.579C837.836 322.663 840.675 321.705 844.062 321.705C847.517 321.705 850.357 322.663 852.546 324.579C854.804 326.495 856.515 329.026 857.609 332.105C858.773 335.218 859.388 338.639 859.388 342.368Z" fill="#FBF8F8"/>
<path d="M932.01 304.6V347.569C932.01 353.521 933.652 357.558 936.936 359.747C940.221 361.937 944.942 363.032 951.168 363.032H968.821C973.747 363.032 978.742 362.895 983.873 362.621C988.971 362.279 993.897 361.732 998.652 360.979C1003.48 360.158 1007.75 359.132 1011.52 357.832L1008.64 344.558C1002.35 345.926 995.915 346.987 989.347 347.705C982.847 348.458 976.758 348.8 971.01 348.8H955.273C953.358 348.8 952.126 348.39 951.579 347.569C951.031 346.747 950.758 345.653 950.758 344.284V319.105H1008.5V304.6H932.01ZM919.558 380.411V394.642H1022.6V380.411H919.558Z" fill="#FBF8F8"/>
<path d="M111.309 102.969H84.5753C84.945 101.689 85.1726 100.352 85.2579 98.9871C85.3148 97.5651 85.201 96.2 84.9166 94.8917C84.6038 93.5266 84.234 92.1615 83.779 90.7964L68.9903 94.8917C69.2178 95.5174 69.3884 96.1431 69.5591 96.8256C69.7866 97.5082 69.9288 98.1623 70.0141 98.7596C70.2416 100.125 70.2416 101.547 70.0141 102.969H44.987V114.686H54.3153C53.5474 115.994 52.9786 117.359 52.6089 118.781C52.2107 120.232 52.0401 121.824 52.0401 123.559C52.0401 127.143 52.8364 130.214 54.429 132.774C56.0217 135.276 58.1262 137.324 60.7996 138.917C63.5298 140.509 66.4876 141.704 69.6728 142.443V148.7H36V160.645H121.661V148.7H85.7129V142.557C89.0404 141.874 92.0835 140.737 94.8137 139.144C97.6008 137.552 99.8475 135.475 101.525 132.887C103.26 130.328 104.142 127.199 104.142 123.559C104.142 121.824 103.914 120.232 103.459 118.781C103.061 117.359 102.492 115.994 101.753 114.686H111.309V102.969ZM64.0986 179.87C62.0509 179.87 61.0271 178.789 61.0271 176.685V163.602H45.3283V180.325C45.3283 184.477 46.409 187.435 48.6273 189.198C50.8172 190.933 54.0024 191.815 58.1831 191.815H88.1019C91.5147 191.815 95.3825 191.616 99.7053 191.246C104.085 190.933 108.92 189.881 114.153 188.061L111.195 176.685C107.014 178.05 102.947 178.903 99.0228 179.301C95.155 179.671 91.4009 179.87 87.7606 179.87H64.0986ZM88.8982 123.559C88.8982 125.692 88.0165 127.626 86.2817 129.361C84.6038 131.039 81.8735 131.864 78.091 131.864C74.2801 131.864 71.5214 131.039 69.7866 129.361C68.1086 127.626 67.2839 125.692 67.2839 123.559C67.2839 121.455 68.1086 119.549 69.7866 117.871C71.5214 116.136 74.2801 115.255 78.091 115.255C81.8735 115.255 84.6038 116.136 86.2817 117.871C88.0165 119.549 88.8982 121.455 88.8982 123.559Z" fill="#FBF8F8"/>
<path d="M132.889 169.859C137.354 167.129 141.535 164.143 145.402 160.872C149.27 157.545 152.854 154.018 156.21 150.293C158.485 150.463 160.561 151.43 162.466 153.25C164.116 154.843 166.164 157.004 168.609 159.735C171.112 162.465 173.672 165.508 176.345 168.835L185.56 159.507C183.284 156.635 181.038 153.99 178.848 151.544C176.715 149.041 174.639 146.738 172.591 144.605C170.145 142.102 167.415 140.509 164.4 139.827C170.543 130.897 174.127 122.848 175.207 115.71C175.663 112.069 175.35 109.083 174.297 106.723C173.217 104.391 170.686 103.196 166.676 103.196H128.111V115.255H156.323C157.461 115.255 158.144 115.653 158.371 116.392C158.599 117.075 158.599 117.843 158.371 118.667C157.518 121.625 156.124 124.896 154.162 128.451C152.171 131.949 149.754 135.561 146.881 139.258C143.98 142.983 140.681 146.595 136.984 150.065C133.344 153.563 129.419 156.72 125.267 159.507L132.889 169.859ZM219.005 130.043H205.468V99.5558H189.996V186.013H205.468V142.443H219.005V130.043Z" fill="#FBF8F8"/>
<path d="M304.14 186.013V99.5558H288.782V124.583H271.718V136.983H288.782V186.013H304.14ZM242.027 104.789C242.767 106.012 243.392 107.519 243.847 109.339C244.302 111.159 244.53 113.178 244.53 115.368V119.35C244.53 125.351 243.563 130.584 241.686 135.049C239.78 139.542 236.965 143.666 233.268 147.449C229.627 151.174 225.077 154.957 219.617 158.825L227.694 169.518C233.154 165.735 238.046 161.868 242.368 157.914C246.748 153.99 250.389 149.61 253.289 144.832C254.029 145.372 254.768 145.941 255.451 146.538C256.133 147.079 256.731 147.733 257.271 148.472C258.409 150.065 260.143 152.653 262.504 156.208C264.836 159.791 267.452 164.029 270.353 168.949L281.047 161.668C278.146 156.834 275.586 152.653 273.311 149.155C271.093 145.6 269.045 142.528 267.168 139.94C264.722 136.698 261.736 134.679 258.181 133.911C259.603 129.219 260.342 124.128 260.342 118.667V115.255C260.342 112.752 260.058 110.249 259.546 107.746C259.091 105.187 258.096 102.627 256.588 100.125L242.027 104.789Z" fill="#FBF8F8"/>
<path d="M339.485 134.253V113.776H387.491V101.717H323.9V136.983C323.9 141.931 325.265 145.287 327.995 147.107C330.725 148.927 334.65 149.894 339.826 149.951H348.472V164.74H313.547V176.571H399.208V164.74H364.057V149.724C368.749 149.496 373.385 149.041 377.935 148.359C382.486 147.676 386.496 146.738 389.994 145.515L387.605 134.48C382.372 135.618 376.826 136.499 370.996 137.097C365.223 137.722 359.99 138.007 355.297 138.007H343.239C341.646 138.007 340.622 137.665 340.167 136.983C339.712 136.3 339.485 135.39 339.485 134.253Z" fill="#FBF8F8"/>
<path d="M514.679 163.034C514.821 160.844 514.281 158.995 513.086 157.459C511.949 155.952 510.356 155.07 508.308 154.843C510.271 153.648 511.892 151.971 513.2 149.838C514.565 147.648 515.248 144.946 515.248 141.761V98.532H499.776V118.667H485.67V130.84H499.776V142.898C499.776 145.401 499.378 147.733 498.639 149.838C497.871 151.885 496.62 153.535 494.885 154.729H449.267V166.788H495.795C497.757 166.788 498.753 167.812 498.753 169.859V192.839H513.314L514.679 163.034ZM436.412 116.165H462.691C464.426 116.165 464.852 116.847 463.942 118.212C461.212 122.478 457.173 126.488 451.884 130.271C446.651 134.082 440.394 137.523 433.113 140.623L438.574 152.113C443.181 150.605 447.845 148.472 452.566 145.742C457.259 143.012 461.667 139.997 465.762 136.641C466.957 136.812 468.037 137.182 468.948 137.779C469.914 138.405 470.91 139.229 471.905 140.282C473.327 141.874 474.806 143.666 476.342 145.628C477.935 147.534 479.669 149.61 481.575 151.885L491.358 142.898C489.14 140.253 487.291 138.092 485.784 136.414C484.334 134.679 482.826 132.973 481.234 131.295C479.328 129.56 477.053 128.536 474.408 128.223C476.598 125.72 478.418 123.218 479.868 120.715C481.376 118.155 482.428 115.596 483.054 113.093C483.566 110.818 483.395 108.77 482.485 106.95C481.632 105.13 479.812 104.22 477.024 104.22H465.762C466.672 102.343 467.156 100.352 467.241 98.3044C467.298 96.8824 467.241 95.4605 467.014 94.0953C466.786 92.7302 466.388 91.3651 465.876 90L451.315 93.6403C451.542 94.3229 451.77 95.1192 451.997 96.0293C452.225 96.8824 452.367 97.6219 452.452 98.3044C452.822 100.295 452.68 102.258 451.997 104.22H436.412V116.165Z" fill="#FBF8F8"/>
<path d="M605.766 163.034C605.908 160.844 605.368 158.995 604.173 157.459C603.036 155.952 601.443 155.07 599.395 154.843C601.358 153.648 602.979 151.971 604.287 149.838C605.652 147.648 606.335 144.946 606.335 141.761V98.532H590.863V118.667H576.757V130.84H590.863V142.898C590.863 145.401 590.465 147.733 589.726 149.838C588.958 151.885 587.707 153.535 585.972 154.729H540.354V166.788H586.882C588.844 166.788 589.84 167.812 589.84 169.859V192.839H604.401L605.766 163.034ZM527.499 116.165H553.778C555.513 116.165 555.939 116.847 555.029 118.212C552.299 122.478 548.261 126.488 542.971 130.271C537.738 134.082 531.481 137.523 524.2 140.623L529.661 152.113C534.268 150.605 538.932 148.472 543.653 145.742C548.346 143.012 552.754 139.997 556.849 136.641C558.044 136.812 559.125 137.182 560.035 137.779C561.002 138.405 561.997 139.229 562.992 140.282C564.414 141.874 565.893 143.666 567.429 145.628C569.022 147.534 570.756 149.61 572.662 151.885L582.445 142.898C580.227 140.253 578.378 138.092 576.871 136.414C575.421 134.679 573.913 132.973 572.321 131.295C570.415 129.56 568.14 128.536 565.495 128.223C567.685 125.72 569.505 123.218 570.956 120.715C572.463 118.155 573.515 115.596 574.141 113.093C574.653 110.818 574.482 108.77 573.572 106.95C572.719 105.13 570.899 104.22 568.112 104.22H556.849C557.759 102.343 558.243 100.352 558.328 98.3044C558.385 96.8824 558.328 95.4605 558.101 94.0953C557.873 92.7302 557.475 91.3651 556.963 90L542.402 93.6403C542.629 94.3229 542.857 95.1192 543.084 96.0293C543.312 96.8824 543.454 97.6219 543.54 98.3044C543.909 100.295 543.767 102.258 543.084 104.22H527.499V116.165Z" fill="#FBF8F8"/>
<path d="M624.729 99.5558L627.687 158.711H639.973L642.703 99.5558H624.729ZM642.248 166.788H625.071V182.714H642.248V166.788Z" fill="#FBF8F8"/>
<path d="M688.731 117.041C689.283 117.954 689.75 119.079 690.09 120.438C690.43 121.797 690.599 123.304 690.599 124.939V127.912C690.599 132.392 689.878 136.298 688.476 139.632C687.117 142.923 685.037 145.959 682.276 148.719C679.559 151.437 676.119 154.24 672 157.127L678.03 165.365C682.213 162.541 685.928 159.654 689.156 156.703C692.425 153.709 695.143 150.418 697.309 146.851C698.668 147.594 699.814 148.592 700.791 149.823C702.022 151.522 703.445 153.688 705.037 156.278C706.672 158.826 708.519 161.756 710.558 165.026L718.881 159.59C716.715 155.981 714.804 152.86 713.106 150.248C711.449 147.594 709.921 145.301 708.519 143.369C706.651 140.778 704.061 139.207 700.791 138.698C701.852 135.194 702.405 131.436 702.405 127.402V124.854C702.405 122.986 702.192 121.117 701.81 119.249C701.47 117.338 700.727 115.427 699.602 113.559L688.731 117.041ZM734.932 177.68V113.134H723.467V177.68H734.932Z" fill="black"/>
<path d="M801.491 177.68V113.134H789.941V147.106C787.669 148.804 785.057 150.163 782.127 151.182C779.24 152.201 776.373 152.966 773.549 153.475C770.704 153.942 768.305 154.155 766.33 154.155H760.64C759.218 154.155 758.347 153.879 758.007 153.305C757.668 152.753 757.498 151.989 757.498 151.012V115.852H745.862V153.815C745.862 157.106 746.839 159.548 748.835 161.119C750.873 162.648 753.633 163.412 757.158 163.412H766.585C770.364 163.412 774.356 162.902 778.56 161.883C782.807 160.864 786.586 159.463 789.941 157.637V177.68H801.491Z" fill="black"/>
<path d="M871.156 113.134H859.521V134.366H850.773C850.306 130.863 849.202 127.742 847.461 125.024C845.699 122.264 843.384 120.098 840.497 118.569C837.609 116.998 834.212 116.191 830.305 116.191C825.995 116.191 822.279 117.189 819.179 119.164C816.122 121.096 813.744 123.729 812.045 127.062C810.347 130.353 809.498 134.069 809.498 138.188C809.498 142.265 810.304 145.98 811.961 149.314C813.659 152.605 816.058 155.238 819.179 157.212C822.279 159.144 825.995 160.1 830.305 160.1C833.978 160.1 837.206 159.399 839.987 157.976C842.811 156.575 845.104 154.622 846.866 152.116C848.671 149.569 849.924 146.723 850.603 143.539H859.521V177.68H871.156V113.134ZM839.732 138.188C839.732 140.354 839.393 142.413 838.713 144.388C838.034 146.32 836.972 147.912 835.571 149.144C834.212 150.333 832.45 150.927 830.305 150.927C828.267 150.927 826.526 150.333 825.124 149.144C823.766 147.912 822.704 146.32 821.982 144.388C821.303 142.413 820.963 140.354 820.963 138.188C820.963 135.937 821.303 133.835 821.982 131.903C822.704 129.992 823.766 128.421 825.124 127.232C826.526 126.001 828.267 125.364 830.305 125.364C832.45 125.364 834.212 126.001 835.571 127.232C836.972 128.421 838.034 129.992 838.713 131.903C839.393 133.835 839.732 135.937 839.732 138.188Z" fill="black"/>
<path d="M945.557 145.492C945.557 147.318 945.302 148.974 944.793 150.503C944.283 152.031 943.391 153.263 942.16 154.155H912.69V163.072H938.933C937.276 164.728 934.983 166.257 932.053 167.658C929.102 169.081 925.705 170.334 921.862 171.395C918.061 172.457 914.07 173.391 909.887 174.198L911.67 183.285C916.257 182.712 920.885 181.714 925.599 180.313C930.291 178.89 934.622 177.192 938.593 175.217C940.058 174.92 941.395 174.983 942.585 175.387C943.774 175.833 945.069 176.449 946.491 177.255C948.02 178.147 949.485 179.06 950.908 179.973C952.309 180.865 953.923 181.948 955.748 183.2L961.099 176.491C959.443 175.238 957.999 174.198 956.768 173.349C955.515 172.499 954.22 171.693 952.861 170.971C952.012 170.525 951.205 170.121 950.483 169.782C949.803 169.399 948.997 169.166 948.105 169.102C949.166 168.21 950.143 167.297 950.992 166.384C951.842 165.429 952.564 164.474 953.201 163.497C953.753 162.541 954.071 161.501 954.135 160.355C954.241 159.229 954.071 158.146 953.625 157.127C953.158 156.066 952.394 155.259 951.332 154.749C952.967 153.964 954.326 152.711 955.409 151.012C956.534 149.271 957.107 147.148 957.107 144.643V136.065H967.044V127.232H957.107V112.37H945.557V145.492ZM936.385 113.474H899.865V140.141C899.865 142.987 900.417 144.982 901.564 146.171C902.753 147.36 905.131 147.955 908.698 147.955H916.681C918.656 147.955 920.885 147.743 923.391 147.275C925.938 146.83 928.359 146.214 930.694 145.407C933.009 144.558 934.898 143.581 936.385 142.435V113.474ZM925.004 122.306V137.084C923.921 137.657 922.584 138.146 921.013 138.528C919.484 138.867 918.04 139.037 916.681 139.037H913.454C911.968 139.037 911.246 138.358 911.246 136.999V122.306H925.004Z" fill="black"/>
<path d="M1026.1 165.195C1026.38 162.541 1026.02 160.652 1025 159.505C1023.98 158.38 1022.28 157.807 1019.9 157.807H1007.16V153.136H1034V144.388H970.049V153.136H995.612V157.807H977.183V174.453C977.183 177.786 978.032 179.994 979.73 181.077C981.429 182.202 983.934 182.776 987.289 182.776H1020.24C1023.13 182.776 1024.68 181.693 1024.91 179.548L1026.1 165.195ZM979.476 115.597V124.175H1006.57C1002.6 126.383 998.16 128.166 993.234 129.525C988.308 130.842 982.491 132.052 975.824 133.177L977.437 142.01C981.726 141.394 985.845 140.693 989.752 139.887C993.701 139.037 997.311 138.082 1000.54 136.999C1001.66 136.617 1002.79 136.192 1003.94 135.725C1005.06 135.279 1006.16 134.791 1007.25 134.281C1008.27 134.451 1009.22 134.77 1010.13 135.216C1011.03 135.619 1012 136.022 1013.02 136.405C1014.83 137.211 1016.46 138.018 1017.95 138.867C1019.48 139.674 1021.39 140.736 1023.72 142.095L1028.22 134.536C1026.29 133.474 1024.42 132.498 1022.62 131.649C1020.86 130.757 1018.97 129.865 1016.93 129.016C1016.7 128.91 1016.53 128.846 1016.42 128.846C1018.9 126.935 1020.77 125.024 1022.03 123.156C1023.15 121.351 1023.38 119.652 1022.7 118.06C1022.07 116.425 1020.67 115.597 1018.46 115.597H1004.87C1005.04 115.045 1005.17 114.472 1005.29 113.898C1005.4 113.346 1005.49 112.773 1005.55 112.2C1005.59 111.138 1005.51 110.077 1005.29 109.057C1005.12 108.038 1004.87 107.019 1004.53 106L993.659 108.718C993.829 109.227 993.998 109.822 994.168 110.501C994.381 111.138 994.529 111.69 994.593 112.2C994.763 113.283 994.699 114.408 994.423 115.597H979.476ZM990.686 173.858C989.879 173.858 989.349 173.688 989.073 173.349C988.839 173.051 988.733 172.521 988.733 171.735V166.639H1014.38V173.858H990.686Z" fill="black"/>
<path d="M236.748 388.296V304H222.186V328.686H204.781V341.313H222.186V388.296H236.748ZM259.727 390.457V304H245.052V390.457H259.727ZM217.864 354.395C214.82 355.249 211.863 355.96 208.99 356.557C206.089 357.097 203.132 357.353 200.117 357.353H195.112C193.121 357.353 191.926 356.984 191.471 356.216C191.073 355.476 190.902 354.395 190.902 353.03V307.64H176V357.467C176 366.198 180.664 370.436 189.992 370.208L197.614 370.094C202.222 369.952 206.374 369.497 210.014 368.729C213.654 367.99 216.982 367.108 220.025 366.113L217.864 354.395Z" fill="#47D922"/>
<path d="M351.574 390.457V304H335.875V390.457H351.574ZM325.068 337.559C325.068 331.729 323.93 326.61 321.655 322.202C319.437 317.736 316.223 314.295 311.985 311.849C307.805 309.347 302.799 308.095 296.969 308.095C291.196 308.095 286.219 309.347 282.067 311.849C277.886 314.295 274.672 317.736 272.397 322.202C270.122 326.61 268.984 331.729 268.984 337.559C268.984 343.418 270.122 348.537 272.397 352.917C274.672 357.325 277.886 360.766 282.067 363.269C286.219 365.715 291.196 366.909 296.969 366.909C302.799 366.909 307.805 365.715 311.985 363.269C316.223 360.766 319.437 357.325 321.655 352.917C323.93 348.537 325.068 343.418 325.068 337.559ZM309.71 337.559C309.71 340.517 309.198 343.332 308.231 345.977C307.321 348.565 305.899 350.641 304.022 352.234C302.202 353.827 299.842 354.623 296.969 354.623C294.154 354.623 291.793 353.827 289.916 352.234C288.096 350.641 286.674 348.565 285.707 345.977C284.797 343.332 284.342 340.517 284.342 337.559C284.342 334.459 284.797 331.615 285.707 329.027C286.674 326.468 288.096 324.363 289.916 322.77C291.793 321.178 294.154 320.381 296.969 320.381C299.842 320.381 302.202 321.178 304.022 322.77C305.899 324.363 307.321 326.468 308.231 329.027C309.198 331.615 309.71 334.459 309.71 337.559Z" fill="#47D922"/>
<path d="M413.311 364.861V341.427H427.076V390.457H442.661V304H427.076V329.027H413.311V306.616H398.067V328.572H377.363V306.616H362.119V360.766C362.119 364.577 363.256 367.449 365.532 369.412C367.864 371.317 371.447 372.256 376.225 372.256H386.577C389.307 372.256 392.322 371.971 395.678 371.346C399.091 370.748 402.333 369.924 405.461 368.843C408.647 367.705 411.263 366.397 413.311 364.861ZM386.236 360.083H380.32C378.33 360.083 377.363 359.145 377.363 357.239V340.744H398.067V357.353C396.304 358.263 394.37 358.946 392.265 359.401C390.132 359.856 388.113 360.083 386.236 360.083Z" fill="#47D922"/>
<rect x="39.6898" y="286.69" width="113.458" height="116.226" fill="#47D922"/>
<path d="M66.1233 310.79H85.7859L110.217 343.031V310.79H125.747V375H105.585L81.5173 340.852V375H66.1233V310.79Z" fill="#FBF8F8"/>
</svg>
