<svg width="1075" height="525" viewBox="0 0 1075 525" fill="none" xmlns="http://www.w3.org/2000/svg">
<rect width="1075" height="525" rx="39" fill="#F9AB52"/>
<rect x="58" y="305" width="131" height="129" rx="33" fill="#F1D900"/>
<path d="M94.4569 379.594C103.191 381.659 110.852 387.203 115.755 395.007L87.6702 413.428L94.4569 379.594Z" fill="#341B1C"/>
<ellipse cx="124" cy="364.992" rx="52" ry="36.9923" fill="#341B1C"/>
<path d="M85.0639 357.758C84.8912 357.487 84.7309 357.117 84.5829 356.648C84.4349 356.179 84.3609 355.686 84.3609 355.168C84.3609 354.206 84.5705 353.515 84.9899 353.096C85.4339 352.677 86.0012 352.467 86.6919 352.467H102.824C102.997 352.738 103.157 353.108 103.305 353.577C103.453 354.046 103.527 354.539 103.527 355.057C103.527 356.019 103.305 356.71 102.861 357.129C102.442 357.548 101.887 357.758 101.196 357.758H97.0889V374.852C96.8175 374.926 96.3859 375 95.7939 375.074C95.2265 375.148 94.6592 375.185 94.0919 375.185C93.5245 375.185 93.0189 375.136 92.5749 375.037C92.1555 374.963 91.7979 374.815 91.5019 374.593C91.2059 374.371 90.9839 374.063 90.8359 373.668C90.6879 373.273 90.6139 372.755 90.6139 372.114V357.758H85.0639ZM108.841 353.244C109.26 352.997 109.889 352.763 110.728 352.541C111.591 352.319 112.455 352.208 113.318 352.208C114.551 352.208 115.637 352.393 116.574 352.763C117.536 353.108 118.153 353.663 118.424 354.428C118.868 355.711 119.349 357.203 119.867 358.905C120.385 360.607 120.903 362.371 121.421 364.196C121.939 365.997 122.445 367.785 122.938 369.561C123.431 371.312 123.863 372.866 124.233 374.223C123.937 374.568 123.493 374.84 122.901 375.037C122.309 375.259 121.606 375.37 120.792 375.37C120.2 375.37 119.694 375.321 119.275 375.222C118.88 375.123 118.547 374.975 118.276 374.778C118.029 374.581 117.82 374.322 117.647 374.001C117.499 373.68 117.363 373.31 117.24 372.891L116.574 370.338H109.877C109.68 371.078 109.482 371.843 109.285 372.632C109.088 373.421 108.89 374.186 108.693 374.926C108.348 375.049 107.978 375.148 107.583 375.222C107.213 375.321 106.757 375.37 106.214 375.37C104.956 375.37 104.019 375.16 103.402 374.741C102.81 374.297 102.514 373.693 102.514 372.928C102.514 372.583 102.563 372.237 102.662 371.892C102.761 371.547 102.872 371.14 102.995 370.671C103.168 370.005 103.402 369.179 103.698 368.192C104.019 367.205 104.364 366.145 104.734 365.01C105.104 363.851 105.499 362.667 105.918 361.458C106.337 360.249 106.732 359.115 107.102 358.054C107.472 356.969 107.805 356.007 108.101 355.168C108.422 354.329 108.668 353.688 108.841 353.244ZM113.281 358.017C112.936 359.053 112.541 360.212 112.097 361.495C111.678 362.753 111.295 364.036 110.95 365.343H115.538C115.193 364.011 114.835 362.716 114.465 361.458C114.12 360.175 113.799 359.028 113.503 358.017H113.281ZM129.596 375.111C128.536 375.111 127.697 374.803 127.08 374.186C126.464 373.569 126.155 372.731 126.155 371.67V352.541C126.427 352.492 126.858 352.43 127.45 352.356C128.042 352.257 128.61 352.208 129.152 352.208C129.72 352.208 130.213 352.257 130.632 352.356C131.076 352.43 131.446 352.578 131.742 352.8C132.038 353.022 132.26 353.33 132.408 353.725C132.556 354.12 132.63 354.638 132.63 355.279V369.894H141.103C141.276 370.165 141.436 370.535 141.584 371.004C141.732 371.448 141.806 371.917 141.806 372.41C141.806 373.397 141.597 374.1 141.177 374.519C140.758 374.914 140.203 375.111 139.512 375.111H129.596ZM150.527 366.675V374.852C150.256 374.926 149.824 375 149.232 375.074C148.64 375.148 148.06 375.185 147.493 375.185C146.926 375.185 146.42 375.136 145.976 375.037C145.557 374.963 145.199 374.815 144.903 374.593C144.607 374.371 144.385 374.063 144.237 373.668C144.089 373.273 144.015 372.755 144.015 372.114V352.578C144.286 352.529 144.718 352.467 145.31 352.393C145.902 352.294 146.469 352.245 147.012 352.245C147.579 352.245 148.073 352.294 148.492 352.393C148.936 352.467 149.306 352.615 149.602 352.837C149.898 353.059 150.12 353.367 150.268 353.762C150.416 354.157 150.49 354.675 150.49 355.316V361.199L158.186 352.356C159.863 352.356 161.06 352.677 161.775 353.318C162.515 353.935 162.885 354.675 162.885 355.538C162.885 356.179 162.725 356.784 162.404 357.351C162.083 357.918 161.565 358.56 160.85 359.275L156.225 363.9C156.842 364.591 157.483 365.294 158.149 366.009C158.815 366.724 159.469 367.44 160.11 368.155C160.751 368.846 161.368 369.512 161.96 370.153C162.577 370.794 163.132 371.374 163.625 371.892C163.625 372.435 163.526 372.916 163.329 373.335C163.132 373.754 162.86 374.112 162.515 374.408C162.194 374.704 161.824 374.926 161.405 375.074C160.986 375.222 160.542 375.296 160.073 375.296C159.062 375.296 158.235 375.049 157.594 374.556C156.953 374.038 156.336 373.434 155.744 372.743L150.527 366.675Z" fill="white"/>
<path d="M50 87.6579V180.224H67.5267V126.342L87.484 171.934H99.2537L119.211 126.204V180.224H136.738V87.6579H119.083L93.4968 148.033L67.7825 87.6579H50Z" fill="#FBF8F8"/>
<path d="M216.326 165.303H172.318L214.151 102.717V87.6579H154.919V102.717H194.066L152.488 165.303V180.224H216.326V165.303Z" fill="#FBF8F8"/>
<path d="M300.032 188.375V86H283.657V117.5H269.968V133.112H283.657V188.375H300.032ZM241.183 93.5987C241.951 95.0839 242.527 96.9145 242.974 99.125C243.486 101.336 243.742 103.788 243.742 106.447C243.742 113.839 243.038 120.401 241.695 126.204C240.416 132.007 238.273 137.602 235.299 142.921C232.292 148.171 228.198 153.766 223.017 159.638L234.403 170.553C238.913 165.683 242.783 160.847 246.045 156.046C249.371 151.28 252.09 146.237 254.232 140.987C255.928 141.539 257.335 143.059 258.454 145.546C259.893 148.793 261.429 152.247 263.06 155.908C264.659 159.5 266.578 164.128 268.817 169.724L281.226 162.125C279.179 156.979 277.26 152.281 275.469 148.033C273.678 143.715 271.919 139.674 270.224 135.875C268.337 131.834 265.906 129.105 262.932 127.724C261.716 127.378 260.277 127.171 258.582 127.171C259.861 121.023 260.501 114.046 260.501 106.309C260.501 103.27 260.245 100.196 259.734 97.0526C259.222 93.9441 258.134 90.8355 256.535 87.7961L241.183 93.5987ZM323.827 191V86H307.324V191H323.827Z" fill="#FBF8F8"/>
<path d="M352.532 104.928H379.654V90.4211H335.773V150.934C335.773 156.288 337.084 160.191 339.739 162.678C342.362 165.164 346.295 166.408 351.509 166.408C357.138 166.408 362.031 166.235 366.221 165.855C370.379 165.406 374.217 164.681 377.735 163.645C381.221 162.643 384.643 161.365 387.969 159.776V188.375H404.345V138.224H414.579V191H431.082V86H414.579V122.888H404.345V86H387.969V144.303C384.643 146.168 381.381 147.549 378.246 148.447C375.08 149.38 371.786 150.036 368.396 150.382C365.069 150.658 361.295 150.796 357.138 150.796C354.995 150.796 353.684 150.347 353.172 149.414C352.724 148.516 352.532 147.204 352.532 145.546V104.928Z" fill="#FBF8F8"/>
<path d="M470.278 128.138V103.27H524.265V88.6251H452.751V131.454C452.751 137.464 454.286 141.54 457.357 143.75C460.427 145.961 464.841 147.135 470.662 147.204H480.385V165.165H441.109V179.533H537.442V165.165H497.911V146.928C503.188 146.651 508.402 146.099 513.519 145.27C518.636 144.441 523.146 143.301 527.08 141.816L524.393 128.415C518.508 129.796 512.272 130.867 505.715 131.592C499.222 132.352 493.338 132.697 488.06 132.697H474.5C472.709 132.697 471.557 132.283 471.046 131.454C470.534 130.625 470.278 129.52 470.278 128.138Z" fill="#FBF8F8"/>
<path d="M622.841 179.579V175.532H670.06C672.911 175.532 674.475 174.152 674.72 171.362L676.315 159.71C676.56 157.993 676.498 156.368 676.192 154.805C675.855 153.272 675.027 152.045 673.739 151.125C672.42 150.144 670.305 149.653 667.361 149.653H648.842V145.851H687.353V133.587H595V145.851H632.284V149.653H605.916V161.06H659.88V164.984H605.916V181.909C605.916 185.497 606.682 187.98 608.246 189.391C609.779 190.771 612.354 191.476 615.973 191.476H658.776C661.873 191.476 665.031 191.353 668.22 191.108C671.409 190.863 675.211 190.004 679.626 188.532L676.682 177.739C673.156 178.782 669.937 179.365 666.993 179.456C664.05 179.518 661.168 179.579 658.408 179.579H622.841ZM669.446 107.831C669.446 103.17 668.097 99.2458 665.399 96.057C662.762 92.8069 659.267 90.2926 654.851 88.5756C650.497 86.8585 645.653 86 640.256 86C634.921 86 630.016 86.8585 625.539 88.5756C621.124 90.2926 617.567 92.8069 614.869 96.057C612.232 99.2458 610.944 103.17 610.944 107.831C610.944 112.492 612.232 116.478 614.869 119.728C617.567 122.917 621.124 125.369 625.539 127.087C630.016 128.742 634.921 129.539 640.256 129.539C645.561 129.539 650.436 128.681 654.851 126.964C659.267 125.247 662.762 122.794 665.399 119.605C668.097 116.416 669.446 112.492 669.446 107.831ZM652.644 107.831C652.644 110.959 651.479 113.289 649.21 114.822C646.91 116.386 643.936 117.152 640.256 117.152C636.577 117.152 633.511 116.386 631.058 114.822C628.666 113.289 627.501 110.959 627.501 107.831C627.501 104.826 628.666 102.527 631.058 100.963C633.511 99.3378 636.577 98.5099 640.256 98.5099C643.936 98.5099 646.91 99.3378 649.21 100.963C651.479 102.527 652.644 104.826 652.644 107.831Z" fill="black"/>
<path d="M768.63 152.965C769.366 149.47 770.041 145.545 770.715 141.191C771.359 136.868 771.942 132.422 772.432 127.823C772.923 123.254 773.321 118.839 773.659 114.577C773.965 110.345 774.149 106.605 774.149 103.416C774.211 99.9818 773.352 97.6208 771.574 96.3024C769.857 95.0146 767.526 94.3401 764.583 94.3401H703.873V107.709H753.913C755.047 107.709 755.875 107.923 756.366 108.322C756.856 108.751 757.102 109.671 757.102 111.143C757.01 118.747 756.642 125.676 755.998 131.87C755.323 138.094 754.465 144.502 753.422 151.125L768.63 152.965ZM721.166 132.115V161.305H693.08V174.183H785.555V161.305H737.969V132.115H721.166Z" fill="black"/>
<path d="M920.471 123.775H905.999V90.9059H889.196V184.117H905.999V137.144H920.471V123.775ZM834.496 167.805C843.725 162.409 851.36 156.368 857.431 149.653C863.563 142.969 868.254 135.917 871.535 128.558C874.785 121.2 876.747 113.902 877.422 106.605C878.066 98.7553 875.092 94.8306 868.469 94.8306H825.052V107.831H857.676C858.718 107.831 859.424 108.138 859.761 108.69C860.068 109.272 860.16 110.131 860.006 111.265C858.688 119.942 855.1 127.822 849.213 134.936C843.388 141.988 835.6 148.672 825.788 155.05L834.496 167.805Z" fill="black"/>
<path d="M1017.78 135.917H925.301V148.795H1017.78V135.917ZM935.48 155.663V177.862C935.48 181.94 936.615 185.037 938.914 187.183C941.183 189.299 944.464 190.372 948.726 190.372H982.331C988.218 190.372 993.185 189.943 997.294 189.146C1001.37 188.318 1005.42 187.214 1009.44 185.834L1006 173.57C998.214 176.176 989.966 177.494 981.227 177.494H955.84C953.448 177.494 952.283 176.298 952.283 173.938V155.663H935.48ZM936.584 90.6607V116.048C936.584 120.157 937.719 123.009 940.018 124.634C942.379 126.289 945.691 127.087 949.953 127.087H981.227C985.213 127.087 988.647 126.933 991.53 126.596C994.381 126.289 997.049 125.799 999.502 125.124C1001.95 124.48 1004.47 123.653 1007.11 122.671L1003.67 110.775C999.747 112.001 996.068 112.982 992.633 113.718C989.199 114.393 985.213 114.699 980.737 114.699H957.066C954.613 114.699 953.387 113.565 953.387 111.265V90.6607H936.584Z" fill="black"/>
<path d="M224.846 402.117C238.863 394.143 249.702 385.297 257.365 375.578C265.09 365.798 269.388 354.242 270.323 340.941C270.977 332.968 267.955 328.981 261.227 328.981H216V342.187H250.263C251.571 342.187 252.319 342.561 252.506 343.309C252.755 344.056 252.786 344.897 252.63 345.801C252.381 347.233 252.07 348.604 251.758 349.912C251.509 351.158 251.166 352.404 250.761 353.65H217.246V366.857H244.033C240.856 371.342 236.963 375.454 232.322 379.191C227.743 382.867 222.603 386.511 216.872 390.156L224.846 402.117ZM312.933 358.384H298.231V324.994H281.162V419.684H298.231V371.965H312.933V358.384Z" fill="#341B1C"/>
<path d="M329.302 402.117C343.319 394.143 354.158 385.297 361.821 375.578C369.546 365.798 373.844 354.242 374.778 340.941C375.433 332.968 372.411 328.981 365.683 328.981H320.456V342.187H354.719C356.027 342.187 356.775 342.561 356.962 343.309C357.211 344.056 357.242 344.897 357.086 345.801C356.837 347.233 356.526 348.604 356.214 349.912C355.965 351.158 355.622 352.404 355.217 353.65H321.702V366.857H348.489C345.312 371.342 341.419 375.454 336.778 379.191C332.199 382.867 327.059 386.511 321.328 390.156L329.302 402.117ZM417.389 358.384H402.687V324.994H385.618V419.684H402.687V371.965H417.389V358.384Z" fill="#341B1C"/>
<path d="M503.406 353.525C503.406 346.891 501.817 341.409 498.671 337.079C495.494 332.781 491.258 329.572 485.963 327.485C480.73 325.336 474.936 324.246 468.644 324.246C462.228 324.246 456.372 325.336 451.077 327.485C445.844 329.572 441.639 332.781 438.493 337.079C435.316 341.409 433.758 346.891 433.758 353.525C433.758 359.194 434.911 363.991 437.247 367.978C439.552 371.965 442.76 375.142 446.84 377.447C450.89 379.69 455.5 381.247 460.67 382.057V396.385H422.42V409.343H516.239V396.385H477.615V381.933C482.599 381.029 486.99 379.441 490.822 377.198C494.715 374.893 497.799 371.778 500.042 367.854C502.284 363.867 503.406 359.101 503.406 353.525ZM486.212 353.525C486.212 358.447 484.592 362.309 481.353 365.112C478.113 367.854 473.877 369.224 468.644 369.224C463.411 369.224 459.113 367.854 455.811 365.112C452.572 362.309 450.952 358.447 450.952 353.525C450.952 348.635 452.572 344.773 455.811 341.938C459.05 339.041 463.318 337.577 468.644 337.577C473.877 337.577 478.113 339.041 481.353 341.938C484.592 344.773 486.212 348.635 486.212 353.525Z" fill="#341B1C"/>
<path d="M550.589 334.463H601.173V323H533.644V355.394C533.644 359.475 534.765 362.434 537.008 364.24C539.313 366.078 542.646 366.981 546.976 366.981H559.684V373.585H522.182V386.418H616V373.585H576.878V366.981C581.519 366.826 586.253 366.576 591.081 366.234C595.878 365.829 600.239 365.081 604.164 363.991L601.921 353.525C598.183 354.273 594.757 354.834 591.704 355.145C588.714 355.394 585.755 355.519 582.858 355.519C580.024 355.519 576.878 355.519 573.389 355.519H553.704C552.364 355.519 551.492 355.332 551.087 354.896C550.744 354.491 550.589 353.743 550.589 352.653V350.161H601.173V339.197H550.589V334.463ZM604.662 400.746C604.818 398.098 604.164 395.949 602.669 394.267C601.173 392.523 599.18 391.651 596.688 391.651H532.024V404.858H584.353C585.412 404.858 586.16 405.107 586.596 405.605C587.001 406.104 587.219 406.913 587.219 407.972V427.284H603.167L604.662 400.746Z" fill="#341B1C"/>
<path d="M769.463 359.674H753.316V323H734.568V427H753.316V374.589H769.463V359.674ZM673.537 408.8C683.834 402.779 692.353 396.039 699.126 388.547C705.968 381.089 711.203 373.221 714.863 365.011C718.489 356.8 720.679 348.658 721.432 340.516C722.15 331.758 718.832 327.379 711.442 327.379H663V341.884H699.4C700.563 341.884 701.35 342.226 701.726 342.842C702.068 343.492 702.171 344.45 702 345.716C700.529 355.397 696.526 364.189 689.958 372.126C683.458 379.995 674.768 387.453 663.821 394.568L673.537 408.8Z" fill="#FBF8F8"/>
<path d="M874.746 427V323H855.862V427H874.746ZM842.862 363.368C842.862 356.355 841.494 350.197 838.757 344.895C836.088 339.524 832.223 335.384 827.125 332.442C822.096 329.432 816.075 327.926 809.062 327.926C802.117 327.926 796.13 329.432 791.136 332.442C786.107 335.384 782.241 339.524 779.504 344.895C776.767 350.197 775.399 356.355 775.399 363.368C775.399 370.416 776.767 376.574 779.504 381.842C782.241 387.145 786.107 391.284 791.136 394.295C796.13 397.237 802.117 398.674 809.062 398.674C816.075 398.674 822.096 397.237 827.125 394.295C832.223 391.284 836.088 387.145 838.757 381.842C841.494 376.574 842.862 370.416 842.862 363.368ZM824.388 363.368C824.388 366.926 823.773 370.313 822.609 373.495C821.515 376.608 819.804 379.105 817.546 381.021C815.357 382.937 812.517 383.895 809.062 383.895C805.675 383.895 802.836 382.937 800.578 381.021C798.388 379.105 796.678 376.608 795.515 373.495C794.42 370.313 793.873 366.926 793.873 363.368C793.873 359.639 794.42 356.218 795.515 353.105C796.678 350.026 798.388 347.495 800.578 345.579C802.836 343.663 805.675 342.705 809.062 342.705C812.517 342.705 815.357 343.663 817.546 345.579C819.804 347.495 821.515 350.026 822.609 353.105C823.773 356.218 824.388 359.639 824.388 363.368Z" fill="#FBF8F8"/>
<path d="M897.01 325.6V368.568C897.01 374.521 898.652 378.558 901.936 380.747C905.221 382.937 909.942 384.032 916.168 384.032H933.821C938.747 384.032 943.742 383.895 948.873 383.621C953.971 383.279 958.897 382.732 963.652 381.979C968.476 381.158 972.752 380.132 976.515 378.832L973.642 365.558C967.347 366.926 960.915 367.987 954.347 368.705C947.847 369.458 941.758 369.8 936.01 369.8H920.273C918.358 369.8 917.126 369.39 916.579 368.568C916.031 367.747 915.758 366.653 915.758 365.284V340.105H973.505V325.6H897.01ZM884.558 401.411V415.642H987.6V401.411H884.558Z" fill="#FBF8F8"/>
</svg>
