<svg width="208" height="204" viewBox="0 0 208 204" fill="none" xmlns="http://www.w3.org/2000/svg">
<ellipse cx="104" cy="102" rx="104" ry="102" fill="#FD772F"/>
<path d="M104 171L99.1665 167.423C92.8038 162.713 37.0238 120.279 37.0238 81.5156C36.6629 70.6544 40.4232 60.0852 47.4828 52.1184C54.5423 44.1516 64.327 39.4352 74.6979 39C80.4225 39.0589 86.0543 40.5204 91.1426 43.2675C96.2309 46.0146 100.634 49.971 104 54.8199C107.366 49.971 111.769 46.0146 116.857 43.2675C121.946 40.5204 127.578 39.0589 133.302 39C143.673 39.4352 153.458 44.1516 160.517 52.1184C167.577 60.0852 171.337 70.6544 170.976 81.5156C170.976 120.279 115.196 162.713 108.833 167.423L104 171ZM74.6979 56.5322C68.7703 56.972 63.2477 59.8422 59.329 64.5198C55.4103 69.1973 53.412 75.3046 53.7678 81.5156C53.7678 104.401 86.4913 135.339 104 149.371C121.509 135.345 154.232 104.401 154.232 81.5156C154.588 75.3046 152.59 69.1973 148.671 64.5198C144.752 59.8422 139.23 56.972 133.302 56.5322C127.375 56.972 121.852 59.8422 117.933 64.5198C114.015 69.1973 112.016 75.3046 112.372 81.5156H95.628C95.9838 75.3046 93.9855 69.1973 90.0668 64.5198C86.1481 59.8422 80.6255 56.972 74.6979 56.5322Z" fill="white"/>
</svg>
