<svg width="208" height="204" viewBox="0 0 208 204" fill="none" xmlns="http://www.w3.org/2000/svg">
<ellipse cx="104" cy="102" rx="104" ry="102" fill="#FD772F"/>
<rect x="38" y="37" width="131" height="129" rx="33" fill="#FAFAFA"/>
<path d="M74.4569 111.594C83.1909 113.659 90.8521 119.203 95.7552 127.007L67.6702 145.428L74.4569 111.594Z" fill="#FD772F"/>
<ellipse cx="104" cy="96.9923" rx="52" ry="36.9923" fill="#FD772F"/>
<path d="M65.0639 89.758C64.8912 89.4867 64.7309 89.1167 64.5829 88.648C64.4349 88.1793 64.3609 87.686 64.3609 87.168C64.3609 86.206 64.5705 85.5153 64.9899 85.096C65.4339 84.6767 66.0012 84.467 66.6919 84.467H82.8239C82.9965 84.7383 83.1569 85.1083 83.3049 85.577C83.4529 86.0457 83.5269 86.539 83.5269 87.057C83.5269 88.019 83.3049 88.7097 82.8609 89.129C82.4415 89.5483 81.8865 89.758 81.1959 89.758H77.0889V106.852C76.8175 106.926 76.3859 107 75.7939 107.074C75.2265 107.148 74.6592 107.185 74.0919 107.185C73.5245 107.185 73.0189 107.136 72.5749 107.037C72.1555 106.963 71.7979 106.815 71.5019 106.593C71.2059 106.371 70.9839 106.063 70.8359 105.668C70.6879 105.273 70.6139 104.755 70.6139 104.114V89.758H65.0639ZM88.841 85.244C89.2603 84.9973 89.8893 84.763 90.728 84.541C91.5913 84.319 92.4546 84.208 93.318 84.208C94.5513 84.208 95.6366 84.393 96.574 84.763C97.536 85.1083 98.1526 85.6633 98.424 86.428C98.868 87.7107 99.349 89.203 99.867 90.905C100.385 92.607 100.903 94.3707 101.421 96.196C101.939 97.9967 102.445 99.785 102.938 101.561C103.431 103.312 103.863 104.866 104.233 106.223C103.937 106.568 103.493 106.84 102.901 107.037C102.309 107.259 101.606 107.37 100.792 107.37C100.2 107.37 99.6943 107.321 99.275 107.222C98.8803 107.123 98.5473 106.975 98.276 106.778C98.0293 106.581 97.8196 106.322 97.647 106.001C97.499 105.68 97.3633 105.31 97.24 104.891L96.574 102.338H89.877C89.6796 103.078 89.4823 103.843 89.285 104.632C89.0876 105.421 88.8903 106.186 88.693 106.926C88.3476 107.049 87.9776 107.148 87.583 107.222C87.213 107.321 86.7566 107.37 86.214 107.37C84.956 107.37 84.0186 107.16 83.402 106.741C82.81 106.297 82.514 105.693 82.514 104.928C82.514 104.583 82.5633 104.237 82.662 103.892C82.7606 103.547 82.8716 103.14 82.995 102.671C83.1676 102.005 83.402 101.179 83.698 100.192C84.0186 99.2053 84.364 98.1447 84.734 97.01C85.104 95.8507 85.4986 94.6667 85.918 93.458C86.3373 92.2493 86.732 91.1147 87.102 90.054C87.472 88.9687 87.805 88.0067 88.101 87.168C88.4216 86.3293 88.6683 85.688 88.841 85.244ZM93.281 90.017C92.9356 91.053 92.541 92.2123 92.097 93.495C91.6776 94.753 91.2953 96.0357 90.95 97.343H95.538C95.1926 96.011 94.835 94.716 94.465 93.458C94.1196 92.1753 93.799 91.0283 93.503 90.017H93.281ZM109.596 107.111C108.536 107.111 107.697 106.803 107.08 106.186C106.464 105.569 106.155 104.731 106.155 103.67V84.541C106.427 84.4917 106.858 84.43 107.45 84.356C108.042 84.2573 108.61 84.208 109.152 84.208C109.72 84.208 110.213 84.2573 110.632 84.356C111.076 84.43 111.446 84.578 111.742 84.8C112.038 85.022 112.26 85.3303 112.408 85.725C112.556 86.1197 112.63 86.6377 112.63 87.279V101.894H121.103C121.276 102.165 121.436 102.535 121.584 103.004C121.732 103.448 121.806 103.917 121.806 104.41C121.806 105.397 121.597 106.1 121.177 106.519C120.758 106.914 120.203 107.111 119.512 107.111H109.596ZM130.527 98.675V106.852C130.256 106.926 129.824 107 129.232 107.074C128.64 107.148 128.06 107.185 127.493 107.185C126.926 107.185 126.42 107.136 125.976 107.037C125.557 106.963 125.199 106.815 124.903 106.593C124.607 106.371 124.385 106.063 124.237 105.668C124.089 105.273 124.015 104.755 124.015 104.114V84.578C124.286 84.5287 124.718 84.467 125.31 84.393C125.902 84.2943 126.469 84.245 127.012 84.245C127.579 84.245 128.073 84.2943 128.492 84.393C128.936 84.467 129.306 84.615 129.602 84.837C129.898 85.059 130.12 85.3673 130.268 85.762C130.416 86.1567 130.49 86.6747 130.49 87.316V93.199L138.186 84.356C139.863 84.356 141.06 84.6767 141.775 85.318C142.515 85.9347 142.885 86.6747 142.885 87.538C142.885 88.1793 142.725 88.7837 142.404 89.351C142.083 89.9183 141.565 90.5597 140.85 91.275L136.225 95.9C136.842 96.5907 137.483 97.2937 138.149 98.009C138.815 98.7243 139.469 99.4397 140.11 100.155C140.751 100.846 141.368 101.512 141.96 102.153C142.577 102.794 143.132 103.374 143.625 103.892C143.625 104.435 143.526 104.916 143.329 105.335C143.132 105.754 142.86 106.112 142.515 106.408C142.194 106.704 141.824 106.926 141.405 107.074C140.986 107.222 140.542 107.296 140.073 107.296C139.062 107.296 138.235 107.049 137.594 106.556C136.953 106.038 136.336 105.434 135.744 104.743L130.527 98.675Z" fill="white"/>
</svg>
