<svg width="266" height="96" viewBox="0 0 266 96" fill="none" xmlns="http://www.w3.org/2000/svg">
<path d="M9.5625 8.4375C9.5625 7.6875 9.35938 7.05729 8.95833 6.54167C8.55208 6.01563 8.01042 5.61979 7.33333 5.35417C6.66667 5.09375 5.92708 4.95833 5.125 4.95833C4.33333 4.95833 3.60417 5.09375 2.9375 5.35417C2.27083 5.60417 1.72917 5.99479 1.3125 6.52083C0.906251 7.03646 0.708333 7.67708 0.708333 8.4375C0.708333 9.21875 0.916667 9.86979 1.33333 10.3958C1.75 10.9115 2.29167 11.3021 2.95833 11.5625C3.63542 11.8281 4.35938 11.9583 5.125 11.9583C5.88542 11.9583 6.60417 11.8281 7.27083 11.5625C7.94792 11.2865 8.5 10.8906 8.91667 10.375C9.34375 9.84896 9.5625 9.20313 9.5625 8.4375ZM9.77083 7.25H11.8958V8.97917H9.77083V11.125H11.8958V13.5625H14.7292V1.22917H11.8958V5.08333H9.77083V7.25ZM10.5417 16.125H6.27083C6.0625 16.125 5.91667 16.0833 5.83333 16C5.76042 15.9167 5.72917 15.7813 5.72917 15.6042V12.9583H2.875V16.2292C2.875 16.9219 3.07292 17.4427 3.47917 17.7917C3.88021 18.1354 4.44271 18.3125 5.16667 18.3125H10.625C11.625 18.3125 12.5 18.2396 13.25 18.1042C14.0104 17.9635 14.7344 17.776 15.4167 17.5417L14.8333 15.4792C14.1667 15.7292 13.4688 15.8958 12.75 15.9792C12.0417 16.0729 11.3021 16.125 10.5417 16.125ZM0 2.66667V4.66667H10.2708V2.66667H6.35417C6.52083 2.32292 6.61458 1.9375 6.64583 1.52083C6.65625 1.26042 6.64583 1 6.60417 0.75C6.5625 0.5 6.48958 0.25 6.39583 0L3.66667 0.75C3.70833 0.864584 3.75 0.979167 3.79167 1.10417C3.83333 1.22917 3.85417 1.35417 3.85417 1.47917C3.92187 1.89583 3.89583 2.29167 3.77083 2.66667H0ZM6.89583 8.4375C6.89583 8.95313 6.71354 9.32292 6.35417 9.54167C6.00521 9.75 5.59375 9.85417 5.125 9.85417C4.67708 9.85417 4.27083 9.75 3.89583 9.54167C3.53125 9.32292 3.35417 8.95313 3.35417 8.4375C3.35417 7.9375 3.53125 7.58333 3.89583 7.375C4.27083 7.15625 4.67708 7.04167 5.125 7.04167C5.59375 7.04167 6.00521 7.15625 6.35417 7.375C6.71354 7.58333 6.89583 7.9375 6.89583 8.4375Z" fill="#F28F1D"/>
<path d="M30.8479 14.75C30.8479 14.2396 30.7645 13.7656 30.5979 13.3334C30.4312 12.8906 30.1916 12.4948 29.8895 12.1459C30.3479 11.8854 30.7124 11.5417 30.9937 11.125C31.2697 10.6979 31.4104 10.1354 31.4104 9.43752V1.22919H28.577V2.56252H25.8895V1.50002H17.1395V8.12502C17.1395 8.82294 17.2749 9.31252 17.5562 9.60419C17.8479 9.89585 18.4312 10.0417 19.3062 10.0417H21.2229C21.7229 10.0417 22.2645 9.9896 22.8479 9.87502C23.4312 9.76565 23.9833 9.60419 24.5145 9.39585C25.0562 9.18752 25.5145 8.95315 25.8895 8.68752V8.52085H28.577V9.54169C28.577 9.78127 28.5354 10.0313 28.452 10.2917C28.3791 10.5417 28.2489 10.7604 28.0562 10.9375C27.3895 10.6771 26.6656 10.5417 25.8895 10.5417C24.9833 10.5417 24.1499 10.7188 23.3895 11.0625C22.6395 11.3959 22.0354 11.875 21.577 12.5C21.1187 13.125 20.8895 13.875 20.8895 14.75C20.8895 15.599 21.1187 16.3334 21.577 16.9584C22.0354 17.5834 22.6395 18.0625 23.3895 18.3959C24.1499 18.7292 24.9833 18.8959 25.8895 18.8959C26.7906 18.8959 27.6187 18.7188 28.3687 18.375C29.1187 18.0417 29.7124 17.5625 30.1604 16.9375C30.6187 16.3229 30.8479 15.599 30.8479 14.75ZM27.9937 14.75C27.9937 15.375 27.7958 15.8594 27.4104 16.2084C27.0197 16.5677 26.5145 16.75 25.8895 16.75C25.2489 16.75 24.7281 16.5677 24.327 16.2084C23.9364 15.8438 23.7437 15.3646 23.7437 14.75C23.7437 14.125 23.9364 13.6354 24.327 13.2709C24.7281 12.9115 25.2489 12.7292 25.8895 12.7292C26.5145 12.7292 27.0197 12.9115 27.4104 13.2709C27.7958 13.6354 27.9937 14.125 27.9937 14.75ZM23.077 3.66669V7.35419C22.8114 7.51044 22.5197 7.63544 22.202 7.72919C21.8947 7.81252 21.5666 7.85419 21.2229 7.85419H20.4729C20.0979 7.85419 19.9104 7.68231 19.9104 7.33335V3.66669H23.077ZM25.8895 4.75002H28.577V6.31252H25.8895V4.75002Z" fill="#F28F1D"/>
<path d="M43.0082 10.1875C43.0082 9.4271 42.8312 8.72919 42.4874 8.10419C42.1384 7.47919 41.6176 6.97919 40.9249 6.60419C40.227 6.22919 39.3728 6.04169 38.3624 6.04169C37.3884 6.04169 36.5551 6.22919 35.8624 6.60419C35.1801 6.97919 34.6541 7.47919 34.2791 8.10419C33.9145 8.71877 33.7374 9.41148 33.7374 10.1875C33.7374 10.9688 33.9249 11.6771 34.2999 12.3125C34.6749 12.9375 35.2009 13.4375 35.8832 13.8125C36.5759 14.1771 37.4041 14.3542 38.3624 14.3542C39.3312 14.3542 40.1645 14.1667 40.8624 13.7917C41.5551 13.4167 42.0812 12.9167 42.4457 12.2917C42.8207 11.6563 43.0082 10.9531 43.0082 10.1875ZM47.4874 1.41669H44.6541V17.25H47.4874V9.93752H49.9457V7.66669H47.4874V1.41669ZM33.1332 3.37502V5.56252H43.6124V3.37502H39.2582C39.4509 3.1146 39.5812 2.82294 39.6541 2.50002C39.7218 2.16669 39.7218 1.81252 39.6541 1.43752C39.6228 1.3021 39.5759 1.13544 39.5082 0.93752C39.4353 0.729187 39.3676 0.557312 39.2999 0.416687L36.6957 1.12502L36.9249 1.85419C37.102 2.38544 37.0395 2.89065 36.7374 3.37502H33.1332ZM40.2999 10.1875C40.2999 10.7604 40.1384 11.2292 39.8207 11.6042C39.5134 11.9688 39.0291 12.1459 38.3624 12.1459C37.7218 12.1459 37.2374 11.9688 36.9041 11.6042C36.5812 11.2292 36.4249 10.7604 36.4249 10.1875C36.4249 9.63544 36.5812 9.1771 36.9041 8.81252C37.2374 8.43752 37.7218 8.25002 38.3624 8.25002C39.0291 8.25002 39.5134 8.43752 39.8207 8.81252C40.1384 9.1771 40.2999 9.63544 40.2999 10.1875Z" fill="#F28F1D"/>
<path d="M63.4328 11.9583C63.5578 11.3646 63.6724 10.6979 63.787 9.95833C63.8963 9.22396 63.9953 8.46875 64.0786 7.6875C64.162 6.91146 64.2297 6.16146 64.287 5.4375C64.339 4.71875 64.3703 4.08333 64.3703 3.54167C64.3807 2.95833 64.2349 2.55729 63.9328 2.33333C63.6411 2.11458 63.2453 2 62.7453 2H52.4328V4.27083H60.9328C61.1255 4.27083 61.2661 4.30729 61.3495 4.375C61.4328 4.44792 61.4745 4.60417 61.4745 4.85417C61.4588 6.14583 61.3963 7.32292 61.287 8.375C61.1724 9.43229 61.0265 10.5208 60.8495 11.6458L63.4328 11.9583ZM55.3703 8.41667V13.375H50.5995V15.5625H66.3078V13.375H58.2245V8.41667H55.3703Z" fill="#F28F1D"/>
<path d="M82.0208 1.50002H73.2708V8.41669C73.2708 9.1146 73.4062 9.60419 73.6875 9.89585C73.9791 10.1875 74.5625 10.3334 75.4375 10.3334H77.3541C77.8541 10.3334 78.3958 10.2813 78.9791 10.1667C79.5625 10.0573 80.1146 9.89585 80.6458 9.68752C81.1875 9.47919 81.6458 9.24481 82.0208 8.97919V6.66669H84.7083V11.75H87.5416V1.22919H84.7083V4.50002H82.0208V1.50002ZM83.1458 11.3334H80.3333V12.4167C80.3333 12.9063 80.1719 13.4115 79.8541 13.9375C79.5312 14.4531 79 14.9323 78.25 15.375C77.5 15.8021 76.4844 16.1459 75.2083 16.3959L75.6666 18.5417C77.0104 18.3594 78.2083 18.0052 79.25 17.4792C80.3021 16.9636 81.151 16.3542 81.7916 15.6459C82.1094 15.6563 82.401 15.7188 82.6666 15.8334C82.9427 15.9584 83.2135 16.0938 83.4791 16.25C83.8958 16.4688 84.276 16.6927 84.625 16.9167C84.9844 17.1354 85.3594 17.375 85.75 17.625C86.151 17.875 86.6041 18.1667 87.1041 18.5L88.25 16.4584C87.6094 16.0521 86.9844 15.6667 86.375 15.2917C85.776 14.9167 85.1302 14.5521 84.4375 14.1875C84.1875 14.0625 83.9427 13.9688 83.7083 13.8959C83.4844 13.8281 83.2187 13.8073 82.9166 13.8334C83.0677 13.4063 83.1458 12.974 83.1458 12.5417V11.3334ZM79.2083 3.66669V7.66669C78.9427 7.80731 78.651 7.9271 78.3333 8.02085C78.026 8.10419 77.6979 8.14585 77.3541 8.14585H76.6041C76.2291 8.14585 76.0416 7.97919 76.0416 7.64585V3.66669H79.2083Z" fill="black"/>
<path d="M98.1812 2.89584C98.1812 2.63543 98.15 2.34897 98.0979 2.04168C98.0562 1.72397 97.9573 1.42709 97.8062 1.14584L95.0354 1.81251C95.0875 2.02084 95.1396 2.22397 95.1812 2.41668C95.2333 2.61459 95.2646 2.78126 95.2646 2.91668V3.93751C95.2646 4.53647 95.0823 5.16147 94.7229 5.81251C94.3739 6.45314 93.8271 7.06251 93.0771 7.64584C92.3375 8.21876 91.3739 8.68751 90.1812 9.06251L90.8062 11.3333C92.1083 11.0573 93.3062 10.5521 94.3896 9.81251C95.4833 9.07814 96.3531 8.25001 96.9937 7.33334C97.3375 7.33334 97.6448 7.38543 97.9104 7.47918C98.1708 7.56251 98.4364 7.71876 98.7021 7.93751C99.0042 8.18751 99.3739 8.51043 99.8062 8.89584C100.233 9.28647 100.686 9.70314 101.16 10.1458C101.629 10.5781 102.077 10.9948 102.494 11.3958L104.14 9.47918C103.723 9.09376 103.265 8.67709 102.765 8.22918C102.265 7.78647 101.775 7.35418 101.306 6.93751C100.848 6.52084 100.457 6.18751 100.14 5.93751C99.9 5.71876 99.6083 5.53647 99.2646 5.39584C98.9156 5.2448 98.5042 5.17709 98.0354 5.18751C98.0771 4.9948 98.1083 4.80209 98.1396 4.60418C98.1656 4.41147 98.1812 4.22397 98.1812 4.04168V2.89584ZM104.973 13.3333H89.2854V15.5208H104.973V13.3333Z" fill="black"/>
<path d="M111.633 13.9584C112.576 13.9584 113.529 13.8906 114.487 13.75C115.456 13.599 116.347 13.3542 117.154 13.0209L116.717 10.9792C115.909 11.2709 115.05 11.474 114.133 11.5834C113.217 11.6823 112.373 11.7292 111.612 11.7292H110.008C109.758 11.7292 109.602 11.6875 109.55 11.6042C109.493 11.5209 109.467 11.3542 109.467 11.1042V8.97919H111.675C112.243 8.97919 112.784 8.93231 113.3 8.83335C113.826 8.7396 114.347 8.57294 114.862 8.33335V2.08335H106.654V4.29169H112.05V6.75002H106.654V11.6459C106.654 12.4375 106.868 13.0209 107.3 13.3959C107.727 13.7709 108.368 13.9584 109.217 13.9584H111.633ZM115.592 8.52085H118.05V17.25H120.862V1.41669H118.05V6.29169H115.592V8.52085Z" fill="black"/>
<path d="M135.273 4.79169C135.273 3.90627 135.044 3.16148 134.585 2.56252C134.137 1.96877 133.544 1.52085 132.794 1.22919C132.054 0.93752 131.231 0.791687 130.314 0.791687C129.408 0.791687 128.585 0.93752 127.835 1.22919C127.085 1.52085 126.481 1.96877 126.023 2.56252C125.564 3.16148 125.335 3.90627 125.335 4.79169C125.335 5.66669 125.564 6.40627 126.023 7.00002C126.481 7.58335 127.085 8.02085 127.835 8.31252C128.585 8.60419 129.408 8.75002 130.314 8.75002C131.215 8.75002 132.044 8.60419 132.794 8.31252C133.544 8.02085 134.137 7.58335 134.585 7.00002C135.044 6.40627 135.273 5.66669 135.273 4.79169ZM132.189 14.4792V11.7709H138.314V9.62502H122.648V11.7709H129.377V14.4792H132.189ZM124.356 12.8959V16.3959C124.356 16.9896 124.554 17.4584 124.96 17.7917C125.361 18.1354 125.924 18.3125 126.648 18.3125H132.356C133.356 18.3125 134.2 18.2188 134.898 18.0417C135.59 17.875 136.278 17.6719 136.96 17.4375L136.377 15.4375C135.71 15.6459 135.028 15.8125 134.335 15.9375C133.653 16.0625 132.924 16.125 132.148 16.125H127.856C127.45 16.125 127.252 15.9219 127.252 15.5209V12.8959H124.356ZM132.439 4.79169C132.439 5.3646 132.236 5.82294 131.835 6.16669C131.445 6.50002 130.939 6.66669 130.314 6.66669C129.689 6.66669 129.169 6.50002 128.752 6.16669C128.335 5.82294 128.127 5.3646 128.127 4.79169C128.127 4.2396 128.335 3.78648 128.752 3.43752C129.169 3.09377 129.689 2.91669 130.314 2.91669C130.939 2.91669 131.445 3.09377 131.835 3.43752C132.236 3.78648 132.439 4.2396 132.439 4.79169Z" fill="black"/>
<path d="M150.74 17.8334V13.0625H153.885V17.8334H156.698V13.0625H160.323V10.8542H144.635V13.0625H147.927V17.8334H150.74ZM146.531 1.60419V7.14585C146.531 7.84377 146.766 8.34377 147.24 8.64585C147.708 8.93752 148.307 9.08335 149.031 9.08335H154.115C154.792 9.08335 155.375 9.06252 155.865 9.02085C156.349 8.96877 156.802 8.88544 157.219 8.77085C157.635 8.66148 158.062 8.52085 158.51 8.35419L157.927 6.20835C157.26 6.41669 156.635 6.58335 156.052 6.70835C155.469 6.83335 154.792 6.89585 154.031 6.89585H150.01C149.594 6.89585 149.385 6.70315 149.385 6.31252V1.60419H146.531Z" fill="#F28F1D"/>
<path d="M164.921 2.37502C165.056 2.59898 165.171 2.87502 165.254 3.20835C165.337 3.54169 165.379 3.91148 165.379 4.31252V5.04169C165.379 6.14065 165.202 7.09898 164.858 7.91669C164.525 8.72398 164.015 9.46877 163.337 10.1459C162.671 10.8125 161.827 11.5 160.817 12.2084L162.296 14.2292C163.322 13.5365 164.233 12.8281 165.025 12.1042C165.827 11.3698 166.494 10.5625 167.025 9.68752C167.358 9.86981 167.64 10.1146 167.879 10.4167C168.181 10.8334 168.53 11.3646 168.921 12C169.322 12.625 169.775 13.3438 170.275 14.1459L172.317 12.8125C171.785 11.9271 171.317 11.1615 170.9 10.5209C170.494 9.86981 170.119 9.30731 169.775 8.83335C169.317 8.19794 168.681 7.81252 167.879 7.68752C168.14 6.82815 168.275 5.90627 168.275 4.91669V4.29169C168.275 3.83335 168.223 3.37502 168.129 2.91669C168.046 2.44794 167.863 1.97919 167.587 1.52085L164.921 2.37502ZM176.254 17.25V1.41669H173.442V17.25H176.254Z" fill="#F28F1D"/>
<path d="M192.581 17.25V1.41669H189.748V9.75002C189.191 10.1667 188.55 10.5 187.831 10.75C187.123 11 186.42 11.1875 185.727 11.3125C185.029 11.4271 184.441 11.4792 183.956 11.4792H182.56C182.211 11.4792 181.998 11.4115 181.914 11.2709C181.831 11.1354 181.789 10.9479 181.789 10.7084V2.08335H178.935V11.3959C178.935 12.2031 179.175 12.8021 179.664 13.1875C180.164 13.5625 180.842 13.75 181.706 13.75H184.019C184.946 13.75 185.925 13.625 186.956 13.375C187.998 13.125 188.925 12.7813 189.748 12.3334V17.25H192.581Z" fill="#F28F1D"/>
<path d="M209.67 1.41669H206.816V6.62502H204.67C204.556 5.76565 204.285 5.00002 203.858 4.33335C203.425 3.65627 202.858 3.12502 202.149 2.75002C201.441 2.3646 200.608 2.16669 199.649 2.16669C198.592 2.16669 197.681 2.41148 196.92 2.89585C196.17 3.36981 195.587 4.01565 195.17 4.83335C194.754 5.64065 194.545 6.5521 194.545 7.56252C194.545 8.56252 194.743 9.47398 195.149 10.2917C195.566 11.099 196.155 11.7448 196.92 12.2292C197.681 12.7031 198.592 12.9375 199.649 12.9375C200.55 12.9375 201.342 12.7656 202.024 12.4167C202.717 12.0729 203.28 11.5938 203.712 10.9792C204.155 10.3542 204.462 9.65627 204.629 8.87502H206.816V17.25H209.67V1.41669ZM201.962 7.56252C201.962 8.09377 201.879 8.59898 201.712 9.08335C201.545 9.55731 201.285 9.94794 200.941 10.25C200.608 10.5417 200.175 10.6875 199.649 10.6875C199.149 10.6875 198.722 10.5417 198.379 10.25C198.045 9.94794 197.785 9.55731 197.608 9.08335C197.441 8.59898 197.358 8.09377 197.358 7.56252C197.358 7.01044 197.441 6.49481 197.608 6.02085C197.785 5.5521 198.045 5.16669 198.379 4.87502C198.722 4.57294 199.149 4.41669 199.649 4.41669C200.175 4.41669 200.608 4.57294 200.941 4.87502C201.285 5.16669 201.545 5.5521 201.712 6.02085C201.879 6.49481 201.962 7.01044 201.962 7.56252Z" fill="#F28F1D"/>
<path d="M220.632 14.9584C221.226 14.9584 221.887 14.9167 222.611 14.8334C223.346 14.7396 224.08 14.5938 224.82 14.3959C225.57 14.2031 226.241 13.9792 226.84 13.7292V18.25H229.632V10.2709H232.09V8.00002H229.632V2.41669H226.84V11.3959C226.382 11.6459 225.861 11.8646 225.278 12.0417C224.695 12.2084 224.101 12.349 223.507 12.4584C222.908 12.5573 222.351 12.625 221.84 12.6667C221.34 12.7084 220.913 12.7292 220.57 12.7292H219.361C219.153 12.7292 219.012 12.6875 218.945 12.6042C218.872 12.5104 218.84 12.3542 218.84 12.1459V9.97919H221.215C221.799 9.97919 222.346 9.93231 222.861 9.83335C223.372 9.7396 223.892 9.57294 224.424 9.33335V3.08335H216.007V5.29169H221.59V7.75002H216.007V12.625C216.007 13.4167 216.221 14.0104 216.653 14.3959C217.08 14.7709 217.721 14.9584 218.57 14.9584H220.632Z" fill="black"/>
<path d="M248.119 18.25V2.41669H245.244V18.25H248.119ZM243.265 8.56252C243.265 7.49481 243.057 6.55731 242.64 5.75002C242.234 4.93231 241.645 4.3021 240.869 3.85419C240.103 3.39585 239.187 3.16669 238.119 3.16669C237.062 3.16669 236.15 3.39585 235.39 3.85419C234.624 4.3021 234.036 4.93231 233.619 5.75002C233.202 6.55731 232.994 7.49481 232.994 8.56252C232.994 9.63544 233.202 10.5729 233.619 11.375C234.036 12.1823 234.624 12.8125 235.39 13.2709C236.15 13.7188 237.062 13.9375 238.119 13.9375C239.187 13.9375 240.103 13.7188 240.869 13.2709C241.645 12.8125 242.234 12.1823 242.64 11.375C243.057 10.5729 243.265 9.63544 243.265 8.56252ZM240.452 8.56252C240.452 9.10419 240.359 9.61981 240.182 10.1042C240.015 10.5781 239.755 10.9584 239.411 11.25C239.077 11.5417 238.645 11.6875 238.119 11.6875C237.603 11.6875 237.171 11.5417 236.827 11.25C236.494 10.9584 236.234 10.5781 236.057 10.1042C235.89 9.61981 235.807 9.10419 235.807 8.56252C235.807 7.99481 235.89 7.47398 236.057 7.00002C236.234 6.53127 236.494 6.14585 236.827 5.85419C237.171 5.56252 237.603 5.41669 238.119 5.41669C238.645 5.41669 239.077 5.56252 239.411 5.85419C239.755 6.14585 240.015 6.53127 240.182 7.00002C240.359 7.47398 240.452 7.99481 240.452 8.56252Z" fill="black"/>
<path d="M265.3 14.3542H249.613V16.5208H265.3V14.3542ZM263.529 4.95833V2.8125H251.134V4.95833H263.529ZM259.029 5.72917V8.39583C259.029 8.64583 259.014 8.88542 258.988 9.10417C258.972 9.32813 258.931 9.53646 258.863 9.72917H255.842C255.759 9.51042 255.701 9.30208 255.675 9.10417C255.66 8.91146 255.654 8.66667 255.654 8.375V5.72917H252.884V7.9375C252.884 8.35417 252.915 8.70313 252.988 8.97917C253.056 9.26042 253.144 9.51042 253.259 9.72917H251.071V11.8333H263.592V9.72917H261.404C261.665 9.24479 261.8 8.64063 261.8 7.91667V5.72917H259.029Z" fill="black"/>
<path d="M66.6979 29.5814V95.2481H54.2604V65.1648L33.6979 94.3939H33.5313L13.7188 67.0398V95.2481H1.71875V29.5814H1.80208L33.7813 74.9356L66.5313 29.5814H66.6979Z" fill="#F28F1D"/>
<path d="M96.1302 71.9356C96.1302 73.9356 96.7239 75.8523 97.9219 77.6856C99.1302 79.5085 100.734 80.9929 102.734 82.1439C104.734 83.2845 106.87 83.8523 109.151 83.8523C111.609 83.8523 113.865 83.2845 115.922 82.1439C117.99 80.9929 119.609 79.5085 120.776 77.6856C121.943 75.8523 122.526 73.9356 122.526 71.9356V32.1439H134.797V72.1856C134.797 76.7012 133.651 80.7793 131.359 84.4148C129.078 88.0398 125.984 90.8679 122.068 92.8939C118.151 94.9252 113.844 95.9356 109.151 95.9356C104.469 95.9356 100.182 94.9252 96.2969 92.8939C92.4062 90.8679 89.3281 88.0398 87.0677 84.4148C84.8177 80.7793 83.6927 76.7012 83.6927 72.1856V32.1439H96.1302V71.9356Z" fill="black"/>
<path d="M188.017 32.1439V44.1439H172.683V95.2481H160.246V44.1439H145.496V32.1439H188.017Z" fill="black"/>
<path d="M234.706 47.4148C229.217 44.3887 224.446 42.8731 220.394 42.8731C217.644 42.8731 215.508 43.4148 213.998 44.4981C212.482 45.5814 211.727 47.2064 211.727 49.3731C211.727 51.3731 212.821 53.1387 215.019 54.6648C217.227 56.1804 220.165 57.6179 223.831 58.9773C226.79 60.0762 229.321 61.3262 231.435 62.7273C233.56 64.1179 235.321 66.0398 236.727 68.4981C238.128 70.9564 238.831 74.0762 238.831 77.8523C238.831 81.1023 237.982 84.1179 236.29 86.8939C234.607 89.6596 232.133 91.8627 228.873 93.4981C225.623 95.1231 221.738 95.9356 217.227 95.9356C213.446 95.9356 209.696 95.3783 205.977 94.2689C202.269 93.1439 198.816 91.446 195.623 89.1648L201.102 79.4773C203.269 81.0762 205.753 82.3887 208.56 83.4148C211.363 84.446 213.878 84.9564 216.102 84.9564C218.727 84.9564 221.008 84.4044 222.956 83.2898C224.899 82.1804 225.873 80.3679 225.873 77.8523C225.873 74.5919 222.816 71.7585 216.706 69.3523C213.107 67.9252 210.107 66.5554 207.706 65.2481C205.3 63.9304 203.227 62.0398 201.477 59.5814C199.738 57.1231 198.873 54.0398 198.873 50.3314C198.873 44.9044 200.654 40.5294 204.227 37.2064C207.795 33.8887 212.55 32.0919 218.498 31.8106C223.191 31.8106 227.107 32.3419 230.248 33.3939C233.383 34.4512 236.441 35.9512 239.415 37.8939L234.706 47.4148Z" fill="black"/>
<path d="M264.43 32.1439V95.2481H251.993V32.1439H264.43Z" fill="black"/>
</svg>
