<svg width="977" height="204" viewBox="0 0 977 204" fill="none" xmlns="http://www.w3.org/2000/svg">
<rect x="104" width="873" height="204" fill="#FFD6C0"/>
<ellipse cx="104" cy="102" rx="104" ry="102" fill="#E9E8E8"/>
<rect x="48.6" y="43.6" width="110.7" height="113.4" fill="#FD772F"/>
<path d="M73.9863 66.4805H93.4375L117.605 98.375V66.4805H132.969V130H113.023L89.2148 96.2188V130H73.9863V66.4805Z" fill="#FBF8F8"/>
<path d="M280.065 33.6577H263.713C263.939 32.902 264.078 32.1127 264.13 31.3066C264.165 30.467 264.095 29.6609 263.921 28.8884C263.73 28.0824 263.504 27.2763 263.226 26.4702L254.18 28.8884C254.319 29.2579 254.423 29.6273 254.528 30.0304C254.667 30.4334 254.754 30.8196 254.806 31.1723C254.945 31.9784 254.945 32.818 254.806 33.6577H239.497V40.5764H245.203C244.733 41.3489 244.386 42.155 244.159 42.9946C243.916 43.8511 243.811 44.7915 243.811 45.8159C243.811 47.9318 244.299 49.7454 245.273 51.2568C246.247 52.7346 247.534 53.9437 249.169 54.8841C250.84 55.8245 252.649 56.5298 254.597 56.9665V60.6609H234V67.714H286.397V60.6609H264.409V57.0336C266.444 56.6306 268.305 55.9589 269.975 55.0185C271.68 54.078 273.054 52.8522 274.081 51.324C275.142 49.8126 275.681 47.9654 275.681 45.8159C275.681 44.7915 275.542 43.8511 275.264 42.9946C275.02 42.155 274.672 41.3489 274.22 40.5764H280.065V33.6577ZM251.187 79.0661C249.935 79.0661 249.309 78.428 249.309 77.1853V69.4605H239.706V79.3348C239.706 81.7866 240.367 83.5331 241.724 84.5743C243.063 85.5986 245.012 86.1192 247.569 86.1192H265.87C267.957 86.1192 270.323 86.0017 272.967 85.7834C275.646 85.5986 278.604 84.9773 281.805 83.9025L279.996 77.1853C277.438 77.9914 274.951 78.4952 272.55 78.7303C270.184 78.9486 267.888 79.0661 265.661 79.0661H251.187ZM266.357 45.8159C266.357 47.0753 265.818 48.2173 264.756 49.2416C263.73 50.2324 262.06 50.7194 259.746 50.7194C257.415 50.7194 255.728 50.2324 254.667 49.2416C253.64 48.2173 253.136 47.0753 253.136 45.8159C253.136 44.5732 253.64 43.448 254.667 42.4572C255.728 41.4329 257.415 40.9123 259.746 40.9123C262.06 40.9123 263.73 41.4329 264.756 42.4572C265.818 43.448 266.357 44.5732 266.357 45.8159Z" fill="black"/>
<path d="M293.265 73.155C295.996 71.5429 298.554 69.7796 300.92 67.8484C303.285 65.8836 305.477 63.8013 307.53 61.6014C308.922 61.7021 310.192 62.2731 311.357 63.3479C312.366 64.2883 313.619 65.5645 315.115 67.1767C316.646 68.7888 318.211 70.5857 319.847 72.5505L325.483 67.0423C324.091 65.3462 322.717 63.7845 321.377 62.3403C320.073 60.8625 318.803 59.5022 317.55 58.2428C316.054 56.765 314.384 55.8246 312.54 55.4215C316.298 50.1485 318.49 45.3961 319.151 41.181C319.429 39.0315 319.238 37.2682 318.594 35.8744C317.933 34.4974 316.385 33.792 313.932 33.792H290.343V40.9123H307.6C308.296 40.9123 308.713 41.1474 308.852 41.584C308.991 41.9871 308.991 42.4405 308.852 42.9275C308.33 44.674 307.478 46.6052 306.278 48.7043C305.06 50.7698 303.581 52.9026 301.824 55.0857C300.05 57.2856 298.032 59.4183 295.77 61.467C293.544 63.5326 291.143 65.3966 288.603 67.0423L293.265 73.155ZM345.941 49.6447H337.66V31.6425H328.197V82.6935H337.66V56.9665H345.941V49.6447Z" fill="black"/>
<path d="M398.017 82.6935V31.6425H388.623V46.4204H378.185V53.7422H388.623V82.6935H398.017ZM360.023 34.7325C360.476 35.4546 360.858 36.3446 361.137 37.4194C361.415 38.4941 361.554 39.6864 361.554 40.9795V43.3305C361.554 46.8739 360.963 49.9638 359.815 52.6003C358.649 55.2536 356.927 57.6886 354.665 59.9221C352.439 62.122 349.655 64.3554 346.315 66.6393L351.256 72.9535C354.596 70.72 357.588 68.4362 360.232 66.1019C362.911 63.7845 365.138 61.1983 366.912 58.3771C367.365 58.6962 367.817 59.032 368.234 59.3847C368.652 59.7038 369.017 60.09 369.348 60.5266C370.044 61.467 371.105 62.9952 372.549 65.0943C373.975 67.2103 375.576 69.7124 377.35 72.6176L383.891 68.3186C382.117 65.4638 380.551 62.9952 379.159 60.9297C377.802 58.8305 376.55 57.0169 375.402 55.4887C373.906 53.5743 372.079 52.382 369.904 51.9286C370.774 49.1577 371.227 46.1517 371.227 42.9275V40.9123C371.227 39.4345 371.053 37.9567 370.739 36.4789C370.461 34.9676 369.852 33.4562 368.93 31.9784L360.023 34.7325Z" fill="black"/>
<path d="M419.636 52.1301V40.0391H449.001V32.9188H410.103V53.7422C410.103 56.6642 410.938 58.6458 412.608 59.7206C414.278 60.7953 416.679 61.3663 419.845 61.3999H425.134V70.1323H403.771V77.1182H456.168V70.1323H434.667V61.2655C437.537 61.1312 440.373 60.8625 443.156 60.4595C445.939 60.0564 448.392 59.5023 450.532 58.7802L449.071 52.2644C445.87 52.9362 442.478 53.4568 438.911 53.8094C435.38 54.1789 432.179 54.3468 429.309 54.3468H421.933C420.958 54.3468 420.332 54.1453 420.054 53.7422C419.775 53.3392 419.636 52.8018 419.636 52.1301Z" fill="black"/>
<path d="M526.8 69.1246C526.887 67.8315 526.556 66.74 525.826 65.8332C525.13 64.9431 524.156 64.4226 522.903 64.2882C524.103 63.5829 525.095 62.5921 525.895 61.3326C526.73 60.0396 527.148 58.4442 527.148 56.5634V31.0379H517.684V42.9274H509.056V50.1149H517.684V57.2351C517.684 58.7129 517.441 60.0899 516.988 61.3326C516.519 62.5417 515.753 63.5157 514.692 64.221H486.789V71.3413H515.249C516.449 71.3413 517.058 71.9459 517.058 73.155V86.7238H525.965L526.8 69.1246ZM478.925 41.4496H495C496.061 41.4496 496.322 41.8527 495.765 42.6587C494.095 45.1777 491.625 47.5455 488.389 49.779C485.188 52.0293 481.361 54.0612 476.907 55.8917L480.248 62.6761C483.066 61.786 485.919 60.5266 488.806 58.9144C491.677 57.3023 494.373 55.5222 496.878 53.5406C497.609 53.6414 498.27 53.8597 498.827 54.2124C499.418 54.5818 500.027 55.0688 500.636 55.6902C501.506 56.6306 502.41 57.6885 503.35 58.8473C504.324 59.9724 505.385 61.1983 506.551 62.5417L512.535 57.2351C511.178 55.6734 510.047 54.3971 509.125 53.4063C508.238 52.3819 507.316 51.3743 506.342 50.3835C505.176 49.3592 503.785 48.7546 502.167 48.5699C503.506 47.0921 504.62 45.6143 505.507 44.1365C506.429 42.6251 507.072 41.1138 507.455 39.636C507.768 38.2925 507.664 37.0834 507.107 36.0087C506.585 34.9339 505.472 34.3965 503.767 34.3965H496.878C497.435 33.2882 497.731 32.1127 497.783 30.9036C497.818 30.0639 497.783 29.2243 497.644 28.4182C497.505 27.6121 497.261 26.8061 496.948 26L488.041 28.1495C488.18 28.5525 488.319 29.0228 488.459 29.5601C488.598 30.0639 488.685 30.5005 488.737 30.9036C488.963 32.0791 488.876 33.2378 488.459 34.3965H478.925V41.4496Z" fill="black"/>
<path d="M582.516 69.1246C582.603 67.8315 582.273 66.74 581.542 65.8332C580.846 64.9431 579.872 64.4226 578.619 64.2882C579.82 63.5829 580.811 62.5921 581.611 61.3326C582.446 60.0396 582.864 58.4442 582.864 56.5634V31.0379H573.4V42.9274H564.772V50.1149H573.4V57.2351C573.4 58.7129 573.157 60.0899 572.705 61.3326C572.235 62.5417 571.469 63.5157 570.408 64.221H542.505V71.3413H570.965C572.165 71.3413 572.774 71.9459 572.774 73.155V86.7238H581.681L582.516 69.1246ZM534.642 41.4496H550.716C551.777 41.4496 552.038 41.8527 551.481 42.6587C549.811 45.1777 547.341 47.5455 544.105 49.779C540.904 52.0293 537.077 54.0612 532.624 55.8917L535.964 62.6761C538.782 61.786 541.635 60.5266 544.523 58.9144C547.393 57.3023 550.09 55.5222 552.595 53.5406C553.325 53.6414 553.986 53.8597 554.543 54.2124C555.134 54.5818 555.743 55.0688 556.352 55.6902C557.222 56.6306 558.127 57.6885 559.066 58.8473C560.04 59.9724 561.101 61.1983 562.267 62.5417L568.251 57.2351C566.894 55.6734 565.764 54.3971 564.842 53.4063C563.954 52.3819 563.032 51.3743 562.058 50.3835C560.893 49.3592 559.501 48.7546 557.883 48.5699C559.223 47.0921 560.336 45.6143 561.223 44.1365C562.145 42.6251 562.789 41.1138 563.171 39.636C563.485 38.2925 563.38 37.0834 562.824 36.0087C562.302 34.9339 561.188 34.3965 559.484 34.3965H552.595C553.151 33.2882 553.447 32.1127 553.499 30.9036C553.534 30.0639 553.499 29.2243 553.36 28.4182C553.221 27.6121 552.977 26.8061 552.664 26L543.757 28.1495C543.897 28.5525 544.036 29.0228 544.175 29.5601C544.314 30.0639 544.401 30.5005 544.453 30.9036C544.679 32.0791 544.592 33.2378 544.175 34.3965H534.642V41.4496Z" fill="black"/>
<path d="M594.116 31.6425L595.925 66.5721H603.44L605.11 31.6425H594.116ZM604.832 71.3414H594.324V80.7455H604.832V71.3414Z" fill="black"/>
<path d="M648.708 34.7325C649.161 35.4546 649.543 36.3446 649.822 37.4194C650.1 38.4941 650.239 39.6864 650.239 40.9795V43.3305C650.239 46.8739 649.648 49.9638 648.499 52.6003C647.386 55.2032 645.681 57.6046 643.42 59.7877C641.193 61.9372 638.375 64.1539 635 66.4378L639.941 72.9535C643.368 70.72 646.412 68.4362 649.056 66.1019C651.735 63.7341 653.962 61.1312 655.736 58.3099C656.85 58.8977 657.789 59.687 658.589 60.661C659.598 62.0044 660.764 63.7173 662.068 65.7661C663.408 67.7812 664.921 70.0987 666.591 72.6848L673.411 68.3858C671.636 65.531 670.071 63.0624 668.679 60.9968C667.322 58.8977 666.07 57.084 664.921 55.5559C663.391 53.5071 661.268 52.2644 658.589 51.8614C659.459 49.0905 659.911 46.1182 659.911 42.9275V40.9123C659.911 39.4345 659.737 37.9567 659.424 36.4789C659.146 34.9676 658.537 33.4562 657.615 31.9784L648.708 34.7325ZM686.562 82.6935V31.6425H677.168V82.6935H686.562Z" fill="black"/>
<path d="M741.096 82.6935V31.6425H731.633V58.5115C729.771 59.8549 727.631 60.9297 725.231 61.7357C722.865 62.5418 720.516 63.1463 718.203 63.5494C715.872 63.9188 713.906 64.0868 712.288 64.0868H707.626C706.46 64.0868 705.747 63.8684 705.469 63.415C705.19 62.9784 705.051 62.3739 705.051 61.6014V33.792H695.518V63.8181C695.518 66.421 696.318 68.3522 697.954 69.5949C699.624 70.804 701.885 71.4085 704.773 71.4085H712.497C715.593 71.4085 718.864 71.0055 722.308 70.1994C725.787 69.3934 728.884 68.285 731.633 66.8408V82.6935H741.096Z" fill="black"/>
<path d="M798.175 31.6425H788.642V48.4356H781.474C781.092 45.6648 780.187 43.1962 778.761 41.0467C777.317 38.8636 775.421 37.1507 773.055 35.9416C770.689 34.6989 767.905 34.0607 764.705 34.0607C761.173 34.0607 758.129 34.85 755.589 36.4118C753.084 37.9399 751.135 40.0223 749.744 42.6588C748.352 45.2617 747.656 48.2005 747.656 51.4584C747.656 54.6826 748.317 57.6214 749.674 60.2579C751.066 62.8609 753.032 64.9432 755.589 66.505C758.129 68.0331 761.173 68.7888 764.705 68.7888C767.714 68.7888 770.358 68.2346 772.637 67.1095C774.951 66.0012 776.83 64.4562 778.274 62.4746C779.752 60.4595 780.779 58.2092 781.335 55.6902H788.642V82.6935H798.175V31.6425ZM772.428 51.4584C772.428 53.1713 772.15 54.8002 771.593 56.3619C771.037 57.8901 770.167 59.1496 769.019 60.1236C767.905 61.064 766.462 61.5342 764.705 61.5342C763.034 61.5342 761.608 61.064 760.46 60.1236C759.346 59.1496 758.477 57.8901 757.885 56.3619C757.329 54.8002 757.05 53.1713 757.05 51.4584C757.05 49.6783 757.329 48.0158 757.885 46.4876C758.477 44.9762 759.346 43.7335 760.46 42.7931C761.608 41.8191 763.034 41.3153 764.705 41.3153C766.462 41.3153 767.905 41.8191 769.019 42.7931C770.167 43.7335 771.037 44.9762 771.593 46.4876C772.15 48.0158 772.428 49.6783 772.428 51.4584Z" fill="black"/>
<path d="M859.134 57.2351C859.134 58.6793 858.925 59.9892 858.507 61.1983C858.09 62.4074 857.359 63.3814 856.35 64.0867H832.204V71.1398H853.706C852.349 72.4496 850.47 73.6587 848.07 74.7671C845.652 75.8922 842.868 76.883 839.72 77.7227C836.606 78.5623 833.335 79.3012 829.908 79.9393L831.369 87.1268C835.127 86.6734 838.919 85.8841 842.781 84.7757C846.626 83.6506 850.175 82.3072 853.428 80.7454C854.628 80.5103 855.724 80.5607 856.698 80.8798C857.672 81.2324 858.734 81.7194 859.899 82.3575C861.152 83.0629 862.352 83.785 863.518 84.5071C864.666 85.2124 865.988 86.0688 867.484 87.0596L871.868 81.753C870.511 80.7622 869.328 79.9393 868.319 79.2676C867.293 78.5959 866.231 77.9578 865.118 77.3868C864.422 77.0341 863.761 76.7151 863.17 76.4464C862.613 76.1441 861.952 75.9594 861.221 75.909C862.091 75.2037 862.891 74.4816 863.587 73.7595C864.283 73.0038 864.874 72.2481 865.396 71.4756C865.849 70.7199 866.11 69.8971 866.162 68.9903C866.249 68.1002 866.11 67.2438 865.744 66.4377C865.362 65.5981 864.735 64.9599 863.865 64.5569C865.205 63.9355 866.318 62.9447 867.206 61.6013C868.128 60.2243 868.597 58.545 868.597 56.5634V49.779H876.739V42.7931H868.597V31.0379H859.134V57.2351ZM851.619 31.9111H821.697V53.0032C821.697 55.2535 822.149 56.8321 823.089 57.7725C824.063 58.7129 826.011 59.1831 828.934 59.1831H835.475C837.093 59.1831 838.919 59.0152 840.972 58.6457C843.06 58.2931 845.043 57.8061 846.956 57.1679C848.853 56.4962 850.401 55.7237 851.619 54.8169V31.9111ZM842.294 38.8971V50.585C841.407 51.0385 840.311 51.4247 839.024 51.727C837.771 51.9957 836.588 52.13 835.475 52.13H832.831C831.613 52.13 831.021 51.5926 831.021 50.5179V38.8971H842.294Z" fill="black"/>
<path d="M925.126 72.8191C925.352 70.72 925.057 69.2254 924.222 68.3185C923.387 67.4285 921.995 66.9751 920.047 66.9751H909.609V63.2806H931.598V56.3619H879.2V63.2806H900.145V66.9751H885.045V80.1409C885.045 82.7774 885.741 84.5239 887.133 85.3803C888.525 86.2703 890.577 86.7238 893.326 86.7238H920.325C922.691 86.7238 923.961 85.8673 924.152 84.1712L925.126 72.8191ZM886.924 33.5905V40.3749H909.122C905.869 42.1214 902.233 43.532 898.197 44.6067C894.161 45.6479 889.395 46.6051 883.932 47.4951L885.254 54.4811C888.768 53.9941 892.143 53.4399 895.344 52.8017C898.58 52.13 901.537 51.3743 904.181 50.5179C905.103 50.2156 906.025 49.8798 906.965 49.5103C907.887 49.1577 908.791 48.7714 909.679 48.3684C910.514 48.5027 911.296 48.7546 912.044 49.1073C912.775 49.4263 913.575 49.7454 914.41 50.0477C915.889 50.6858 917.228 51.324 918.446 51.9957C919.699 52.6338 921.264 53.4735 923.178 54.5482L926.866 48.5699C925.283 47.7302 923.752 46.9578 922.273 46.286C920.829 45.5807 919.281 44.8754 917.611 44.2037C917.42 44.1197 917.281 44.0693 917.194 44.0693C919.229 42.558 920.76 41.0466 921.786 39.5688C922.708 38.1414 922.9 36.7979 922.343 35.5385C921.821 34.2454 920.673 33.5905 918.864 33.5905H907.73C907.869 33.1538 907.974 32.7004 908.078 32.247C908.165 31.8104 908.235 31.357 908.287 30.9036C908.322 30.0639 908.252 29.2243 908.078 28.4182C907.939 27.6121 907.73 26.8061 907.452 26L898.545 28.1495C898.684 28.5525 898.823 29.0228 898.962 29.5601C899.136 30.0639 899.258 30.5005 899.31 30.9036C899.45 31.76 899.397 32.6501 899.171 33.5905H886.924ZM896.109 79.6707C895.448 79.6707 895.014 79.5363 894.787 79.2676C894.596 79.0325 894.509 78.6127 894.509 77.9914V73.961H915.524V79.6707H896.109Z" fill="black"/>
<path d="M353.158 170.462V120.687H344.251V135.263H333.605V142.719H344.251V170.462H353.158ZM367.214 171.738V120.687H358.238V171.738H367.214ZM341.607 150.444C339.746 150.948 337.937 151.368 336.18 151.721C334.405 152.04 332.596 152.191 330.752 152.191H327.69C326.473 152.191 325.742 151.972 325.464 151.519C325.22 151.082 325.116 150.444 325.116 149.638V122.836H316V152.258C316 157.413 318.853 159.916 324.559 159.781L329.221 159.714C332.039 159.63 334.579 159.361 336.806 158.908C339.033 158.471 341.068 157.951 342.929 157.363L341.607 150.444Z" fill="black"/>
<path d="M423.395 171.738V120.687H413.793V171.738H423.395ZM407.182 140.503C407.182 137.06 406.486 134.037 405.095 131.435C403.738 128.798 401.772 126.766 399.18 125.322C396.623 123.844 393.561 123.105 389.995 123.105C386.463 123.105 383.419 123.844 380.879 125.322C378.322 126.766 376.356 128.798 374.964 131.435C373.573 134.037 372.877 137.06 372.877 140.503C372.877 143.962 373.573 146.985 374.964 149.571C376.356 152.174 378.322 154.206 380.879 155.684C383.419 157.128 386.463 157.833 389.995 157.833C393.561 157.833 396.623 157.128 399.18 155.684C401.772 154.206 403.738 152.174 405.095 149.571C406.486 146.985 407.182 143.962 407.182 140.503ZM397.788 140.503C397.788 142.249 397.475 143.912 396.884 145.474C396.327 147.002 395.457 148.228 394.309 149.168C393.196 150.108 391.752 150.579 389.995 150.579C388.273 150.579 386.829 150.108 385.681 149.168C384.567 148.228 383.697 147.002 383.106 145.474C382.549 143.912 382.271 142.249 382.271 140.503C382.271 138.672 382.549 136.993 383.106 135.465C383.697 133.954 384.567 132.711 385.681 131.77C386.829 130.83 388.273 130.36 389.995 130.36C391.752 130.36 393.196 130.83 394.309 131.77C395.457 132.711 396.327 133.954 396.884 135.465C397.475 136.993 397.788 138.672 397.788 140.503Z" fill="black"/>
<path d="M461.159 156.624V142.787H469.579V171.738H479.112V120.687H469.579V135.465H461.159V122.232H451.835V135.196H439.17V122.232H429.846V154.206C429.846 156.456 430.542 158.152 431.934 159.311C433.36 160.436 435.552 160.99 438.475 160.99H444.807C446.477 160.99 448.321 160.822 450.374 160.453C452.461 160.1 454.444 159.613 456.358 158.975C458.306 158.303 459.907 157.531 461.159 156.624ZM444.598 153.803H440.98C439.762 153.803 439.17 153.249 439.17 152.124V142.384H451.835V152.191C450.756 152.728 449.573 153.131 448.286 153.4C446.981 153.669 445.746 153.803 444.598 153.803Z" fill="black"/>
<path d="M513.768 123.777C514.22 124.499 514.603 125.389 514.881 126.464C515.159 127.539 515.299 128.731 515.299 130.024C515.299 134.021 514.811 137.463 513.837 140.368C512.863 143.29 511.332 145.944 509.245 148.362C507.157 150.747 504.374 153.198 500.895 155.751L506.253 162.132C509.453 159.949 512.272 157.632 514.742 155.214C517.195 152.762 519.23 150.108 520.865 147.287C521.178 147.522 521.509 147.791 521.84 148.093C522.205 148.412 522.553 148.765 522.883 149.168C523.753 150.293 524.901 151.905 526.293 154.004C527.685 156.12 529.233 158.606 530.955 161.461L537.844 157.027C536.07 154.172 534.521 151.687 533.182 149.571C531.877 147.422 530.642 145.591 529.494 144.063C527.998 142.098 526.032 140.939 523.579 140.57C524.084 138.958 524.449 137.279 524.693 135.532C524.919 133.786 525.04 131.938 525.04 129.957C525.04 128.479 524.866 127.001 524.553 125.523C524.275 124.012 523.666 122.501 522.744 121.023L513.768 123.777ZM558.65 138.824H550.439V120.687H540.975V171.738H550.439V146.212H558.65V138.824Z" fill="black"/>
<path d="M602.375 129.957C602.375 127.404 601.61 125.255 600.079 123.508C598.583 121.728 596.6 120.351 594.095 119.411C591.625 118.47 588.876 118 585.814 118C582.787 118 580.004 118.47 577.464 119.411C574.959 120.351 572.941 121.728 571.41 123.508C569.914 125.255 569.183 127.404 569.183 129.957C569.183 132.425 569.897 134.558 571.341 136.338V144.197H560.137V150.982H612.535V144.197H600.427V136.002C601.714 134.256 602.375 132.241 602.375 129.957ZM602.375 164.819C602.375 162.048 601.61 159.748 600.079 157.9C598.583 156.07 596.6 154.71 594.095 153.803C591.625 152.862 588.876 152.392 585.814 152.392C582.787 152.392 580.004 152.862 577.464 153.803C574.959 154.71 572.941 156.07 571.41 157.9C569.914 159.748 569.183 162.048 569.183 164.819C569.183 167.506 569.914 169.739 571.41 171.536C572.941 173.367 574.959 174.727 577.464 175.634C580.004 176.574 582.787 177.044 585.814 177.044C588.824 177.044 591.59 176.574 594.095 175.634C596.6 174.727 598.583 173.367 600.079 171.536C601.61 169.689 602.375 167.456 602.375 164.819ZM592.912 164.819C592.912 166.7 592.233 168.043 590.894 168.849C589.589 169.689 587.902 170.126 585.814 170.126C583.727 170.126 581.987 169.689 580.595 168.849C579.238 168.043 578.577 166.7 578.577 164.819C578.577 162.905 579.238 161.511 580.595 160.654C581.987 159.815 583.727 159.378 585.814 159.378C587.902 159.378 589.589 159.815 590.894 160.654C592.233 161.511 592.912 162.905 592.912 164.819ZM592.842 129.957C592.842 131.67 592.181 132.946 590.894 133.785C589.589 134.642 587.902 135.062 585.814 135.062C583.727 135.062 581.987 134.642 580.595 133.785C579.238 132.946 578.577 131.67 578.577 129.957C578.577 128.311 579.238 127.051 580.595 126.195C581.987 125.305 583.727 124.852 585.814 124.852C587.902 124.852 589.589 125.305 590.894 126.195C592.181 127.051 592.842 128.311 592.842 129.957ZM585.814 141.846C586.736 141.846 587.641 141.813 588.528 141.712C589.398 141.628 590.268 141.494 591.103 141.309V144.197H580.595V141.309C581.43 141.494 582.265 141.628 583.1 141.712C583.97 141.813 584.875 141.846 585.814 141.846Z" fill="black"/>
<path d="M644.865 127.337H673.534V120.284H635.332V140.57C635.332 143.492 636.167 145.507 637.837 146.615C639.507 147.69 641.908 148.228 645.074 148.228H655.373C658.469 148.228 661.722 148.127 665.114 147.892C668.542 147.623 671.864 147.018 675.065 146.078L673.673 139.562C670.09 140.368 666.941 140.839 664.21 140.973C661.513 141.107 658.73 141.174 655.86 141.174H647.162C646.187 141.174 645.561 140.973 645.283 140.57C645.004 140.167 644.865 139.63 644.865 138.958V137.614H672.908V130.696H644.865V127.337ZM669.29 172.611V159.647H681.397V152.594H629V159.647H639.994V172.611H649.388V159.647H659.896V172.611H669.29Z" fill="black"/>
<path d="M700.582 142.652V139.764H729.251V132.711H700.582V127.942H729.947V120.956H691.049V144.197C691.049 147.119 691.884 149.134 693.554 150.243C695.224 151.318 697.624 151.855 700.791 151.855H706.079V158.169H684.716V165.155H737.114V158.169H715.542V151.855C718.222 151.821 720.935 151.62 723.684 151.25C726.467 150.847 729.059 150.243 731.477 149.437L730.016 142.921C726.815 143.727 723.753 144.264 720.831 144.533C717.943 144.768 715.073 144.869 712.202 144.869H702.878C701.904 144.869 701.278 144.667 700.999 144.264C700.721 143.861 700.582 143.324 700.582 142.652Z" fill="black"/>
<path d="M790.395 170.73V119.679H781.001V147.959C779.557 148.899 777.835 149.689 775.852 150.31C773.903 150.948 771.885 151.452 769.798 151.855C767.745 152.258 765.797 152.56 763.953 152.728C762.143 152.863 760.647 152.93 759.499 152.93H755.533C754.367 152.93 753.654 152.728 753.376 152.325C753.097 151.889 752.958 151.25 752.958 150.444V144.063H760.96C762.909 144.063 764.735 143.912 766.458 143.593C768.162 143.29 769.902 142.753 771.676 141.981V121.829H743.564V128.949H762.213V136.875H743.564V152.594C743.564 155.146 744.277 157.061 745.721 158.303C747.148 159.513 749.288 160.117 752.123 160.117H759.638C761.761 160.117 764.109 159.966 766.666 159.647C769.206 159.294 771.746 158.774 774.251 158.102C776.756 157.43 779 156.607 781.001 155.617V170.73H790.395Z" fill="black"/>
<path d="M812.989 174.761H835.326C837.083 174.761 838.874 174.693 840.684 174.559C842.493 174.425 844.615 173.955 847.085 173.148L845.485 167.103C843.484 167.64 841.623 167.926 839.918 167.976C838.248 168.06 836.613 168.111 835.047 168.111H816.816V164.886H842.214C843.78 164.886 844.685 164.131 844.928 162.602L845.902 155.146C846.129 153.668 845.92 152.392 845.276 151.317C844.615 150.209 843.467 149.47 841.797 149.101C843.049 148.395 844.058 147.287 844.859 145.809C845.642 144.332 846.042 142.635 846.042 140.704V119.075H836.578V128.21H828.924C828.402 125.977 827.358 124.113 825.792 122.635C824.262 121.124 822.4 119.982 820.226 119.209C818.034 118.403 815.668 118 813.128 118C810.24 118 807.579 118.521 805.126 119.545C802.656 120.586 800.69 122.081 799.211 124.046C797.715 126.027 796.984 128.479 796.984 131.434C796.984 134.39 797.698 136.909 799.142 138.958C800.62 140.973 802.586 142.501 805.056 143.525C807.509 144.516 810.205 145.003 813.128 145.003C815.581 145.003 817.877 144.651 820.017 143.929C822.139 143.223 823.983 142.148 825.514 140.704C827.045 139.277 828.124 137.514 828.785 135.398H836.578V141.309C836.578 142.753 836.404 144.18 836.091 145.608C835.76 147.052 835.082 148.127 834.073 148.832H807.283V155.549H836.578V158.706H807.283V169.521C807.283 171.486 807.7 172.846 808.535 173.619C809.405 174.374 810.901 174.761 812.989 174.761ZM820.017 131.434C820.017 133.416 819.425 134.978 818.277 136.137C817.112 137.312 815.39 137.883 813.128 137.883C810.988 137.883 809.318 137.312 808.118 136.137C806.9 134.978 806.309 133.416 806.309 131.434C806.309 129.52 806.9 127.975 808.118 126.8C809.318 125.641 810.988 125.053 813.128 125.053C815.39 125.053 817.112 125.641 818.277 126.8C819.425 127.975 820.017 129.52 820.017 131.434Z" fill="black"/>
</svg>
