<svg width="1550" height="204" viewBox="0 0 1550 204" fill="none" xmlns="http://www.w3.org/2000/svg">
<rect x="104" width="1329" height="204" fill="#E3E0DE"/>
<ellipse cx="104" cy="102" rx="104" ry="102" fill="#E3E0DE"/>
<ellipse cx="1446" cy="102" rx="104" ry="102" fill="#E3E0DE"/>
<path d="M271.065 71.6577H254.713C254.939 70.902 255.078 70.1127 255.13 69.3066C255.165 68.467 255.095 67.6609 254.921 66.8884C254.73 66.0824 254.504 65.2763 254.226 64.4702L245.18 66.8884C245.319 67.2579 245.423 67.6273 245.528 68.0304C245.667 68.4334 245.754 68.8196 245.806 69.1723C245.945 69.9784 245.945 70.818 245.806 71.6577H230.497V78.5764H236.203C235.733 79.3489 235.386 80.155 235.159 80.9946C234.916 81.8511 234.811 82.7915 234.811 83.8159C234.811 85.9318 235.299 87.7454 236.273 89.2568C237.247 90.7346 238.534 91.9437 240.169 92.8841C241.84 93.8245 243.649 94.5298 245.597 94.9665V98.6609H225V105.714H277.397V98.6609H255.409V95.0336C257.444 94.6306 259.305 93.9589 260.975 93.0185C262.68 92.078 264.054 90.8522 265.081 89.324C266.142 87.8126 266.681 85.9654 266.681 83.8159C266.681 82.7915 266.542 81.8511 266.264 80.9946C266.02 80.155 265.672 79.3489 265.22 78.5764H271.065V71.6577ZM242.187 117.066C240.935 117.066 240.309 116.428 240.309 115.185V107.46H230.706V117.335C230.706 119.787 231.367 121.533 232.724 122.574C234.063 123.599 236.012 124.119 238.569 124.119H256.87C258.957 124.119 261.323 124.002 263.967 123.783C266.646 123.599 269.604 122.977 272.805 121.903L270.996 115.185C268.438 115.991 265.951 116.495 263.55 116.73C261.184 116.949 258.888 117.066 256.661 117.066H242.187ZM257.357 83.8159C257.357 85.0753 256.818 86.2173 255.756 87.2416C254.73 88.2324 253.06 88.7194 250.746 88.7194C248.415 88.7194 246.728 88.2324 245.667 87.2416C244.64 86.2173 244.136 85.0753 244.136 83.8159C244.136 82.5732 244.64 81.448 245.667 80.4572C246.728 79.4329 248.415 78.9123 250.746 78.9123C253.06 78.9123 254.73 79.4329 255.756 80.4572C256.818 81.448 257.357 82.5732 257.357 83.8159Z" fill="#341B1C"/>
<path d="M284.265 111.155C286.996 109.543 289.554 107.78 291.92 105.848C294.285 103.884 296.477 101.801 298.53 99.6014C299.922 99.7021 301.192 100.273 302.357 101.348C303.366 102.288 304.619 103.565 306.115 105.177C307.646 106.789 309.211 108.586 310.847 110.55L316.483 105.042C315.091 103.346 313.717 101.784 312.377 100.34C311.073 98.8625 309.803 97.5022 308.55 96.2428C307.054 94.765 305.384 93.8246 303.54 93.4215C307.298 88.1485 309.49 83.3961 310.151 79.181C310.429 77.0315 310.238 75.2682 309.594 73.8744C308.933 72.4974 307.385 71.792 304.932 71.792H281.343V78.9123H298.6C299.296 78.9123 299.713 79.1474 299.852 79.584C299.991 79.9871 299.991 80.4405 299.852 80.9275C299.33 82.674 298.478 84.6052 297.278 86.7043C296.06 88.7698 294.581 90.9026 292.824 93.0857C291.05 95.2856 289.032 97.4183 286.77 99.467C284.544 101.533 282.143 103.397 279.603 105.042L284.265 111.155ZM336.941 87.6447H328.66V69.6425H319.197V120.693H328.66V94.9665H336.941V87.6447Z" fill="#341B1C"/>
<path d="M389.017 120.693V69.6425H379.623V84.4204H369.185V91.7422H379.623V120.693H389.017ZM351.023 72.7325C351.476 73.4546 351.858 74.3446 352.137 75.4194C352.415 76.4941 352.554 77.6864 352.554 78.9795V81.3305C352.554 84.8739 351.963 87.9638 350.815 90.6003C349.649 93.2536 347.927 95.6886 345.665 97.9221C343.439 100.122 340.655 102.355 337.315 104.639L342.256 110.953C345.596 108.72 348.588 106.436 351.232 104.102C353.911 101.784 356.138 99.1983 357.912 96.3771C358.365 96.6962 358.817 97.032 359.234 97.3847C359.652 97.7038 360.017 98.09 360.348 98.5266C361.044 99.467 362.105 100.995 363.549 103.094C364.975 105.21 366.576 107.712 368.35 110.618L374.891 106.319C373.117 103.464 371.551 100.995 370.159 98.9297C368.802 96.8305 367.55 95.0169 366.402 93.4887C364.906 91.5743 363.079 90.382 360.904 89.9286C361.774 87.1577 362.227 84.1517 362.227 80.9275V78.9123C362.227 77.4345 362.053 75.9567 361.739 74.4789C361.461 72.9676 360.852 71.4562 359.93 69.9784L351.023 72.7325Z" fill="#341B1C"/>
<path d="M410.636 90.1301V78.0391H440.001V70.9188H401.103V91.7422C401.103 94.6642 401.938 96.6458 403.608 97.7206C405.278 98.7953 407.679 99.3663 410.845 99.3999H416.134V108.132H394.771V115.118H447.168V108.132H425.667V99.2655C428.537 99.1312 431.373 98.8625 434.156 98.4595C436.939 98.0564 439.392 97.5023 441.532 96.7802L440.071 90.2644C436.87 90.9362 433.478 91.4568 429.911 91.8094C426.38 92.1789 423.179 92.3468 420.309 92.3468H412.933C411.958 92.3468 411.332 92.1453 411.054 91.7422C410.775 91.3392 410.636 90.8018 410.636 90.1301Z" fill="#341B1C"/>
<path d="M517.8 107.125C517.887 105.832 517.556 104.74 516.826 103.833C516.13 102.943 515.156 102.423 513.903 102.288C515.103 101.583 516.095 100.592 516.895 99.3326C517.73 98.0396 518.148 96.4442 518.148 94.5634V69.0379H508.684V80.9274H500.056V88.1149H508.684V95.2351C508.684 96.7129 508.441 98.0899 507.988 99.3326C507.519 100.542 506.753 101.516 505.692 102.221H477.789V109.341H506.249C507.449 109.341 508.058 109.946 508.058 111.155V124.724H516.965L517.8 107.125ZM469.925 79.4496H486C487.061 79.4496 487.322 79.8527 486.765 80.6587C485.095 83.1777 482.625 85.5455 479.389 87.779C476.188 90.0293 472.361 92.0612 467.907 93.8917L471.248 100.676C474.066 99.786 476.919 98.5266 479.806 96.9144C482.677 95.3023 485.373 93.5222 487.878 91.5406C488.609 91.6414 489.27 91.8597 489.827 92.2124C490.418 92.5818 491.027 93.0688 491.636 93.6902C492.506 94.6306 493.41 95.6885 494.35 96.8473C495.324 97.9724 496.385 99.1983 497.551 100.542L503.535 95.2351C502.178 93.6734 501.047 92.3971 500.125 91.4063C499.238 90.3819 498.316 89.3743 497.342 88.3835C496.176 87.3592 494.785 86.7546 493.167 86.5699C494.506 85.0921 495.62 83.6143 496.507 82.1365C497.429 80.6251 498.072 79.1138 498.455 77.636C498.768 76.2925 498.664 75.0834 498.107 74.0087C497.585 72.9339 496.472 72.3965 494.767 72.3965H487.878C488.435 71.2882 488.731 70.1127 488.783 68.9036C488.818 68.0639 488.783 67.2243 488.644 66.4182C488.505 65.6121 488.261 64.8061 487.948 64L479.041 66.1495C479.18 66.5525 479.319 67.0228 479.459 67.5601C479.598 68.0639 479.685 68.5005 479.737 68.9036C479.963 70.0791 479.876 71.2378 479.459 72.3965H469.925V79.4496Z" fill="#341B1C"/>
<path d="M573.516 107.125C573.603 105.832 573.273 104.74 572.542 103.833C571.846 102.943 570.872 102.423 569.619 102.288C570.82 101.583 571.811 100.592 572.611 99.3326C573.446 98.0396 573.864 96.4442 573.864 94.5634V69.0379H564.4V80.9274H555.772V88.1149H564.4V95.2351C564.4 96.7129 564.157 98.0899 563.705 99.3326C563.235 100.542 562.469 101.516 561.408 102.221H533.505V109.341H561.965C563.165 109.341 563.774 109.946 563.774 111.155V124.724H572.681L573.516 107.125ZM525.642 79.4496H541.716C542.777 79.4496 543.038 79.8527 542.481 80.6587C540.811 83.1777 538.341 85.5455 535.105 87.779C531.904 90.0293 528.077 92.0612 523.624 93.8917L526.964 100.676C529.782 99.786 532.635 98.5266 535.523 96.9144C538.393 95.3023 541.09 93.5222 543.595 91.5406C544.325 91.6414 544.986 91.8597 545.543 92.2124C546.134 92.5818 546.743 93.0688 547.352 93.6902C548.222 94.6306 549.127 95.6885 550.066 96.8473C551.04 97.9724 552.101 99.1983 553.267 100.542L559.251 95.2351C557.894 93.6734 556.764 92.3971 555.842 91.4063C554.954 90.3819 554.032 89.3743 553.058 88.3835C551.893 87.3592 550.501 86.7546 548.883 86.5699C550.223 85.0921 551.336 83.6143 552.223 82.1365C553.145 80.6251 553.789 79.1138 554.171 77.636C554.485 76.2925 554.38 75.0834 553.824 74.0087C553.302 72.9339 552.188 72.3965 550.484 72.3965H543.595C544.151 71.2882 544.447 70.1127 544.499 68.9036C544.534 68.0639 544.499 67.2243 544.36 66.4182C544.221 65.6121 543.977 64.8061 543.664 64L534.757 66.1495C534.897 66.5525 535.036 67.0228 535.175 67.5601C535.314 68.0639 535.401 68.5005 535.453 68.9036C535.679 70.0791 535.592 71.2378 535.175 72.3965H525.642V79.4496Z" fill="#341B1C"/>
<path d="M585.116 69.6425L586.925 104.572H594.44L596.11 69.6425H585.116ZM595.832 109.341H585.324V118.745H595.832V109.341Z" fill="#341B1C"/>
<path d="M624.708 72.7325C625.161 73.4546 625.543 74.3446 625.822 75.4194C626.1 76.4941 626.239 77.6864 626.239 78.9795V81.3305C626.239 84.8739 625.648 87.9638 624.499 90.6003C623.386 93.2032 621.681 95.6046 619.42 97.7877C617.193 99.9372 614.375 102.154 611 104.438L615.941 110.953C619.368 108.72 622.412 106.436 625.056 104.102C627.735 101.734 629.962 99.1312 631.736 96.3099C632.85 96.8977 633.789 97.687 634.589 98.661C635.598 100.004 636.764 101.717 638.068 103.766C639.408 105.781 640.921 108.099 642.591 110.685L649.411 106.386C647.636 103.531 646.071 101.062 644.679 98.9968C643.322 96.8977 642.07 95.084 640.921 93.5559C639.391 91.5071 637.268 90.2644 634.589 89.8614C635.459 87.0905 635.911 84.1182 635.911 80.9275V78.9123C635.911 77.4345 635.737 75.9567 635.424 74.4789C635.146 72.9676 634.537 71.4562 633.615 69.9784L624.708 72.7325ZM662.562 120.693V69.6425H653.168V120.693H662.562Z" fill="black"/>
<path d="M717.096 120.693V69.6425H707.633V96.5115C705.771 97.8549 703.631 98.9297 701.231 99.7357C698.865 100.542 696.516 101.146 694.203 101.549C691.872 101.919 689.906 102.087 688.288 102.087H683.626C682.46 102.087 681.747 101.868 681.469 101.415C681.19 100.978 681.051 100.374 681.051 99.6014V71.792H671.518V101.818C671.518 104.421 672.318 106.352 673.954 107.595C675.624 108.804 677.885 109.409 680.773 109.409H688.497C691.593 109.409 694.864 109.006 698.308 108.199C701.787 107.393 704.884 106.285 707.633 104.841V120.693H717.096Z" fill="black"/>
<path d="M774.175 69.6425H764.642V86.4356H757.474C757.092 83.6648 756.187 81.1962 754.761 79.0467C753.317 76.8636 751.421 75.1507 749.055 73.9416C746.689 72.6989 743.905 72.0607 740.705 72.0607C737.173 72.0607 734.129 72.85 731.589 74.4118C729.084 75.9399 727.135 78.0223 725.744 80.6588C724.352 83.2617 723.656 86.2005 723.656 89.4584C723.656 92.6826 724.317 95.6214 725.674 98.2579C727.066 100.861 729.032 102.943 731.589 104.505C734.129 106.033 737.173 106.789 740.705 106.789C743.714 106.789 746.358 106.235 748.637 105.11C750.951 104.001 752.83 102.456 754.274 100.475C755.752 98.4595 756.779 96.2092 757.335 93.6902H764.642V120.693H774.175V69.6425ZM748.428 89.4584C748.428 91.1713 748.15 92.8002 747.593 94.3619C747.037 95.8901 746.167 97.1496 745.019 98.1236C743.905 99.064 742.462 99.5342 740.705 99.5342C739.034 99.5342 737.608 99.064 736.46 98.1236C735.346 97.1496 734.477 95.8901 733.885 94.3619C733.329 92.8002 733.05 91.1713 733.05 89.4584C733.05 87.6783 733.329 86.0158 733.885 84.4876C734.477 82.9762 735.346 81.7335 736.46 80.7931C737.608 79.8191 739.034 79.3153 740.705 79.3153C742.462 79.3153 743.905 79.8191 745.019 80.7931C746.167 81.7335 747.037 82.9762 747.593 84.4876C748.15 86.0158 748.428 87.6783 748.428 89.4584Z" fill="black"/>
<path d="M835.134 95.2351C835.134 96.6793 834.925 97.9892 834.507 99.1983C834.09 100.407 833.359 101.381 832.35 102.087H808.204V109.14H829.706C828.349 110.45 826.47 111.659 824.07 112.767C821.652 113.892 818.868 114.883 815.72 115.723C812.606 116.562 809.335 117.301 805.908 117.939L807.369 125.127C811.127 124.673 814.919 123.884 818.781 122.776C822.626 121.651 826.175 120.307 829.428 118.745C830.628 118.51 831.724 118.561 832.698 118.88C833.672 119.232 834.734 119.719 835.899 120.358C837.152 121.063 838.352 121.785 839.518 122.507C840.666 123.212 841.988 124.069 843.484 125.06L847.868 119.753C846.511 118.762 845.328 117.939 844.319 117.268C843.293 116.596 842.231 115.958 841.118 115.387C840.422 115.034 839.761 114.715 839.17 114.446C838.613 114.144 837.952 113.959 837.221 113.909C838.091 113.204 838.891 112.482 839.587 111.759C840.283 111.004 840.874 110.248 841.396 109.476C841.849 108.72 842.11 107.897 842.162 106.99C842.249 106.1 842.11 105.244 841.744 104.438C841.362 103.598 840.735 102.96 839.865 102.557C841.205 101.936 842.318 100.945 843.206 99.6013C844.128 98.2243 844.597 96.545 844.597 94.5634V87.779H852.739V80.7931H844.597V69.0379H835.134V95.2351ZM827.619 69.9111H797.697V91.0032C797.697 93.2535 798.149 94.8321 799.089 95.7725C800.063 96.7129 802.011 97.1831 804.934 97.1831H811.475C813.093 97.1831 814.919 97.0152 816.972 96.6457C819.06 96.2931 821.043 95.8061 822.956 95.1679C824.853 94.4962 826.401 93.7237 827.619 92.8169V69.9111ZM818.294 76.8971V88.585C817.407 89.0385 816.311 89.4247 815.024 89.727C813.771 89.9957 812.588 90.13 811.475 90.13H808.831C807.613 90.13 807.021 89.5926 807.021 88.5179V76.8971H818.294Z" fill="black"/>
<path d="M901.126 110.819C901.352 108.72 901.057 107.225 900.222 106.319C899.387 105.429 897.995 104.975 896.047 104.975H885.609V101.281H907.598V94.3619H855.2V101.281H876.145V104.975H861.045V118.141C861.045 120.777 861.741 122.524 863.133 123.38C864.525 124.27 866.577 124.724 869.326 124.724H896.325C898.691 124.724 899.961 123.867 900.152 122.171L901.126 110.819ZM862.924 71.5905V78.3749H885.122C881.869 80.1214 878.233 81.532 874.197 82.6067C870.161 83.6479 865.395 84.6051 859.932 85.4951L861.254 92.4811C864.768 91.9941 868.143 91.4399 871.344 90.8017C874.58 90.13 877.537 89.3743 880.181 88.5179C881.103 88.2156 882.025 87.8798 882.965 87.5103C883.887 87.1577 884.791 86.7714 885.679 86.3684C886.514 86.5027 887.296 86.7546 888.044 87.1073C888.775 87.4263 889.575 87.7454 890.41 88.0477C891.889 88.6858 893.228 89.324 894.446 89.9957C895.699 90.6338 897.264 91.4735 899.178 92.5482L902.866 86.5699C901.283 85.7302 899.752 84.9578 898.273 84.286C896.829 83.5807 895.281 82.8754 893.611 82.2037C893.42 82.1197 893.281 82.0693 893.194 82.0693C895.229 80.558 896.76 79.0466 897.786 77.5688C898.708 76.1414 898.9 74.7979 898.343 73.5385C897.821 72.2454 896.673 71.5905 894.864 71.5905H883.73C883.869 71.1538 883.974 70.7004 884.078 70.247C884.165 69.8104 884.235 69.357 884.287 68.9036C884.322 68.0639 884.252 67.2243 884.078 66.4182C883.939 65.6121 883.73 64.8061 883.452 64L874.545 66.1495C874.684 66.5525 874.823 67.0228 874.962 67.5601C875.136 68.0639 875.258 68.5005 875.31 68.9036C875.45 69.76 875.397 70.6501 875.171 71.5905H862.924ZM872.109 117.671C871.448 117.671 871.014 117.536 870.787 117.268C870.596 117.033 870.509 116.613 870.509 115.991V111.961H891.524V117.671H872.109Z" fill="black"/>
<path d="M966.158 121.462V71.687H957.251V86.2634H946.605V93.7195H957.251V121.462H966.158ZM980.214 122.738V71.687H971.238V122.738H980.214ZM954.607 101.444C952.746 101.948 950.937 102.368 949.18 102.721C947.405 103.04 945.596 103.191 943.752 103.191H940.69C939.473 103.191 938.742 102.972 938.464 102.519C938.22 102.082 938.116 101.444 938.116 100.638V73.8365H929V103.258C929 108.413 931.853 110.916 937.559 110.781L942.221 110.714C945.039 110.63 947.579 110.361 949.806 109.908C952.033 109.471 954.068 108.951 955.929 108.363L954.607 101.444Z" fill="black"/>
<path d="M1036.4 122.738V71.687H1026.79V122.738H1036.4ZM1020.18 91.5028C1020.18 88.0602 1019.49 85.0375 1018.09 82.4345C1016.74 79.798 1014.77 77.7661 1012.18 76.3219C1009.62 74.8441 1006.56 74.1052 1002.99 74.1052C999.463 74.1052 996.419 74.8441 993.879 76.3219C991.322 77.7661 989.356 79.798 987.964 82.4345C986.573 85.0375 985.877 88.0602 985.877 91.5028C985.877 94.9622 986.573 97.9849 987.964 100.571C989.356 103.174 991.322 105.206 993.879 106.684C996.419 108.128 999.463 108.833 1002.99 108.833C1006.56 108.833 1009.62 108.128 1012.18 106.684C1014.77 105.206 1016.74 103.174 1018.09 100.571C1019.49 97.9849 1020.18 94.9622 1020.18 91.5028ZM1010.79 91.5028C1010.79 93.2493 1010.48 94.9118 1009.88 96.4736C1009.33 98.0017 1008.46 99.2276 1007.31 100.168C1006.2 101.108 1004.75 101.579 1002.99 101.579C1001.27 101.579 999.829 101.108 998.681 100.168C997.567 99.2276 996.697 98.0017 996.106 96.4736C995.549 94.9118 995.271 93.2493 995.271 91.5028C995.271 89.6724 995.549 87.9931 996.106 86.4649C996.697 84.9535 997.567 83.7108 998.681 82.7704C999.829 81.83 1001.27 81.3598 1002.99 81.3598C1004.75 81.3598 1006.2 81.83 1007.31 82.7704C1008.46 83.7108 1009.33 84.9535 1009.88 86.4649C1010.48 87.9931 1010.79 89.6724 1010.79 91.5028Z" fill="black"/>
<path d="M1074.16 107.624V93.7867H1082.58V122.738H1092.11V71.687H1082.58V86.4649H1074.16V73.2319H1064.83V86.1962H1052.17V73.2319H1042.85V105.206C1042.85 107.456 1043.54 109.152 1044.93 110.311C1046.36 111.436 1048.55 111.99 1051.47 111.99H1057.81C1059.48 111.99 1061.32 111.822 1063.37 111.453C1065.46 111.1 1067.44 110.613 1069.36 109.975C1071.31 109.303 1072.91 108.531 1074.16 107.624ZM1057.6 104.803H1053.98C1052.76 104.803 1052.17 104.249 1052.17 103.124V93.3836H1064.83V103.191C1063.76 103.728 1062.57 104.131 1061.29 104.4C1059.98 104.669 1058.75 104.803 1057.6 104.803Z" fill="black"/>
<path d="M1126.77 74.7769C1127.22 75.499 1127.6 76.389 1127.88 77.4638C1128.16 78.5386 1128.3 79.7309 1128.3 81.0239C1128.3 85.0207 1127.81 88.4633 1126.84 91.3685C1125.86 94.2905 1124.33 96.9438 1122.24 99.362C1120.16 101.747 1117.37 104.198 1113.89 106.751L1119.25 113.132C1122.45 110.949 1125.27 108.632 1127.74 106.214C1130.19 103.762 1132.23 101.108 1133.87 98.2872C1134.18 98.5223 1134.51 98.791 1134.84 99.0933C1135.2 99.4124 1135.55 99.765 1135.88 100.168C1136.75 101.293 1137.9 102.905 1139.29 105.004C1140.68 107.12 1142.23 109.606 1143.96 112.461L1150.84 108.027C1149.07 105.172 1147.52 102.687 1146.18 100.571C1144.88 98.4216 1143.64 96.5911 1142.49 95.0629C1141 93.0982 1139.03 91.9394 1136.58 91.57C1137.08 89.9578 1137.45 88.2785 1137.69 86.5321C1137.92 84.7856 1138.04 82.9383 1138.04 80.9568C1138.04 79.479 1137.87 78.0012 1137.55 76.5234C1137.28 75.012 1136.67 73.5006 1135.74 72.0228L1126.77 74.7769ZM1171.65 89.8235H1163.44V71.687H1153.98V122.738H1163.44V97.2125H1171.65V89.8235Z" fill="black"/>
<path d="M1215.38 80.9567C1215.38 78.4041 1214.61 76.2546 1213.08 74.5081C1211.58 72.7281 1209.6 71.351 1207.09 70.4106C1204.62 69.4702 1201.88 69 1198.81 69C1195.79 69 1193 69.4702 1190.46 70.4106C1187.96 71.351 1185.94 72.7281 1184.41 74.5081C1182.91 76.2546 1182.18 78.4041 1182.18 80.9567C1182.18 83.4253 1182.9 85.558 1184.34 87.338V95.1972H1173.14V101.982H1225.53V95.1972H1213.43V87.0022C1214.71 85.2557 1215.38 83.2405 1215.38 80.9567ZM1215.38 115.819C1215.38 113.048 1214.61 110.748 1213.08 108.9C1211.58 107.07 1209.6 105.71 1207.09 104.803C1204.62 103.862 1201.88 103.392 1198.81 103.392C1195.79 103.392 1193 103.862 1190.46 104.803C1187.96 105.71 1185.94 107.07 1184.41 108.9C1182.91 110.748 1182.18 113.048 1182.18 115.819C1182.18 118.506 1182.91 120.739 1184.41 122.536C1185.94 124.367 1187.96 125.727 1190.46 126.634C1193 127.574 1195.79 128.044 1198.81 128.044C1201.82 128.044 1204.59 127.574 1207.09 126.634C1209.6 125.727 1211.58 124.367 1213.08 122.536C1214.61 120.689 1215.38 118.456 1215.38 115.819ZM1205.91 115.819C1205.91 117.7 1205.23 119.043 1203.89 119.849C1202.59 120.689 1200.9 121.126 1198.81 121.126C1196.73 121.126 1194.99 120.689 1193.6 119.849C1192.24 119.043 1191.58 117.7 1191.58 115.819C1191.58 113.905 1192.24 112.511 1193.6 111.654C1194.99 110.815 1196.73 110.378 1198.81 110.378C1200.9 110.378 1202.59 110.815 1203.89 111.654C1205.23 112.511 1205.91 113.905 1205.91 115.819ZM1205.84 80.9567C1205.84 82.6696 1205.18 83.9458 1203.89 84.7855C1202.59 85.6419 1200.9 86.0618 1198.81 86.0618C1196.73 86.0618 1194.99 85.6419 1193.6 84.7855C1192.24 83.9458 1191.58 82.6696 1191.58 80.9567C1191.58 79.3109 1192.24 78.0515 1193.6 77.195C1194.99 76.305 1196.73 75.8516 1198.81 75.8516C1200.9 75.8516 1202.59 76.305 1203.89 77.195C1205.18 78.0515 1205.84 79.3109 1205.84 80.9567ZM1198.81 92.8462C1199.74 92.8462 1200.64 92.8126 1201.53 92.7118C1202.4 92.6279 1203.27 92.4935 1204.1 92.3088V95.1972H1193.6V92.3088C1194.43 92.4935 1195.27 92.6279 1196.1 92.7118C1196.97 92.8126 1197.87 92.8462 1198.81 92.8462Z" fill="black"/>
<path d="M1258.87 79.337H1287.53V72.2839H1249.33V92.5699C1249.33 95.4919 1250.17 97.5071 1251.84 98.6154C1253.51 99.6902 1255.91 100.228 1259.07 100.228H1269.37C1272.47 100.228 1275.72 100.127 1279.11 99.8917C1282.54 99.623 1285.86 99.0185 1289.07 98.0781L1287.67 91.5623C1284.09 92.3684 1280.94 92.8386 1278.21 92.973C1275.51 93.1073 1272.73 93.1745 1269.86 93.1745H1261.16C1260.19 93.1745 1259.56 92.973 1259.28 92.5699C1259 92.1669 1258.87 91.6295 1258.87 90.9578V89.6143H1286.91V82.6956H1258.87V79.337ZM1283.29 124.611V111.647H1295.4V104.594H1243V111.647H1253.99V124.611H1263.39V111.647H1273.9V124.611H1283.29Z" fill="black"/>
<path d="M1314.58 94.6523V91.7639H1343.25V84.7108H1314.58V79.9416H1343.95V72.9557H1305.05V96.1973C1305.05 99.1193 1305.88 101.134 1307.55 102.243C1309.22 103.318 1311.62 103.855 1314.79 103.855H1320.08V110.169H1298.72V117.155H1351.11V110.169H1329.54V103.855C1332.22 103.821 1334.94 103.62 1337.68 103.25C1340.47 102.847 1343.06 102.243 1345.48 101.437L1344.02 94.921C1340.82 95.7271 1337.75 96.2645 1334.83 96.5332C1331.94 96.7683 1329.07 96.869 1326.2 96.869H1316.88C1315.9 96.869 1315.28 96.6675 1315 96.2645C1314.72 95.8614 1314.58 95.3241 1314.58 94.6523Z" fill="black"/>
<path d="M1404.39 122.73V71.6794H1395V99.9589C1393.56 100.899 1391.83 101.689 1389.85 102.31C1387.9 102.948 1385.89 103.452 1383.8 103.855C1381.74 104.258 1379.8 104.56 1377.95 104.728C1376.14 104.863 1374.65 104.93 1373.5 104.93H1369.53C1368.37 104.93 1367.65 104.728 1367.38 104.325C1367.1 103.889 1366.96 103.25 1366.96 102.444V96.0629H1374.96C1376.91 96.0629 1378.74 95.9118 1380.46 95.5927C1382.16 95.2904 1383.9 94.7531 1385.68 93.9806V73.8289H1357.56V80.9492H1376.21V88.8755H1357.56V104.594C1357.56 107.146 1358.28 109.061 1359.72 110.303C1361.15 111.513 1363.29 112.117 1366.12 112.117H1373.64C1375.76 112.117 1378.11 111.966 1380.67 111.647C1383.21 111.294 1385.75 110.774 1388.25 110.102C1390.76 109.43 1393 108.607 1395 107.617V122.73H1404.39Z" fill="black"/>
<path d="M1426.99 126.761H1449.33C1451.08 126.761 1452.87 126.693 1454.68 126.559C1456.49 126.425 1458.62 125.955 1461.09 125.148L1459.48 119.103C1457.48 119.64 1455.62 119.926 1453.92 119.976C1452.25 120.06 1450.61 120.111 1449.05 120.111H1430.82V116.886H1456.21C1457.78 116.886 1458.68 116.131 1458.93 114.602L1459.9 107.146C1460.13 105.668 1459.92 104.392 1459.28 103.317C1458.62 102.209 1457.47 101.47 1455.8 101.101C1457.05 100.395 1458.06 99.2871 1458.86 97.8093C1459.64 96.3315 1460.04 94.6354 1460.04 92.7042V71.0748H1450.58V80.2102H1442.92C1442.4 77.9767 1441.36 76.1127 1439.79 74.6349C1438.26 73.1235 1436.4 71.9816 1434.23 71.2091C1432.03 70.403 1429.67 70 1427.13 70C1424.24 70 1421.58 70.5206 1419.13 71.545C1416.66 72.5861 1414.69 74.0807 1413.21 76.0455C1411.72 78.0271 1410.98 80.4789 1410.98 83.4345C1410.98 86.39 1411.7 88.909 1413.14 90.9578C1414.62 92.9729 1416.59 94.5011 1419.06 95.5255C1421.51 96.5163 1424.21 97.0033 1427.13 97.0033C1429.58 97.0033 1431.88 96.6506 1434.02 95.9285C1436.14 95.2232 1437.98 94.1484 1439.51 92.7042C1441.04 91.2768 1442.12 89.5136 1442.78 87.3976H1450.58V93.3088C1450.58 94.753 1450.4 96.1804 1450.09 97.6078C1449.76 99.052 1449.08 100.127 1448.07 100.832H1421.28V107.549H1450.58V110.706H1421.28V121.521C1421.28 123.486 1421.7 124.846 1422.54 125.619C1423.41 126.374 1424.9 126.761 1426.99 126.761ZM1434.02 83.4345C1434.02 85.416 1433.43 86.9778 1432.28 88.1365C1431.11 89.312 1429.39 89.883 1427.13 89.883C1424.99 89.883 1423.32 89.312 1422.12 88.1365C1420.9 86.9778 1420.31 85.416 1420.31 83.4345C1420.31 81.52 1420.9 79.9751 1422.12 78.7996C1423.32 77.6408 1424.99 77.0531 1427.13 77.0531C1429.39 77.0531 1431.11 77.6408 1432.28 78.7996C1433.43 79.9751 1434.02 81.52 1434.02 83.4345Z" fill="black"/>
<rect x="80.6249" y="39.6249" width="111.465" height="114.184" fill="#47D922"/>
<path d="M103.504 60.2666H124.858L151.39 95.2812V60.2666H168.256V130H146.359L120.222 92.9141V130H103.504V60.2666Z" fill="#FBF8F8"/>
</svg>
