<svg width="1420" height="146" viewBox="0 0 1420 146" fill="none" xmlns="http://www.w3.org/2000/svg">
<rect width="1420" height="146" rx="39" fill="#F9AB52"/>
<path d="M93.5884 48.4307H77.7206C77.9401 47.6974 78.0751 46.9315 78.1258 46.1493C78.1595 45.3346 78.092 44.5524 77.9232 43.8028C77.7375 43.0206 77.5181 42.2384 77.248 41.4563L68.4701 43.8028C68.6051 44.1613 68.7064 44.5198 68.8077 44.9109C68.9427 45.302 69.0271 45.6768 69.0778 46.019C69.2128 46.8012 69.2128 47.6159 69.0778 48.4307H54.2228V55.1444H59.7597C59.3039 55.894 58.9663 56.6761 58.7468 57.4909C58.5105 58.322 58.4092 59.2345 58.4092 60.2285C58.4092 62.2818 58.8819 64.0417 59.8272 65.5082C60.7725 66.9422 62.0217 68.1155 63.6084 69.028C65.229 69.9406 66.9846 70.625 68.8752 71.0487V74.6336H48.8885V81.4777H99.733V74.6336H78.3959V71.1138C80.3709 70.7228 82.1771 70.0709 83.7977 69.1584C85.452 68.2459 86.7855 67.0563 87.7815 65.5734C88.8112 64.1068 89.3345 62.3143 89.3345 60.2285C89.3345 59.2345 89.1995 58.322 88.9294 57.4909C88.6931 56.6761 88.3554 55.894 87.9165 55.1444H93.5884V48.4307ZM65.5666 92.4934C64.3512 92.4934 63.7435 91.8742 63.7435 90.6683V83.1724H54.4254V92.7541C54.4254 95.1332 55.0669 96.8279 56.3835 97.8383C57.6834 98.8323 59.574 99.3374 62.0554 99.3374H79.8138C81.8395 99.3374 84.1353 99.2234 86.7011 99.0115C89.3007 98.8323 92.1705 98.2293 95.2765 97.1864L93.5209 90.6683C91.0395 91.4505 88.6255 91.9393 86.296 92.1675C84.0002 92.3793 81.772 92.4934 79.6113 92.4934H65.5666ZM80.2865 60.2285C80.2865 61.4507 79.7632 62.5588 78.7335 63.5528C77.7375 64.5142 76.117 64.9868 73.8719 64.9868C71.6099 64.9868 69.9724 64.5142 68.9427 63.5528C67.9468 62.5588 67.4572 61.4507 67.4572 60.2285C67.4572 59.0227 67.9468 57.9309 68.9427 56.9695C69.9724 55.9754 71.6099 55.4703 73.8719 55.4703C76.117 55.4703 77.7375 55.9754 78.7335 56.9695C79.7632 57.9309 80.2865 59.0227 80.2865 60.2285Z" fill="#FBF8F8"/>
<path d="M106.397 86.7574C109.047 85.1931 111.529 83.4821 113.825 81.6081C116.12 79.7015 118.247 77.6809 120.239 75.5462C121.59 75.644 122.822 76.198 123.953 77.2409C124.932 78.1535 126.148 79.3919 127.599 80.9563C129.085 82.5206 130.604 84.2642 132.191 86.1708L137.66 80.8259C136.31 79.1801 134.976 77.6646 133.676 76.2632C132.41 74.8292 131.178 73.5093 129.963 72.2871C128.511 70.8532 126.89 69.9406 125.101 69.5495C128.747 64.4328 130.874 59.8212 131.516 55.731C131.786 53.6452 131.6 51.9342 130.975 50.5817C130.334 49.2455 128.832 48.5611 126.451 48.5611H103.561V55.4703H120.307C120.982 55.4703 121.387 55.6985 121.522 56.1221C121.657 56.5132 121.657 56.9532 121.522 57.4258C121.016 59.1205 120.189 60.9945 119.024 63.0314C117.842 65.0357 116.407 67.1052 114.702 69.2236C112.981 71.3583 111.022 73.4278 108.828 75.4159C106.667 77.4202 104.338 79.229 101.873 80.8259L106.397 86.7574ZM157.512 63.9439H149.477V46.4753H140.293V96.0132H149.477V71.0487H157.512V63.9439Z" fill="#FBF8F8"/>
<path d="M208.044 96.0132V46.4753H198.929V60.8152H188.8V67.92H198.929V96.0132H208.044ZM171.177 49.4736C171.616 50.1743 171.987 51.038 172.257 52.0809C172.527 53.1238 172.662 54.2808 172.662 55.5355V57.8169C172.662 61.2552 172.088 64.2535 170.974 66.8119C169.843 69.3866 168.172 71.7494 165.978 73.9167C163.817 76.0514 161.116 78.2187 157.875 80.4348L162.669 86.5619C165.91 84.3946 168.814 82.1784 171.379 79.9134C173.979 77.6646 176.14 75.1551 177.862 72.4175C178.301 72.7271 178.739 73.053 179.145 73.3952C179.55 73.7048 179.904 74.0796 180.225 74.5033C180.9 75.4159 181.93 76.8987 183.331 78.9357C184.715 80.9889 186.268 83.4169 187.99 86.236L194.337 82.0644C192.615 79.2942 191.096 76.8987 189.746 74.8944C188.429 72.8575 187.214 71.0976 186.099 69.6147C184.648 67.757 182.875 66.6001 180.765 66.1601C181.609 63.4714 182.048 60.5545 182.048 57.4258V55.4703C182.048 54.0363 181.879 52.6023 181.575 51.1683C181.305 49.7018 180.714 48.2352 179.82 46.8012L171.177 49.4736Z" fill="#FBF8F8"/>
<path d="M229.023 66.3557V54.623H257.518V47.7138H219.773V67.92C219.773 70.7554 220.583 72.6783 222.203 73.7212C223.824 74.7641 226.153 75.3181 229.226 75.3507H234.357V83.8243H213.628V90.6032H264.472V83.8243H243.608V75.2204C246.393 75.09 249.145 74.8293 251.846 74.4382C254.547 74.0471 256.927 73.5094 259.003 72.8086L257.585 66.486C254.479 67.1379 251.187 67.643 247.727 67.9852C244.3 68.3437 241.194 68.5067 238.409 68.5067H231.251C230.306 68.5067 229.698 68.3111 229.428 67.92C229.158 67.5289 229.023 67.0075 229.023 66.3557Z" fill="#FBF8F8"/>
<path d="M333.011 82.8465C333.095 81.5918 332.774 80.5326 332.065 79.6526C331.39 78.789 330.445 78.2838 329.229 78.1535C330.394 77.4691 331.356 76.5076 332.133 75.2855C332.943 74.0307 333.348 72.4827 333.348 70.6576V45.8886H324.165V57.4257H315.792V64.4002H324.165V71.3094C324.165 72.7434 323.929 74.0796 323.49 75.2855C323.034 76.4587 322.291 77.4039 321.262 78.0883H294.185V84.9975H321.802C322.967 84.9975 323.558 85.5841 323.558 86.7574V99.9241H332.2L333.011 82.8465ZM286.555 55.9917H302.153C303.183 55.9917 303.436 56.3828 302.896 57.165C301.275 59.6093 298.878 61.907 295.738 64.0743C292.632 66.2578 288.918 68.2296 284.597 70.0058L287.838 76.5891C290.573 75.7254 293.341 74.5033 296.143 72.9389C298.929 71.3746 301.545 69.6473 303.976 67.7244C304.685 67.8222 305.326 68.034 305.867 68.3762C306.441 68.7347 307.031 69.2073 307.622 69.8102C308.466 70.7228 309.344 71.7494 310.256 72.8738C311.201 73.9655 312.231 75.1551 313.362 76.4587L319.169 71.3094C317.852 69.7939 316.755 68.5555 315.86 67.5941C314.999 66.6 314.104 65.6223 313.159 64.6609C312.028 63.6669 310.678 63.0802 309.108 62.901C310.408 61.467 311.488 60.033 312.349 58.599C313.243 57.1324 313.868 55.6658 314.239 54.2318C314.543 52.9282 314.442 51.7549 313.902 50.712C313.395 49.6691 312.315 49.1477 310.661 49.1477H303.976C304.516 48.0722 304.803 46.9315 304.854 45.7582C304.888 44.9435 304.854 44.1287 304.719 43.3465C304.584 42.5644 304.347 41.7822 304.044 41L295.401 43.0858C295.536 43.4769 295.671 43.9332 295.806 44.4546C295.941 44.9435 296.025 45.3672 296.076 45.7582C296.295 46.8989 296.211 48.0233 295.806 49.1477H286.555V55.9917Z" fill="#47D922"/>
<path d="M387.075 82.8465C387.16 81.5918 386.839 80.5326 386.13 79.6526C385.455 78.789 384.51 78.2838 383.294 78.1535C384.459 77.4691 385.421 76.5076 386.198 75.2855C387.008 74.0307 387.413 72.4827 387.413 70.6576V45.8886H378.23V57.4257H369.857V64.4002H378.23V71.3094C378.23 72.7434 377.994 74.0796 377.555 75.2855C377.099 76.4587 376.356 77.4039 375.327 78.0883H348.25V84.9975H375.867C377.032 84.9975 377.622 85.5841 377.622 86.7574V99.9241H386.265L387.075 82.8465ZM340.62 55.9917H356.218C357.247 55.9917 357.501 56.3828 356.96 57.165C355.34 59.6093 352.943 61.907 349.803 64.0743C346.697 66.2578 342.983 68.2296 338.662 70.0058L341.903 76.5891C344.638 75.7254 347.406 74.5033 350.208 72.9389C352.994 71.3746 355.61 69.6473 358.041 67.7244C358.75 67.8222 359.391 68.034 359.931 68.3762C360.505 68.7347 361.096 69.2073 361.687 69.8102C362.531 70.7228 363.409 71.7494 364.32 72.8738C365.266 73.9655 366.295 75.1551 367.426 76.4587L373.233 71.3094C371.917 69.7939 370.819 68.5555 369.925 67.5941C369.064 66.6 368.169 65.6223 367.224 64.6609C366.093 63.6669 364.742 63.0802 363.173 62.901C364.472 61.467 365.553 60.033 366.414 58.599C367.308 57.1324 367.933 55.6658 368.304 54.2318C368.608 52.9282 368.507 51.7549 367.967 50.712C367.46 49.6691 366.38 49.1477 364.726 49.1477H358.041C358.581 48.0722 358.868 46.9315 358.919 45.7582C358.952 44.9435 358.919 44.1287 358.784 43.3465C358.649 42.5644 358.412 41.7822 358.108 41L349.465 43.0858C349.601 43.4769 349.736 43.9332 349.871 44.4546C350.006 44.9435 350.09 45.3672 350.141 45.7582C350.36 46.8989 350.276 48.0233 349.871 49.1477H340.62V55.9917Z" fill="#47D922"/>
<path d="M398.331 46.4753L400.087 80.3696H407.379L409 46.4753H398.331ZM408.73 84.9975H398.534V94.1229H408.73V84.9975Z" fill="#47D922"/>
<path d="M446.708 49.7325C447.161 50.4546 447.543 51.3446 447.822 52.4194C448.1 53.4941 448.239 54.6864 448.239 55.9795V58.3305C448.239 61.8739 447.648 64.9638 446.499 67.6003C445.386 70.2032 443.681 72.6046 441.42 74.7877C439.193 76.9372 436.375 79.1539 433 81.4378L437.941 87.9535C441.368 85.72 444.412 83.4362 447.056 81.1019C449.735 78.7341 451.962 76.1312 453.736 73.3099C454.85 73.8977 455.789 74.687 456.589 75.661C457.598 77.0044 458.764 78.7173 460.068 80.7661C461.408 82.7812 462.921 85.0987 464.591 87.6848L471.411 83.3858C469.636 80.531 468.071 78.0624 466.679 75.9968C465.322 73.8977 464.07 72.084 462.921 70.5559C461.391 68.5071 459.268 67.2644 456.589 66.8614C457.459 64.0905 457.911 61.1182 457.911 57.9275V55.9123C457.911 54.4345 457.737 52.9567 457.424 51.4789C457.146 49.9676 456.537 48.4562 455.615 46.9784L446.708 49.7325ZM484.562 97.6935V46.6425H475.168V97.6935H484.562Z" fill="#FBF8F8"/>
<path d="M539.096 97.6935V46.6425H529.633V73.5115C527.771 74.8549 525.631 75.9297 523.231 76.7357C520.865 77.5418 518.516 78.1463 516.203 78.5494C513.872 78.9188 511.906 79.0868 510.288 79.0868H505.626C504.46 79.0868 503.747 78.8684 503.469 78.415C503.19 77.9784 503.051 77.3739 503.051 76.6014V48.792H493.518V78.8181C493.518 81.421 494.318 83.3522 495.954 84.5949C497.624 85.804 499.885 86.4085 502.773 86.4085H510.497C513.593 86.4085 516.864 86.0055 520.308 85.1994C523.787 84.3934 526.884 83.285 529.633 81.8408V97.6935H539.096Z" fill="#FBF8F8"/>
<path d="M596.175 46.6425H586.642V63.4356H579.474C579.092 60.6648 578.187 58.1962 576.761 56.0467C575.317 53.8636 573.421 52.1507 571.055 50.9416C568.689 49.6989 565.905 49.0607 562.705 49.0607C559.173 49.0607 556.129 49.85 553.589 51.4118C551.084 52.9399 549.135 55.0223 547.744 57.6588C546.352 60.2617 545.656 63.2005 545.656 66.4584C545.656 69.6826 546.317 72.6214 547.674 75.2579C549.066 77.8609 551.032 79.9432 553.589 81.505C556.129 83.0331 559.173 83.7888 562.705 83.7888C565.714 83.7888 568.358 83.2346 570.637 82.1095C572.951 81.0012 574.83 79.4562 576.274 77.4746C577.752 75.4595 578.779 73.2092 579.335 70.6902H586.642V97.6935H596.175V46.6425ZM570.428 66.4584C570.428 68.1713 570.15 69.8002 569.593 71.3619C569.037 72.8901 568.167 74.1496 567.019 75.1236C565.905 76.064 564.462 76.5342 562.705 76.5342C561.034 76.5342 559.608 76.064 558.46 75.1236C557.346 74.1496 556.477 72.8901 555.885 71.3619C555.329 69.8002 555.05 68.1713 555.05 66.4584C555.05 64.6783 555.329 63.0158 555.885 61.4876C556.477 59.9762 557.346 58.7335 558.46 57.7931C559.608 56.8191 561.034 56.3153 562.705 56.3153C564.462 56.3153 565.905 56.8191 567.019 57.7931C568.167 58.7335 569.037 59.9762 569.593 61.4876C570.15 63.0158 570.428 64.6783 570.428 66.4584Z" fill="#FBF8F8"/>
<path d="M657.134 72.2351C657.134 73.6793 656.925 74.9892 656.507 76.1983C656.09 77.4074 655.359 78.3814 654.35 79.0867H630.204V86.1398H651.706C650.349 87.4496 648.47 88.6587 646.07 89.7671C643.652 90.8922 640.868 91.883 637.719 92.7227C634.606 93.5623 631.335 94.3012 627.908 94.9393L629.369 102.127C633.127 101.673 636.919 100.884 640.781 99.7757C644.626 98.6506 648.175 97.3072 651.428 95.7454C652.628 95.5103 653.724 95.5607 654.698 95.8798C655.672 96.2324 656.734 96.7194 657.899 97.3575C659.152 98.0629 660.352 98.785 661.517 99.5071C662.666 100.212 663.988 101.069 665.484 102.06L669.868 96.753C668.511 95.7622 667.328 94.9393 666.319 94.2676C665.292 93.5959 664.231 92.9578 663.118 92.3868C662.422 92.0341 661.761 91.7151 661.17 91.4464C660.613 91.1441 659.952 90.9594 659.221 90.909C660.091 90.2037 660.891 89.4816 661.587 88.7595C662.283 88.0038 662.874 87.2481 663.396 86.4756C663.849 85.7199 664.11 84.8971 664.162 83.9903C664.249 83.1002 664.11 82.2438 663.744 81.4377C663.361 80.5981 662.735 79.9599 661.865 79.5569C663.205 78.9355 664.318 77.9447 665.205 76.6013C666.127 75.2243 666.597 73.545 666.597 71.5634V64.779H674.739V57.7931H666.597V46.0379H657.134V72.2351ZM649.618 46.9111H619.697V68.0032C619.697 70.2535 620.149 71.8321 621.089 72.7725C622.063 73.7129 624.011 74.1831 626.934 74.1831H633.475C635.093 74.1831 636.919 74.0152 638.972 73.6457C641.06 73.2931 643.043 72.8061 644.956 72.1679C646.852 71.4962 648.401 70.7237 649.618 69.8169V46.9111ZM640.294 53.8971V65.585C639.407 66.0385 638.311 66.4247 637.024 66.727C635.771 66.9957 634.588 67.13 633.475 67.13H630.831C629.613 67.13 629.021 66.5926 629.021 65.5179V53.8971H640.294Z" fill="#FBF8F8"/>
<path d="M723.126 87.8191C723.353 85.72 723.057 84.2254 722.222 83.3185C721.387 82.4285 719.995 81.9751 718.047 81.9751H707.609V78.2806H729.598V71.3619H677.2V78.2806H698.145V81.9751H683.046V95.1409C683.046 97.7774 683.741 99.5239 685.133 100.38C686.525 101.27 688.578 101.724 691.326 101.724H718.325C720.691 101.724 721.961 100.867 722.152 99.1712L723.126 87.8191ZM684.924 48.5905V55.3749H707.122C703.869 57.1214 700.233 58.532 696.197 59.6067C692.161 60.6479 687.395 61.6051 681.932 62.4951L683.254 69.4811C686.768 68.9941 690.143 68.4399 693.344 67.8017C696.58 67.13 699.537 66.3743 702.181 65.5179C703.103 65.2156 704.025 64.8798 704.965 64.5103C705.887 64.1577 706.791 63.7714 707.679 63.3684C708.514 63.5027 709.296 63.7546 710.044 64.1073C710.775 64.4263 711.575 64.7454 712.41 65.0477C713.889 65.6858 715.229 66.324 716.446 66.9957C717.699 67.6338 719.264 68.4735 721.178 69.5482L724.866 63.5699C723.283 62.7302 721.752 61.9578 720.273 61.286C718.83 60.5807 717.281 59.8754 715.611 59.2037C715.42 59.1197 715.281 59.0693 715.194 59.0693C717.229 57.558 718.76 56.0466 719.786 54.5688C720.708 53.1414 720.9 51.7979 720.343 50.5385C719.821 49.2454 718.673 48.5905 716.864 48.5905H705.73C705.869 48.1538 705.974 47.7004 706.078 47.247C706.165 46.8104 706.235 46.357 706.287 45.9036C706.322 45.0639 706.252 44.2243 706.078 43.4182C705.939 42.6121 705.73 41.8061 705.452 41L696.545 43.1495C696.684 43.5525 696.823 44.0228 696.963 44.5601C697.136 45.0639 697.258 45.5005 697.31 45.9036C697.45 46.76 697.397 47.6501 697.171 48.5905H684.924ZM694.11 94.6707C693.448 94.6707 693.014 94.5363 692.787 94.2676C692.596 94.0325 692.509 93.6127 692.509 92.9914V88.961H713.524V94.6707H694.11Z" fill="#FBF8F8"/>
<path d="M873.158 97.7747V48H864.251V62.5764H853.605V70.0325H864.251V97.7747H873.158ZM887.214 99.051V48H878.238V99.051H887.214ZM861.607 77.7573C859.746 78.2611 857.937 78.681 856.18 79.0336C854.405 79.3527 852.596 79.5038 850.752 79.5038H847.69C846.473 79.5038 845.742 79.2855 845.464 78.8321C845.22 78.3955 845.116 77.7573 845.116 76.9513V50.1495H836V79.571C836 84.7265 838.853 87.2286 844.559 87.0943L849.221 87.0271C852.039 86.9431 854.579 86.6745 856.806 86.221C859.033 85.7844 861.068 85.2638 862.929 84.6761L861.607 77.7573Z" fill="#47D922"/>
<path d="M943.395 99.051V48H933.793V99.051H943.395ZM927.182 67.8158C927.182 64.3733 926.486 61.3505 925.095 58.7476C923.738 56.1111 921.772 54.0791 919.18 52.6349C916.623 51.1571 913.561 50.4182 909.995 50.4182C906.463 50.4182 903.419 51.1571 900.879 52.6349C898.322 54.0791 896.356 56.1111 894.964 58.7476C893.573 61.3505 892.877 64.3733 892.877 67.8158C892.877 71.2752 893.573 74.298 894.964 76.8841C896.356 79.487 898.322 81.519 900.879 82.9968C903.419 84.441 906.463 85.1463 909.995 85.1463C913.561 85.1463 916.623 84.441 919.18 82.9968C921.772 81.519 923.738 79.487 925.095 76.8841C926.486 74.298 927.182 71.2752 927.182 67.8158ZM917.788 67.8158C917.788 69.5623 917.475 71.2248 916.884 72.7866C916.327 74.3148 915.457 75.5406 914.309 76.4811C913.196 77.4215 911.752 77.8917 909.995 77.8917C908.273 77.8917 906.829 77.4215 905.681 76.4811C904.567 75.5406 903.697 74.3148 903.106 72.7866C902.549 71.2248 902.271 69.5623 902.271 67.8158C902.271 65.9854 902.549 64.3061 903.106 62.7779C903.697 61.2665 904.567 60.0238 905.681 59.0834C906.829 58.143 908.273 57.6728 909.995 57.6728C911.752 57.6728 913.196 58.143 914.309 59.0834C915.457 60.0238 916.327 61.2665 916.884 62.7779C917.475 64.3061 917.788 65.9854 917.788 67.8158Z" fill="#47D922"/>
<path d="M981.159 83.9372V70.0997H989.579V99.051H999.112V48H989.579V62.7779H981.159V49.545H971.835V62.5092H959.17V49.545H949.846V81.519C949.846 83.7692 950.542 85.4654 951.934 86.6241C953.36 87.7492 955.552 88.3034 958.475 88.3034H964.807C966.477 88.3034 968.321 88.1355 970.374 87.766C972.461 87.4134 974.444 86.9264 976.358 86.2882C978.306 85.6165 979.907 84.844 981.159 83.9372ZM964.598 81.1159H960.98C959.762 81.1159 959.17 80.5618 959.17 79.4366V69.6967H971.835V79.5038C970.756 80.0412 969.573 80.4442 968.286 80.7129C966.981 80.9816 965.746 81.1159 964.598 81.1159Z" fill="#47D922"/>
<rect x="761.908" y="43.9077" width="58.6615" height="60.0923" fill="#47D922"/>
<path d="M772.714 53.6455H784.766L799.739 73.4062V53.6455H809.258V93H796.9L782.149 72.0703V93H772.714V53.6455Z" fill="#FBF8F8"/>
<path d="M1064.48 58.3011C1064.48 55.513 1063.78 53.215 1062.39 51.4071C1060.99 49.5653 1059.12 48.2135 1056.78 47.3518C1054.42 46.4562 1051.78 46 1048.86 46C1045.98 46 1043.34 46.4562 1040.94 47.3518C1038.53 48.2135 1036.64 49.5653 1035.25 51.4071C1033.85 53.2657 1033.17 55.5975 1033.17 58.4362C1033.17 61.7819 1034.21 64.4347 1036.33 66.4116C1038.44 68.4055 1041.12 69.6897 1044.4 70.2642V73.8464H1030V80.8755H1053.47C1057.07 80.8755 1060.16 80.639 1062.75 80.1321C1065.38 79.5914 1067.72 78.831 1069.74 77.8341V86.9585H1079.53V69.7911H1087.95V62.6943H1079.53V47.4194H1069.74V70.2642C1067.76 71.3456 1065.36 72.2073 1062.54 72.8325C1059.75 73.4746 1056.96 73.8126 1054.19 73.8464V70.0614C1057.16 69.3517 1059.6 68.0169 1061.53 66.0737C1063.49 64.0968 1064.48 61.5115 1064.48 58.3011ZM1038.42 84.7956V96.6236C1038.42 98.5499 1039.09 100.071 1040.44 101.152C1041.82 102.267 1043.77 102.842 1046.27 102.842H1065.99C1069.45 102.842 1072.36 102.538 1074.78 101.963C1077.17 101.422 1079.54 100.763 1081.9 100.003L1079.89 93.5145C1077.58 94.1904 1075.23 94.7311 1072.83 95.1367C1070.47 95.5422 1067.95 95.7449 1065.27 95.7449H1050.16C1049.44 95.7449 1048.95 95.6098 1048.72 95.3394C1048.46 95.0691 1048.36 94.6297 1048.36 94.0552V84.7956H1038.42ZM1055.05 58.3011C1055.05 59.7542 1054.51 61.0384 1053.47 62.1536C1052.46 63.235 1050.91 63.7757 1048.86 63.7757C1046.79 63.7757 1045.23 63.235 1044.18 62.1536C1043.17 61.0384 1042.67 59.7542 1042.67 58.3011C1042.67 56.8648 1043.17 55.5975 1044.18 54.5161C1045.23 53.4009 1046.79 52.8264 1048.86 52.8264C1050.91 52.8264 1052.46 53.4009 1053.47 54.5161C1054.51 55.5975 1055.05 56.8648 1055.05 58.3011Z" fill="#FBF8F8"/>
<path d="M1122.82 72.0215V71.6159H1132.03V73.7788C1132.03 75.2657 1131.78 76.6513 1131.31 77.9017C1130.83 79.1182 1130.05 80.0983 1129.01 80.8079H1100.14V87.9723H1129.58C1130.83 87.9723 1131.46 88.5806 1131.46 89.7972V103.45H1140.74L1141.53 85.7419C1141.62 84.4408 1141.32 83.3425 1140.6 82.4301C1139.88 81.5345 1138.83 81.0107 1137.5 80.8755C1138.74 80.1659 1139.77 79.1689 1140.6 77.9017C1141.46 76.6006 1141.89 74.9954 1141.89 73.1029V47.4194H1132.03V52.4209H1122.82V48.298H1113.24V55.5299H1102.01V48.298H1092.51V70.2642C1092.51 71.7511 1092.69 72.9508 1093.09 73.8464C1093.47 74.7588 1094.18 75.4009 1095.25 75.8064C1096.29 76.2119 1097.84 76.4147 1099.85 76.4147H1105.9C1107.63 76.4147 1109.57 76.2457 1111.73 75.874C1113.89 75.5192 1115.94 75.0292 1117.92 74.3871C1119.94 73.7112 1121.56 72.9339 1122.82 72.0215ZM1106.84 69.3855H1104.03C1102.68 69.3855 1102.01 68.8279 1102.01 67.6958V62.6267H1113.24V67.7634C1112.33 68.2196 1111.32 68.6083 1110.22 68.9124C1109.1 69.2335 1107.99 69.3855 1106.84 69.3855ZM1122.82 59.4501H1132.03V64.5868H1122.82V59.4501Z" fill="#FBF8F8"/>
<path d="M1223.89 66.1413H1215.39V48.0276H1205.53V99.3947H1215.39V73.5084H1223.89V66.1413ZM1173.43 90.4055C1178.84 87.4316 1183.32 84.1029 1186.89 80.4024C1190.49 76.7188 1193.24 72.8325 1195.17 68.7772C1197.07 64.7219 1198.23 60.7004 1198.62 56.6789C1199 52.3533 1197.25 50.1905 1193.37 50.1905H1167.88V57.3548H1187.03C1187.64 57.3548 1188.06 57.5238 1188.26 57.8279C1188.44 58.149 1188.49 58.6221 1188.4 59.2473C1187.63 64.0292 1185.52 68.3717 1182.06 72.2918C1178.65 76.1781 1174.07 79.8617 1168.32 83.3763L1173.43 90.4055Z" fill="#FBF8F8"/>
<path d="M1279.27 99.3947V48.0276H1269.34V99.3947H1279.27ZM1262.5 67.9662C1262.5 64.5023 1261.78 61.4608 1260.34 58.8418C1258.94 56.1889 1256.9 54.1444 1254.22 52.6912C1251.58 51.2043 1248.41 50.4608 1244.72 50.4608C1241.07 50.4608 1237.92 51.2043 1235.29 52.6912C1232.64 54.1444 1230.61 56.1889 1229.17 58.8418C1227.73 61.4608 1227.01 64.5023 1227.01 67.9662C1227.01 71.447 1227.73 74.4884 1229.17 77.0906C1230.61 79.7096 1232.64 81.7542 1235.29 83.2411C1237.92 84.6943 1241.07 85.4039 1244.72 85.4039C1248.41 85.4039 1251.58 84.6943 1254.22 83.2411C1256.9 81.7542 1258.94 79.7096 1260.34 77.0906C1261.78 74.4884 1262.5 71.447 1262.5 67.9662ZM1252.78 67.9662C1252.78 69.7235 1252.46 71.3963 1251.85 72.9677C1251.27 74.5053 1250.37 75.7388 1249.18 76.6851C1248.03 77.6313 1246.54 78.1044 1244.72 78.1044C1242.94 78.1044 1241.44 77.6313 1240.26 76.6851C1239.11 75.7388 1238.21 74.5053 1237.59 72.9677C1237.02 71.3963 1236.73 69.7235 1236.73 67.9662C1236.73 66.1244 1237.02 64.4347 1237.59 62.8971C1238.21 61.3763 1239.11 60.1259 1240.26 59.1797C1241.44 58.2335 1242.94 57.7604 1244.72 57.7604C1246.54 57.7604 1248.03 58.2335 1249.18 59.1797C1250.37 60.1259 1251.27 61.3763 1251.85 62.8971C1252.46 64.4347 1252.78 66.1244 1252.78 67.9662Z" fill="#FBF8F8"/>
<path d="M1290.99 49.3119V70.5346C1290.99 73.4747 1291.85 75.4685 1293.58 76.5499C1295.3 77.6313 1297.79 78.172 1301.06 78.172H1310.35C1312.94 78.172 1315.57 78.1045 1318.27 77.9693C1320.95 77.8003 1323.54 77.53 1326.04 77.1582C1328.58 76.7527 1330.83 76.2458 1332.81 75.6037L1331.3 69.0476C1327.99 69.7235 1324.6 70.2473 1321.15 70.6022C1317.73 70.9739 1314.52 71.1429 1311.5 71.1429H1303.22C1302.22 71.1429 1301.57 70.9401 1301.28 70.5346C1300.99 70.129 1300.85 69.5883 1300.85 68.9125V56.4762H1331.23V49.3119H1290.99ZM1284.43 86.7557V93.7849H1338.64V86.7557H1284.43Z" fill="#FBF8F8"/>
</svg>
